<mxfile host="Electron" modified="2024-01-28T21:47:59.596Z" agent="Mozilla/5.0 (Windows NT 10.0; Win64; x64) AppleWebKit/537.36 (KHTML, like Gecko) draw.io/22.1.18 Chrome/120.0.6099.199 Electron/28.1.2 Safari/537.36" etag="Xblj6jzvthkxZwMUf59W" version="22.1.18" type="device">
  <diagram name="Page-1" id="UWKqIqR-BIUy9zbmm2sZ">
    <mxGraphModel dx="1323" dy="865" grid="1" gridSize="10" guides="1" tooltips="1" connect="1" arrows="1" fold="1" page="1" pageScale="1" pageWidth="850" pageHeight="1100" math="0" shadow="0">
      <root>
        <mxCell id="0" />
        <mxCell id="1" parent="0" />
        <mxCell id="Jmjwqn2J3mBhddmmst4y-42" value="" style="whiteSpace=wrap;html=1;aspect=fixed;" vertex="1" parent="1">
          <mxGeometry x="590" y="220" width="80" height="80" as="geometry" />
        </mxCell>
        <mxCell id="Jmjwqn2J3mBhddmmst4y-24" value="" style="whiteSpace=wrap;html=1;aspect=fixed;fillColor=#dae8fc;strokeColor=#6c8ebf;" vertex="1" parent="1">
          <mxGeometry x="340" y="10" width="640" height="640" as="geometry" />
        </mxCell>
        <mxCell id="Jmjwqn2J3mBhddmmst4y-10" value="" style="image;sketch=0;aspect=fixed;html=1;points=[];align=center;fontSize=12;image=img/lib/mscae/Azure_Pipelines.svg;" vertex="1" parent="1">
          <mxGeometry x="370" y="84" width="50" height="50" as="geometry" />
        </mxCell>
        <mxCell id="Jmjwqn2J3mBhddmmst4y-11" value="" style="dashed=0;outlineConnect=0;html=1;align=center;labelPosition=center;verticalLabelPosition=bottom;verticalAlign=top;shape=mxgraph.weblogos.github" vertex="1" parent="1">
          <mxGeometry x="45.06" y="75" width="74.94" height="75" as="geometry" />
        </mxCell>
        <mxCell id="Jmjwqn2J3mBhddmmst4y-13" value="" style="shape=image;verticalLabelPosition=bottom;labelBackgroundColor=default;verticalAlign=top;aspect=fixed;imageAspect=0;image=data:image/png,iVBORw0KGgoAAAANSUhEUgAAAMIAAADMCAYAAAAh63xBAAARzUlEQVR4Ae2dd5BdVR3HgyLYEFBgbDiKKI5jGWcsjAr8ZfvHsVBCSwUMJSCCSEsQQTSNEIlZCCFRQg1J2GU3nSSkEzY9ZCG9kk5632x+znfXO3lv95Vbfuece979npmdu++9e8859/v7fe65p7cTBipABaQdNaACVEAIAp2ACkABlgj0AypAEOgDVKBFAZYI9AQqwBKBPkAFWhRgiUBPoAIsEegDVKBFAZYI9AQqwBKBPkAFWhRgiUBPoAIsEegDVKBFAZYI9AQqwBJBwQeajoscb1SIiFG4VIAlQlL1Jz4lMunppLHwescKEIQkBtizTeSmz4s8cLHIwT1JYuK1jhUgCEkMMLFKpP2pIlefJjLn1SQx8VrHChCEJAa44yKRK9q1/HU5T6TxaJLYeK1DBQhCXPFf+8dJCAIYah8XOXEiboy8zqECBCGO+NvWinQ9ty0I93xPZN+OODHyGscKEIQ4BqjuJXLVh9uCgPrCm/+NEyOvcawAQYhqAPQbdDu/LQTB61GXc0SOHIgaK893rABBiGIAvP8P/3NxCAIYRj0qcqIpSsw817ECBCGKATYuE+l4VnkQ7vymyK7NUWLmuY4VIAhRDPDSAyJXnlIehCs/JDJhUJSYea5jBQhCWAMc3l+4pSh4HWp97Pxpkf07w8bO8xwrQBDCGAAV5KobypcErWF44T7WFcLom4JzCEIYI6yqF7nuE9FB6H6hyI71YVLgOY4VIAhhDDDsjugQoHRAfaK2b5gUeI5jBQhCOQPs3irS6ex4IAAGXLvr/XKp8HfHChCEUgbAhJs+v40PQVBneLa7COoZDKlVgCCUMk3DtJYh1oFDxz2iJ3rLylIp8TfHChCEUgYY1CV5aRDA80rPUinxN8cKEIRiBtiySqTjp/RA6HimyLY1xVLj944VIAiFDHD8mEjPS/QgCEqFQZ1ZVyikdwq+IwiFjLBwXLihFIGDhz3e+FkRjFdiSJ0CBKG1STDCtN/l+qVBAAtGrzKkTgGC0Nokq+fF60UOHL3cscMZIpsaWqfKz44VIAi5BmhqFMEQ6nLOnPR39E2wXyFXeef/E4RcE8weYR4CQIRZbGvm56bM/x0rQBACA6AX+e+/tAMCYHjm5iBlHlOgAEEIjLB0ssjVp9sD4dqPiaxZEKTOo2MFCAIMgIW50LSZ9N0/6vWP/Ix1BccABMkTBCgxeYh9CABNp7NE3psZ2IJHhwoQhGNHRHr81A0IgGFgB4fmZ9KBAgRh7miRq051BwIWEF7xVmAPHh0pkG0QDu0TwST7qO/22uc/+BMRlEwMzhTILggYSlHX3z0EgAq9zYsnOXMCJiySXRCwPAsW7dV+useNr+/v6Y8OFcguCFOGmhlhGhcELCr8zlSHrpDtpLMJArZ86nBmekqDAJ57fyBy9GC2PdLR3WcPBCzO++rD6YMAMFz3cZH5tY5cIdvJZg+EA7tE/viNdIIAGB77VbY90tHdZw+EtLQUBa9DhY6YIcdgVYFsgbB1tUgHxQn5hZxY47u7vi1yYLdVR8h6YtkBAXWD5+5O7ytRLkDXnC6CuREM1hTIDgh7torc8mU/QAAUD11qzQmYUJY61F683x8IgtJhzkj6qCUFslEibFhqdkJ+4Ljax+5f43a1BEFJgeZNPm70rzQAVBgVy+1qlRyhdDSVXyJsWy1y0+f8BAEw3PdDETlR2or8NbEClQ0CRpgO7uYvBMGr1jRuYp7Y08tEUNkgrJyrs6x74JCujjd/idvVlnHkpD9XLghYyLffFf6XBoAP29VOrEpqa15fQoHKBWHdYpGu51QGCIDh7u+KAG4GIwpUJgioGzx+ZeVAELySjXvSiBMw0krtUHtniggmugQOVCnHrudyu1pD1FZeiYBJ8DaXbrzjIhFMqLEBW/N2tf0MuUK2o608EN6bJYJtmmw4JjYhx/TKWa+IXPNRO2lite5jh7PttQbuvvJAwDKKNiBAGphEA6c8csDOcvLBfY1+zIArZDvKygKhvsYeBHhNWTD2pPcsGi/S/iN20r/+DBHMrWBQU6ByQMDyLA9dZscR8WTGZh+Y4xAEtFT1/Z2d9AHhiIeDlHlUUKByQFg0wd4IU2z0sXl5W/lRX8BiXcErjMlj9wtFAD+DigKVAQKexvdfbMcB4dxVXUSwsUjrgOXlH/25vXw8f0/rHPBzTAUqA4Tpw+05H1qH1i4sLjd+u/6TdvLT/lRuTFjcEpF+8R+EfTtbhiqbfA3JjfvF+0RQApUKQ2+3AwLy9cK9pXLC30Iq4D8IWNYdk91zndXU/7deILJ/V3lpMc7phvPs5AkjU7FWE0MiBfwGAe/pf/qWHYcDXC/3EGnKaSkqJj3yVdXVXr4w54IhkQL+goDXEwxCM/X0bx0v9lHYuTG82Fg1w+boV5RCDLEV8BeE3VtEsBBWa4c19TnOLLHqXvZW3B7aPb9fI7ZLZPNCf0GY9pwIWk1MOX5uvPf/KN74nm1rRG79ip08ok6CVb4ZYingJwhHDorc9lU7DgYg3hhcvqWokPzoeR7xV3v5HHBNoVzwuxAK+AcC6gYjH7HnXFgdL8meBRiUd4ulUgHQYp42Q2QF/ANh+zoRDC/IfXUx9X/703T2QcZrHHbPNJXP3HirbuAm5pEx8HGG2riB9iqgvX6t41R4d8ec41yHNfV/57NFdr0fwxWyfYlfJcL+D0S6fdGOQ8FR59fpeQf2bDPl/K3j7f2beHUavbv1LiZ/QEDd4D932nOmB3+s70xYta6105r6vOxN75zRZYb9AQHDnm/6gh1HQucZmj61A3bCwfROU86fGy9akLj8S2gL+gMCpifmGtrk/4P/oF8awCSHD4j0uNTOfWBjQhMwh3Ytv070A4QPNtkbxIZlYFbPM2fFxRPtLTXz6C8Kz5swd3fexuwHCAM72nmKopR5xsIAtn6X27sfbkwYCs70g9C8dOO5dhwHwyEO7Q0lXKKTVtWLdP6MnXtCC9JRLv9Szl7pB8HWBoCYED/yb+X00vkdw7Qx+d9kPSeIG3M1NjXo5LuCY0k3CFtWinQ6247DdDLUUlTMeTClExXawGFNHnteJoIVABmKKpBeENBvgJ5dkw6SG/cEB8uu2yzt5o4q6gT8Ic1DLFbMEel0lh0Q/vJ9N2P5sUhXt/Pt3CNakDBql6GgAuktEZ6+0c6YIjSXTh5SUBzjX2KY9rO32QEBg/6WzzZ+S74mkE4QsB3stZben2//ughWwnAVdqwXwXLvua9ppv7HBKOjh1zdaarTTR8IGBaAXedNOUNevKeIYC8F1wHbQuXlq525zxgSztBGgfSBsHiSvfE4qIynIWCi/12WVuPocYnIoX1puOtU5SF9IPS/ytzTMPepi/Z1zWHWScyKFrLqf9q5b9QVsE4sQ54C6QJhxVv2JuT3vDRdbet4St92gR0Y7v5Oy54Oea6Q7Q/pAqFhusjUYXb+NEZmrl8qMn+s3t+Ep0UwgceGBgvG6+UbGqxb5DVJ6QLBNym3rBZ5/XGR13rr/NUNsLOxONaEqu6rk2fcOzRw2fKm4DcEIYmIjcdEpg7Xc6jX+ogsmpQkR+WvbWoUmfGSYp57iywYVz7dlJ9BEJIaaMdGkZp+eo6FuA7sTpqr4tdvXy9S+4Refmv7R1sKs3jOnP5CEDTkn1ut51h41ZgzSmf1jEL3Nq9ON6+zXzWX10L5N/QdQdAQtvkp21/PweqeENm5SSNn+XHs3SFS3Ucvn6gbhFkmPz8XqfxEEDTMgvkFmu/dcNaFym39TcdFZrysBwFKLu08atgiZhwEIaZwbS7btVm3JUa7rrBjg27dAC1cH1TOQmIEoY1HJ/ji7VrdJ+4sxfdvtPVrNfM212NGV0TdILA2QQiU0DhiIxHNFpnX+4ugVSppOLBHpEax3wB9EBW2XRVBSOpkuddj5OzMEbpPXvQAJwmoG8xSztOiiUlylMprCYK2WfZs160r4OmbZGWNnRtEULJovRbV/Utk1xZt1ZzHRxBMmAA9rVqOh3jwRMeTPU5YOF43L+gziZuXOPm3dA1BMCE0WlPQqqIFA9rrMZMtasASk5r9BtW9RQ7uiZoLL84nCCbMhPE8s0fqgQCg0OoTJWAb3NmjdPOw+I0oOfDqXIJgylzYy0GrREA8aPWJMrMMLViadYMxT4rs3mpKLefxEgSTJkDPqyYMs14J/36+cKJu2vU14dM2qamhuAmCIWGbo0XrCp6kWjCgtxl7yJULWOsUo0K10kXLVYXWDQIpCUKghIkjWle0R6Zi9GipgLWS5tYoQtBHZMnkUilWxG8EwbQZUVdAa4vW0xl1BfQUFwtosdKcNTd2YCY2MicIxRxK83u0tmg2Y858ufj7OtLSgg7xoARCC1SFB4Jgw8B7t4vgyarloIBq29q2Ocfm5uj5VUunX7Je7bY5TO03BMGGaVBXmKc8MrW+Nj/nWBupXnn22dKp+WlU8CeCYMu4mIdcrTi3Ga1CuSNAMR9Cc+70uEEimNGWkUAQbBp66RS91xa8/kx/8WRdQb1uMMbNUvk27ZGTFkHIEcP4v3jCjvu3HgyoK2CPBeyGo9lfgVanUi1TxoWynwBBsKk5Wl/mjdEDAaUC+gy0Z5+9M82mKqlIiyDYNgPqCppjgPD01myaHV/l/ap1cUxKEOKolvSaZdN1SwWt5lLEg7kUaIHKWCAILgyO1h48eTUdWCMulFQmV9lzoXXINAlCSKFUT8MTV3vmmAYIKKkyGgiCK8NjNKfmihdJQUAJhXFRGQ0EwaXhG2am5/Uoo3WDwPwEIVDCxRFt9ROecg9Dcy91iRGtLrSxnCZBsCx4m+SwH0LS15pE1/cReXdmm2xl7QuC4NriB/eKjFEcMRoVCpRIFT77LIyJCUIYlUyfs/wt3U6xKDBwh81m6xIE004eJv7D+0UmPWP/Fal2AEuD/9uHIIRxVBvnaI9MDVMqLJ9j4868SIMgpMVMWLNIcwRpORCwlW2UdZLSopOhfBAEQ8LGinb1fHuvR4sN794ZSwB3FxEEd9q3TfnIQZE3hpiHAeuysqUoT3+CkCeH6w8nRBpmmAcBrVQMeQoQhDw5UvABLUiaK160riugboBVshnyFCAIeXKk5MO6JeZKhSVTMjnfoJxlCUI5hVz8jrVLJw/Vh4F1g6LWJAhFpXH8w3uz9UFYWe/4ptKbPEFIq22OHtKtK0wcLII4GQoqQBAKypKSLzcsExndS6dkWDaNdYMSZiUIJcRx/lPjUZEpw5KDgLpBkp05nQthPgMEwbzGyVJY8XZyEFbNS5aHDFxNENJuZKxwPTbB6niThoggDoaSChCEkvKk5MdN78YvFTAvOoPrFEW1HEGIqpiL8xuPibw5PDoMdU9whGlIexGEkEK5Pe2ESJyRqbiGIZQCBCGUTCk4CS1IUeYroGca1zCEUoAghJIpJSdtXhl+bjN6plk3CG04ghBaqhSciC2opj1fvq6AFbI5wjSSwQhCJLlScPLaRaVBQE806waRDUUQIkvm+ILjx0TqSuzQibrB8UbHmfQveYLgn81Etq4pXldYwdlncUxKEOKo5vqaE00iM15q+4pU01fkCEeYxjEPQYijWhquWb+0LQioPzDEUoAgxJItBRehBWnskydhmDzs5FazKcieb1kgCL5ZLDe/29ed3GR85dvsN8jVJuL/BCGiYKk6HR1ms0aI1PTh7LOEhiEICQV0fvnGBpH1S5xnw/cMEATfLYgWJMnedrDaZiMI2ooyPi8VIAhemo2Z1laAIGgryvi8VIAgeGk2ZlpbAYKgrSjj81IBguCl2ZhpbQUIgraijM9LBQiCl2ZjprUVIAjaijI+LxUgCF6ajZnWVoAgaCvK+LxUgCB4aTZmWlsBgqCtKOPzUgGC4KXZmGltBQiCtqKMz0sFCIKXZmOmtRUgCNqKMj4vFSAIXpqNmdZWgCBoK8r4vFSAIHhpNmZaWwGCoK0o4/NSAYLgpdmYaW0FCIK2oozPSwUIgpdmY6a1FSAI2ooyPi8VIAhemo2Z1laAIGgryvi8VIAgeGk2ZlpbAYKgrSjj81IBguCl2ZhpbQUIgraijM9LBQiCl2ZjprUVIAjaijI+LxX4H33ngwehhZRYAAAAAElFTkSuQmCC;" vertex="1" parent="1">
          <mxGeometry x="45.06" y="341" width="108.42" height="114" as="geometry" />
        </mxCell>
        <mxCell id="Jmjwqn2J3mBhddmmst4y-15" value="" style="endArrow=classic;html=1;rounded=0;fillColor=#e6d0de;gradientColor=#d5739d;strokeColor=#996185;strokeWidth=2;" edge="1" parent="1" source="Jmjwqn2J3mBhddmmst4y-11" target="Jmjwqn2J3mBhddmmst4y-10">
          <mxGeometry width="50" height="50" relative="1" as="geometry">
            <mxPoint x="140" y="120" as="sourcePoint" />
            <mxPoint x="190" y="70" as="targetPoint" />
          </mxGeometry>
        </mxCell>
        <mxCell id="Jmjwqn2J3mBhddmmst4y-19" value="" style="endArrow=classic;html=1;rounded=0;entryX=0;entryY=0.5;entryDx=0;entryDy=0;fillColor=#f8cecc;gradientColor=#ea6b66;strokeColor=#b85450;strokeWidth=2;" edge="1" parent="1" source="Jmjwqn2J3mBhddmmst4y-10" target="Jmjwqn2J3mBhddmmst4y-25">
          <mxGeometry width="50" height="50" relative="1" as="geometry">
            <mxPoint x="540" y="340" as="sourcePoint" />
            <mxPoint x="590" y="290" as="targetPoint" />
          </mxGeometry>
        </mxCell>
        <mxCell id="Jmjwqn2J3mBhddmmst4y-23" value="" style="shape=image;verticalLabelPosition=bottom;labelBackgroundColor=default;verticalAlign=top;aspect=fixed;imageAspect=0;image=data:image/png,iVBORw0KGgoAAAANSUhEUgAAALYAAACxCAYAAABp9Ue8AAAgAElEQVR4Ae2dB3gUVdfHg42Spdh7e1+liYhSBFFQUQTrqyig0qRIUwRBBAQUFRREFFB6UXpLgCSkUENL6J2QACKkt03b9Pb/vjMzZ3N3MrvZJJtkd8g+z31unbu7s785+59zy7ih+lV9BnR4Btx0+J2qv1L1GUA12NUQ6PIMVIOty5+1+ktVg13NgC7PQDXYuvxZq79UNdjVDOjyDFSDrcuftfpLVYNdzYAuz0A12Lr8Wau/lK7ALiwsREFhIfLyC+RQUIj8Qn2Gwmp2bZ4BXYCdX1CIpLRMnLsSi13HLmNbUAh8g0Phf+Jf7LqcgL1xmTiQlKeLsD8pD4dS8hGWXoDkXLpobf6+122lS4NNFjozOxenLsVizqZg9JqyDu0G/YEWvX9Fiz6z0HLwfDw3eSM6Lz+Ed/dEoccJE3qeznBo+NDB/dnz+XqfycDYi1n4OyoHZ00FyCwAqvm2vIZdGuz0rBzsPn4F/aZ54pEPfkW9zlNg6DQJhpcmwPDSOLh3HAvDS2Nx63tT8ehkTzyz+TLaB6Xi+cMmlw8vHDahy/F0fBWWhUBjHjLygcJqus10uyzY2bn5CDoXgfcnrccdb/4Ew6vfw/DqFBhe+RaGl7+B4aXxcH/xa7h3GAP350eiXpcJeHj8erT0/hftg9PQ/pDJ9cNhEzocTseQc5kITs5DdkE12Uy2S4JNlik8LhWj/gjAnW9Nh6HzDzB0ZrC/g+FlxWq/KFtt9+dHoc5zn6PBm5Pw+MzteDYwoXxQH1ZdFOp8BV40zx0ygQJdmJwmuCdezEJEdgGq2ZbRdkmwyVr7Hb6MJ/rOg+G1H2HoTEGAu9NkS6v9wmi4t/8C7u0/xz2fzkOLTWF4LlgFZwXC6Mh/B4ZZHXc9ng7/xDxkVxttiWyXBDsxNROTlwWiwRs/w/Da1OJwS3JkoiRHZK39lSRH6jz3GRq8ORmN5+5D2wPJZounhsQV8+0PmzD1SjaS8qq1NpHtcmCTn/rCtUS89tUaGLr8BMNr0wS42Wp/J9xEjoeBtPYLX6JO+89h6DgSD0/YgNYB0boCmy7GD89k4EJ6QbUL0BXBzs7Jw5YDYXik51wYuvxsCTdLErqRFK02ae0ObLU/x92fzMFT60LwXHCaruB+6YgJW+NzkVMtR1zPYhvTsjBhSSDqvzEDhq4EtjW4RdffeMn1J1vtEaj/xiQ0mrMXbffrTI4cMmHK5Wwk5Rawc+C6jV1KikgyJNyIl0evhqHrdEuwu6gkidlqs+uPrPYY1KGbyI4j8dD49WjlH6Uri01ypMfJdISm5+N6R9ulwCZvyJYDF/FQjz9geJ0sNsP9EwwS2Gq4SWvTTSQN2ChWm1x/7T/HXX1/R/O159FOZ3LkxcMmbInLQc517vdzKbCT0rIwdlEg6r0xUwa7GNzizeQPyoBNcddfnfYjUP/1iYocSdKV1SbX4uRLWUjNu76FtsuATTIkLCIJHUetgeH1X5TAVnt6kdZWS5JXaMCmuOvP0GGkNBLZyj9SstpkufUS3j+ZjgskR65jtl0GbJIhHvsv4YEef8JAFluy2gS4DbjJS0LD7DRgw3JEcf3RgM1dfWfLciQoVRvqIAF2R6UdfQFpfK6Oh03YGJuL69louwzYKek5GDlvN+q9+asCNckRCrbgJrB/gEGw2u6S60+eP1K/60Q0mr0Xz+41oh0BopNAbsxxF69vOeISYLM3pN1nK2WY2WJLVlsNt+L+Y0lCQ+2S1eZZf+z6GwVDh1F4aNw6tPSN1A3UfHH+7wTJkYLrdjqrS4Cdm1+AjXvDcE+3uUUyxAJu0Woz2HwjSVabB2zY9UcjkaPh/vwXuLPXLDRfcw7tDqai3UHFanPMFpzzHDu6nPuzJ+bPwDEfo8q/EJyGDbG5163bzyXATsvMwfA521FXkiEkRdRBsNqvswtQGLiRrLblMLt7R3kksn6Xb9Do9714do9RBpsA0UkYfSETadfpEhunB5umqIZGJKH1sBUaQIuAC3Cb/dsEt+Lblqy26PobJ1ltkiMPjl2HltsidQM0X5hvHTEhxJR/XY4+Oj3YuXkFWLcnFHd1m6OAPUuO31RiC+utcgOah9unytNahfkjvAihzvMjccdHs9B89Xm0OyDLkbYHUkGBAOG0VswAqev4OI7t6Yv7sNantT6svQeVtz+YhtVROdelznZ6sE2ZuRjy+3bUfes3GAhmW0GCXISb9fY0ec622vXXcaw066/ea9+g4e+BaLM7URvk/TLoDJ/dcVmPUy4su9/HRvsvzqVLy8auN7Pt1GDTYt2wyCQ8PeQv20BL1pstuCBJzHqbbiRFq803kfL8EZoc9cCYtXjGOxxtCUYdha6H03DhOpQjTg027QmyZnco7nxvrgI2We0SLLdktQW4aQZgV55LwgM2xV1/t384E0+uOoe2+1J0BfZzB1KxMjL7upMjTg12elYe+s8MUGD+DXXf+t0cZMBl0Ou++RsomKEvBjcNuSvuP/KQWCz4la12vVcnoOFvgWizK0FXYNO/z7CzGUi/zrwjTg32xagUNBv4lxlmEWytdHGw2XKzC5C0Ng3YqF1/Y+He4Us8MJrkSATa7hPkiFaay6zFopShNtyOyrXyYnt1Wn0s9yHGfIzYVih79VAaTqddX94RpwWb5u+s3BmKW9+dU0qwFali1WpPlQdsxPkj0k3kKNze4xc8ueo82u5NKQKQQXThuN2+VCyOyLmuJkU5Ldg06enjn3zthpoteJFE0biZJP82+bUlOVI060+aP9LxK9R9dQIenxWINjsTXB7sZ1UX56DT6dfVVFanBTsswohG/RaXGmwC3CxJ2NfNk6UksJWV7YLrj8GWvCNfrsEzXuEgMFw9tN2bav4Orx404WTK9SNHnBJscvMt8z+DBu/MLhPYFnBrShK22vKuUTLYpLNH47YPfsGTK87j2T3JZihcHXDJeu9NwYKr2deNHHFKsDOz8/DB91thIOtbhmApS1SSpOsMxUNi6fpjq133lfF4fOZutN4ej2cDU3QT2gamYOAJE4w518dqSKcE+9y/ifhvr8VlgpovhOJws4dEWZhA+5HQtmiS609ZEynt9Tca93+xEs9sDdcN1HyBvnowDUeS866LQUinA7ugoADzvU+h3tuzBbDFtDUrXryNVUnCVlvrJrLDGNz2/gw0W3EebXYn6Qru9ntTMPdK1nWxoY7TgW3KzEG3771gILDLE96SQbcO93R5mN0864+t9jgYXpmAx37Zg1YB8Xh2T4puAsmRASfSkXgd7KjjdGCfuJyIx/oug+HtOQLYlFYHAp/bcCyWFYFthlt9I0mjkWarLcwf6TgG941Q5IiOwKaLtPPBVAQb9S9HnArsggJgzpbTaPC/PxSoRZhFaBlkruc6sZzAFuHWGLiheSQ0OUpYOsYeklu7TUezFefQZleSbiw2gf383hTM/icLuTpfwe5UYKdm5OLd77xR9x0G1gGxALfZv2223OKAjeWG8YZOJEd2606OtAtMQf/jJsTofL9hpwL76MV4NPxkuUp2zIXhbQoakL/D5epYbCtbbclbwjMDJbB/lVe4S1abXH9Fu0ax6+++z/7G01vC8ezuZN1Y7bZ7UvDawVTsTczT9aM9nAZsevLXLM9TuL3bPBliglYdCG4uk2BXgGbApZjKhGNZh7M/3ALumfI2aV1orja5/mjpWNF2aLe++zOa/X0OrXca0WZ3sm7CC4Ep+PVylq63QXMasGkX1be/9UI90tcMr6NiW3DTviTSTaRitZVdo2jpGMmR//68C63840qGepcG+FplfIFQHdeLaa4vb6zuk99rdzLa7k7GgOMmRGXpd4jdacA+eD5KkiF1i4HNoHNM1thWmurEesWCE9zF5nPTqKRitWnARpg/wptY3jv0Lzy9OVyGkGHhmODjNMdaZVTH5SKwfIwYczuxzFFppW+SVl33p2BnXK5u5YhTgJ2XX4hpaw/jjg/mqaw1A8qxIDEs4OV6ijmIbVmDF3lJLG4kzVa7+CKEBv/7CU8sP4vWO4zFIXYUcFXQT4c9KZgRloVsnY6wOwXYcSmZeHPSVtR/908BTAbUUbECt+IlsbyZJKtd3PVHVtvQ6Rv8Z9oOtPKLKx/YOxXrTjGnKwtojfdrtzsF/Y6mIZyefqrDl1OAHXg6Eo0G/IW6BPb/bIU/Sqi3dqxycbB3RbmRtBi4oc0tJa1dfP7IPYOXS3KkNUOpk7jr/lQExObqcj1klYOdm1+IH9ccwd09F5URWmswq8pZugg3kgS2DPes4q4/89bD49HgnZ/wxLKzaLXdCIK79Y5kOVanKa8VqD0HsV7sRyynNNdpHaduayvP/ajb7EhGh93J+Dk0A1k6NNpVDna0MQNvTPZCg27zKxZs+icQ4VYP3JBvW5ocpcz6E5aO1X1lIv7z43a09I0vDhyDxzFDyfnKisvwvm13JqP/UROupOvPO1LlYO84EYnGg1ag7rvzFLApLimQNeb2bJnFY7TqqUyUJEVD7uYbSekm8mdh1yh5/ghp7bsHLUULz3C03p6E1jv0EdrsSMLr+1LgE62/9ZBVCnZOXgG+XXUEd3+42AqoDK0IKgMtglxSWuhHw2qbbyTNrj/L+SMEdoO3p6Hp0jNo5Z8ow02A6yB02JWMH0NoewZ93UFWKdiRiel4/Vtv3PrBAhjIYnNgiy3mOW0tpmOs1VE592lFkshwk9bmm0hL1x95Rx6d4o+W2+J1ATRflG13JKHf4VRc1NluUVUGNq1r9DsWjiaDV6Hue/NtQ2kL2BLrqG+hf/a6kOU2e0mU+SQ03C5ZbXL98dIxfn7NeNzVfxFaeChyRAfWmuBmObIlSl9ypMrAzsrNwzcrDuGej5ZIULu/Ox8ciiyvXCbnGU45dn93HoqHoj64LzkWrDlrc1GSiKt16CaSrLY0Evm9xfNr6r/5I5osPo1W/ka0CkgqFtgKatVRWUn11o5zRLnV996ehA67kiQ5kqajh9ZUGdhX49LQdZIXGnyw0Ay0JYzWIC1fufmisSZJyGqbbyJ/tHh+DcmRhyf7ouW2hGJQOwK+quqD5cgFHe0WVSVgkwzZGnwFTQavhuG9BXB/b74QxDyl1XmxrZhWt+NjVeUsSyTLzaOawqikJEfI9ScsHetEm1iOl8KdfReghUeEDLa/YrU5ZiuuznN5Zcdan0OrLCAJrwemYFNEtm7WQ1YJ2Jk5+fh6eRDu+XipAq4IYSWkzXCrfNssSWijHSvzR+q9/gOaLFTkCEHissFo8dlf2JGMKecykKqT57BXCdiXo1PRhQZlui+qGrDpH8IW3MWsNj0rUrHaL0/AQxO9ZTniZ0QrnYQ2/kb0C07F+VR9rIesdLDpmTIeQYoM6bYQ7u9RICvNaWuxuo06z/2oyykvlil5Eexiepu2SWPXH+8aVfQQ1Dt6/4kWmyJ0AzVfnG/sScamcJIjrr8gstLBTs/Ow5hlwbin13IVcAy0CKG6zFYdt1XH6mMUsG1ZbRpuZ9cfPcdGesJv0SaW9bpOQeOFp3QH9gs7kjDlrAkpOljpW+lgh0WmoPMkbzTovhjuZLGrKvBNKVludgHyIgdlUYL02D2aPyI95oNdf+Ol5WMPjvdCy22JaOlnlIOvES3FwOUUc7lYpk5TG7FMnRfrKC32yW3VMbcTY3U/nPc1oo2fEX2DU3BaB7tFVSrY9Ae3fv8/aDJ0LQzvL4J7t6oMZNkV6y3KEtG/bXb90f4j7PqT54/c8fFcPOURWQQYg+bicdc9yVhzNdvln8NeqWDTozdGLzuEe3r9VcVQ0wXFkmWB5Y2k2WrPlbdYk2b9seuv6Caybpfv0GjeCd2B/fz2JEw+nQ6ji+8WValgX4hMQZfJ21C/+xInANsG3GarrWhtaf4I30Qq+4+8PAEPfLUZz/gkouU2o25Ca18j+gal4lSya8+KqjSwC+gJYIGX0XToOhg+WAz398WwSM6TNLEo12hD9eZ2qvZSOZWJ5ZxXx0o/dIzkkVHmlLDeluaSyAuAi88fkV1/t/WYjeYbInQDNV+gXXcnY/W/WcgrcF3vSKWBnZaZi1GLD+Le3n/bgFcEuZLSBLYkS0RJQrMBlVFJyUMyq2gRAm9i+dIE1O08GQ3nHtMd2O39kzDpdDoSXXilb6WBffaqEZ0n+aB+j6VOCLYW3MqoJHlI1K6/V8j1J99E3v/lJjztnaAruFttM6LPwRQcM+a57HrISgGbZMjfu0LRdNg6uL+/xMmC8s9gliSi5VbgpsW/b5DVpptI2n+EXX8TcGfP39FyU6SuwCZJ0nVXMlZcyXJZ70ilgE2bTY5YdAD39FnhZFDTRSaAXUySKMvJ2GprzB95buh89N0TL91E0o2kXsJzfkZMPGlCvIvKkUoB+/QVWYbU674U7h8s0Q5kydV1WmXURiwX0+rjS8rTsRy6KTeTyhC/eXGCNNwuuv6KFiHU7TQJU5buwKp/MtGaoPbWT2jlY0SfAyk4kuCa2zNUONh0Y71s50U0Hb4B7h8Q2GUJBH1ZjrP3GJXlNsOtLFAguGnmn3n+CA3YfI/73v4J+09eQWhqHrrsTNIV2HSRvrYjCSv+yUSuC3pHKhzs5PRcfLYoCHf3WVnBcNoLsZV2kuVmF6AyKmkekVS2XpO09kwYlPkjnUYshTE1A6a8Qnx5NE13YLfzleVIrAtuPFLhYJ+8YsRr3/qiXo/lzg02/SPYhPsP+QkJZLW7zkDdLtPw8+oDKCgoRH4BsOlatixHvBQ5QrGYJpmiLtOqZzmjVSeWiWl7+xaP4bT6WCHf0jsRvfanIMgF5UiFgs0ypMnwjXDvvqwIbEprBZYbXKfOc7kYUxsxX1Ja7JPTYizCrUgS89xt803kTDzUfQ4OhURJexbQMMbF1Hy8vjO5CF4Cx2VDgvmzd96ehGUuuJd2hYKdZCIZEoy7SIaUBJwz1EuAK3pba+CGRiMlOfIrXhu7DsmmbPNmHGm5hRhzzIRnthIUGsFaObUV68Q096NVplVnrZ26nPMcc18cc/nWBLT1ScQ3J9MR7WKbV1Yo2McuJaLzZF/UJRniDOCW9BnMYAtwi1ZbuYms99Zv+GX9YdDDoPj1/3v/YPO1bLQhK01gCHCY81zuQnFLrwT02peMoHjX8o5UGNi05/XCgFA0Hr4Rdbovc5lg9r5YkyTvzMUjHy/E4dBo0KJkfpHsIjny1s5kPL01QVfh1QAjll3KRLYLeUcqDGza83rYgoO4s/dKl4GaLkDpn8VsuXnwpmjuNm1z/NbELUgyZTHT5pjkyDfHUvH0lgTnCXSR2ft5rLRt45WAccdSEeFC+6BVCNhkyIIuxOLVydtg6LFcAJvSYl7LkpdUrz6mtO3F47WPLbLaItgy3PW7LcDvm08hl7SH6pWTD2y9loW2XonaMFkBx27w7AG0gt7j48Bk7I/LcZm5IxUCdl5+Aeb7haDRsA2oI4G9vCgmsKlMLOe0BL1Qx225XMyLfajrxf64nRiL7YulZfBluHlkssi//diAVTh2KUHz2S30Tx2Wmod3dyVpg20PmE7appOfEUsvZiLTRaZpVwjYMcmKDOmzqghiESxnT5MkYRegqLW7LUS3aQEwphV5Q1RGG8k5hZh0woRn7AV0c3zRRUBpdd7efuxpx32rY61juY1SR3JkwvE0hKe7xvYMDgebZMj+83F4ZbIfDD3/VsD+C3V6iIGsMuc5bS3mdhxzO86LsVhHaTEvtrOWVo6RrHhxuBt0X4q53ueQnWvdbGXnF8IrPBvtvBNkSAkQnYSP9iRhb4xrbF7pcLCz8wowzy8UjYZvEuC1BpITl1vALbv/Gg1ZiyMXE2DLOUDKm7wjH5AcIaA9BbApzYFh57y1WGwn9kftOS8ey+3FOk5bi7kva/VKeSffRCwOy0CGC2xe6XCwo5IyMXRhEO6QZEgpwZUsvHKMmDZb91L2V67j5BtL0UvS85ediE8p7g1Ry5Gk7AJ8T3Jkc0IRyCJ8LppuvSUB446m4V8X2EvboWCTV3cfyZBv/eFemWBW1HsJVvvWD5djvm8IMnNK1phZ+YXYFpGN57z0BXYLz3j03JOMPTE5Tr9blEPBzsrNx5/+oWhIMoRg0wo9VOXqvNYxVVVGFr+7PHnrieEbcPRSPOiZ7yW9SI6EpuSh5+5kEAwtPOLlmNIcqEwsV+e5HR8vtuUyjtV1XE6xtcDHiDGnxWNUZS/6JGBRaAZMTr5blEPBDk/MwNCFwbi9z2rU6blCBTbnOSbAKc15a2m+EMR6LuM+OFb3JR4jptXHq48T6nv8Bfcey9Hntz2IS8myGG20BbgxuxBTT6VLUkQCmADRQWi1OV6SI1ecfC9th4FN6xp3n41BJ5IhHzJEDAyDZ0/MbfhY7ktdznmKxTS3txaL7bXaiPXk1fkLt/daicUBocjILlmGMOwkR3zDs/GCV4IdQMehhQcFZ4Xf8vP12JWE3dEkR/jbOl/sMLAzs/Mwd1sIHhtGMkQLGFcskyF/auQWHLucaJcM4Z+Y5EhYSh567U6Sod2kwMExgUxpe0JJbaWLQulLqy2XabUT6/izqT8Tt1HKO3rFY2FIOtKceC9th4F9Nc6EIQsO4jaSIWSxdRLo36f/HwcQm2y/DGG4jdkFmH4qDc+owLALZjVcTpRv6RGHsYdScMmJ99J2CNgkQ3aejsJLk/3g/tHKckItHi+m1RdLSXW26rX6UreX83f2W4Nluy+Dtj8u7YvkiF9EFl70TrDPMjsRvCVdfB/sMGJnZDY0psyU9jRVSHuHgE3ac862EPx3mAfqfEhA6Ce0HOONY/8YSyVD+JeSvCPJeei7JwktNsbpKnTYKsuRVCf1jjgE7CuxJny6IBi39lmjK6jp3+fT+cGITs602xvCUHOcmFWAmadNaEnWWEdwt/SIl+VISun/yfjcVGRcbrDJrbv9VDRenBwA949WofZHqyS47Y3rKO3LHWv9S6j7pjbqMhv5u/uvx3JJhlifG1LSj0NyJCAiGy+RHNER2PRd3t9uxA5Jjjife6TcYJP2nON7Af8Z5iFBTUCXJZB8sediKEvfZT2mzdc+kjeEpuGW9UUX/oXkXPTfm6w7sF/YmoAFIRlIzin7+SnreS3puHKDfTk2HYMXHkKDvmvLBHRZoavo49w/Xo2hi4IRZcwoswzhk09yZNYZ/cmRpzfFYXRwqjTKKqyS469dpXG5wKbh5YBTMegweTtqf7RaCWSxtdK2yriOYtHic16stzfN/XB78XPZKpPr7hm4AX8HXgY9haG8L5Ij/hHZ6OSdgKc2xOoqvBdgxPYI53u0R7nApj2vf98WioeHeaL2x6t1FZ77xq/UgzLWLgBZjuRh0N5kPLU+1vWDcHG23xKPBSHpoBmNzvQqF9gXo9MwaMEh1O+7zsFQr1H647hyLxpD7zX4YtkxRBnL7g1R/8iJ2YWYfcaE1pviXB9s4eJ8emMcvjyYgrCUfM3lcurzUFn5MoNNN1S+J6Lw3EQ/KxCWBGVJ9eWBuXx93z/YA6v2/Yv07LJ7Q9Q/oOwdyUJnkiMCGHpIv+ObIHl+nGmEvcxgp2TkYJZ3CB4Y4oHaHxNI+gkvTN6OY/8klWlQRg0059k7MmRvEp5aF1s8MOxadVplZWmv1Y9WWSn7bucRh3nn0kEzGp3lVWaww6LSMGBeEOr2WYfavdYWgU1pe/LcjmO6MDjNx3NeXcflYswXllhWUlrjGEPvtRj193HQSiBHv8g7MvesCa03xqH5utiKCWtL2W9p22t87hbrY/HF/mRcSHaeR3uUCWza5UmWIf6o3UsB0h74tEDj4zi21YbrbLXlNhRTOw5iuY30g0M9sWo/yZCyeUPI7SUGujjIjlHIyiuE37UsvOadWHlQa4GrVaYBbGkuvjd9SI5kIYf+mpzgVSawk9NzMNP7Au4b7GFpZW0AY2GNHdCuVu/1qNV3oxA2oVZfDh6o1c8DtfoqgdL9PKVQs58navbbDHP8yWbUlMIW1Oy/BU3G7cL8wEgEXjJJYfclE3ZcTEPAxTT4XzRhW2gavC+kYcu5VGw+lwLPs6nYcCoJ608YsfaYEauPJmLl4UT8FRSLZQeisHRfOJbsvYrFe65gwc5LmLg1DB1X/YvmBBcDxjHDJdZRmZi3Jy32w8dzrH4vdVvOlxSL/ayNRdtNshyhfyVneJUJ7NCoNPSbFwwDyxAHgFq7lyJpivUllq9D7d7rccsAb9w0fA9uHLFfCjeMOABz+OIgbrAIQbjhiyDcMJJCsEY4hBtGFYV644/jqVmhaDP3ElrPvYSWcy6h5dxLeHruZbSYcwlP/X4JzX+/iGazwtBsViiemHkBTX45j8bTz6HRT2fRcNppPP7jKTSccgyPTw7C4+P3ouHXu9BwjD8ajvLGf0f54L9TD+HJVVFovjZGN6HFulh8vi8ZIUnOIUdKDTY91NL3ZDSenRAgWGuCj4Oisc15Li9NTH1otV+Pmv23SnDWGHsKbl+fhtvXZ+wL487ATTOchds4MZxBDSnP7cU6JS2952m40Wf46iTcxhyH2+hjcBt9FG5fHobbqEOoMeIAbhy+BzcP3o5bBm5DzU+2oFafjajTex3u/DIATZZcQfM1MfYFvgDsbV9F7bp6x8M/PBu0t0pVv0oNNj16Y9a2MNw7ZDNq9yYLWnmhVu8NuGnIDriNPa2CUQM+C1groJ7gps8x9iTcvjoBtzEM9hEZbPqX+Gyv9HlvGeQnXZAkleiCbTBkC/4z64x9UFcRpHZfdMLna70hDnPOmJCQ5YJgX5BkyCEY+m5QQb1ekgkkFSyDLB8sy8Q2JdVTW7kNWTyygpKVrmhwS+q/JKtNsufz/bhp2C7c/Kk/ag7wlnQ93RsYPtmI+789gGYrI0sF95OrZQtvLWYYrdVTuRi4PcXiMeo0H6PVXiyj9NDAJJx3AjlSKoudS4MyJ2PQimSIGWC22CKsWmkGuKT23I774Pw61BbVaz4AABNnSURBVO6zQYJEkgAlgVfR9Vpgm602yZFgm3LkjlEBaLToHzNQIlxiWg2ZtTp7yxlSsV8+VqtOLONjuL06fnJNDLp4xcP/WlaVy5FSgZ1E3hCfUNw9mGQIg1e5MXkzbhweKOvbioa3pP5LLUe8JM8NyZH6g7fg0ZmnLSyoGiJXzLdaF4vZp01IqOJHe9gNNvlmQyLT8PHcILj33ShZT7KgVRHIPXcTwf0V3UDSTV4FaGh7+tSy2uJNpEqOkDeHLkyWI/dNPoAn/o6U4V4Vgyc5sGTgPMVUppUXy8W0eIy1crE/sb06rW7H9dSvGFbFoPnqGAzalYTzxqp9tIfdYOfmF8LnRBRafO1XJTCrLyAJ7mG7UYO8ElUFtxbYpZUjCy5bAqsFEYOkVcfQclzeNlrHl1QmvvfqGHTaHC8NRNH8mKp62Q220ZSDX7xCcOcgT6cAm0Cv+Yknbhq2EzXIK1GVcEveEXL92fCODN0B2TtCcoQGtmQ58sgvpwSwo0tIU73YRmXFpTquV7flvBjz8VrHqNuJeTFdvI+n18Tgt5NpiK/CXeLtAruwsBDnI1LRc3YQ6lSR/FBbbM7TX/vNQ3egBvmSqwJuC6tNYKt82jbkiHu/Dbh30n40/SsCT64UYKG0i4eBO40IqUI5YhfYOXkF8DkRjWZj/VCrzwanCzX7eeDmIdtRY3RVwU3+7NNFgzVmOaL4tKXBmkDpM6oHa+4Y6Y9G8y+5PMjqC/Fljzj4X81CVckRu8BOTMvBDK9Q3D7I0+mg5gtNgntwAGrQ6F9lW256P2ty5MvDqMGDNUN3CnJkE2r1Xof6n27GIzNOotmKKDRbGY1mK6Ll2Fqa6jlQG7Edl6v7UOf5GC7n47icYy7XakdtuJ0YK+mnVkVj5ok0xFWRd6REsEmGhESmosfsYGlImAZJnDb09cDNg/1R48tKhttCjmgMsdM8FWGw5pYBPtJELPKOSHJk4n40XRZeBKwIlAun+2w3SnNHqmLCX4lgkwzZdiIGTcb4yTPpGGyaWUdpjsU0l1VkTH2L/ZvTHrj5Uz/c8OWRyrPcWmCb5YgyWPPFQcn/TpJJlCO1e68FyZGG8y7qDuwXNsTB92p2lciREsE2mnIxwysMDQZutgRJBJlhr+zYDLMa8k24ZZCvNGuv0mSJJEdOKROjBO/I6CPSxChtOeJhliMP/3wCT/wVhWZ/R+smNF8RjRnH0xBfBVNZbYJNgzLnI9Pw3m/BwlxnnvPs7LFH5cJtYbXt8Y4IcqTvetz7zT40WRJeeqhJqjjxxfCxfyIuJOXafCBVRfi6bYItyZCTMWg02t8FwaYLj+DeJk1zrXDLbQG2esafMpXVmhzptRa3f+GPx+dedGpIy3IBtV8XC78q8I7YBDshLRvTtoSg/gCSIWyheWWKDI5cTmVinttaK7NWz/1wPec55v4oz2Ucc514rNyONC0tPpDmb9szVF7WNpIc4XnabLVpjnYJcqTXOtQbtBkP/aQ/OfLkimj8dCQVCZUsR6yCLcmQiFS8M/NA0RIrXmrlanE/D9wy0EeGm9xyZQW3pOPUVtvqYM1uaZaihXek73rcQ3Jk8TXdWe2evonS3JHK9I5YBZseROp1PAqPjfKT1w9K6waVtYROl6b1jCV/tpoDvaWlZBU27VUNttYQ+wgr3hFJjvjhsTmh0k0k3UjqJbRbGwOfKxnIrMQHn1oFm2TI954hqNt/s13Q2AOWfW00IKV/CDvALbmNJ2oN9Eb9r4JgmHgGN4yvgFmB1uQIeUdoyZjGYA0NLtFgTb1Bnnho2nE0XRapG6ifWB6FZn9FYerhFCRU4twRTbALCgtxLjIVb/xy0Ly6m1d5u3p8+5Ct6L/0FAasv4b7p17ADSXJi9LWq622lhwZQStrSI4EwEKO9FmPeyfsQ+OFV0FA6MVi0/fo7pMgzR2prDXsmmDTg0i9jkfj0ZH+qNWPLLY9gSyt2E6dF+vUaa22YpmYVh9bunzzcTuw4VAELidm45uAWDzycyhudKTlNoOtzB2xkCOid2SPMnfEFzU/2SoNdtEWFbeP8MNjsy/IYBPcOgnPro7G1iuZlSZHNMFONOVgiucF1B2wVYG1PGDZcyy1sacdQ1yatnzMZtT5ZDO6zzmEU1dTpE1tolLzMHVnHB6fEYqbJjhQlliTI5J35BBq0BA7LfS1mDuiyJGBnnho6jE0XRqhG6glObI8Ct8Fp1Sad6QY2CRDaFCm6wySIUVQ6CF91zAfTPEMQWJatnlMIC4tDzP3JqDprIu4+ZtzjvGYmK22ensG2e0nr4fcjxtJjgxW5Mgnm6UJZu4kR8bvReMF/+KJZYLFFtNkxTnPsdqycznFYlo8Vn2Mtbx4vDpdUv/cfnkU3vVKkLwjlbH+oBjYWbkF2Ho8Bg+P9Fd2SOKdklw/fvqbndh4OAK0KFl8GTPz8UdQIlrMvoRbHGG5zWBrbc8gyhGeyqrIEVpy12stbvvcD//97YIMJIOjg7j1qmhsvpxZKXNHioEdn5aDSR6hcB+wVQPsLUXbgX1iK011YuCLQjyGyqy1EduJbbTS3A/HYpuisjoDtqLHH0dwJjxVZNqcTs3Kx9LDRmn3p1oTHWC5bckRC+/ILvNUVvaO1B3giQd/PIYmSyLQdGlksUAWWF2uVaZuY0/eUf1ovdcTyyIx6WAyKmMbNAuwyYF+PsqEV34OUkEnwuKa6Xs+88UPW8KQlJ5rhlmdMGUXYOWJZLSf/w9qTyon3GarbUWOjAxGjc+15QjtFnX3uL1oOO9KMYC1gHGlsrc94xCSmFvhz2G3AJtkiOfRaNw/IkC6U6e7dduBIC+pDddzW47F8pLKxHpOc0z9UJoD92sZt5wUiE1Ho0FbtNl6ZeQWYNOZFLy08B+4TzqPGuPLCLgZbC05wj5tcbDGV9ktSpEjn23Df349j6ZLInUVWv7/DMZNYRkVLkcswE5Iy8G4dedQZ4BXKYC1BMh+0CvvOPcBXvjwz2M4G5Fmi2lzXXZuAXzOp6LL0qswTCa4y+AxkcBWr6yh9ZBH4cZTWSXvyD4L7wjJEdr5qu4ADzz4w1E0WRSuK7CfWBKJ8ftkOUKLWCrqZQZbkiERqeg4dZ9tqPtvlSxLhQNM70P/Bhyr/xlK8Tnu+9wfP269CNp30N5XTn4hdlxKx9t/XUW9b8sDN0+KElfW2PaO0EJlSY58HYiGf/6jK7DpH+iNTbE4n5iD/MoAm2TIpiPRuOdzeQPFmv294PhAoHK/YprLOOY6jqncWlpdx30Uxa2/3YvNx2JAG9aX5pVbUIgDV9LRfeU1NPgupPSWW5QjtP+JxWCNWo7swC0DyyhHFruWXHnm/+fBbAzLqNBt0MwWO9GUi9Frz6M27VZkhq8IDlctMwzywUfzjku++dJAzW3pWZZHwjPRe30Ebvs+RNliuBTSxAw37ztiTY7swi2fklHxkubFSHKk/yZJjjReeA1NCV4GmNOcJx3OZZxWx9xW3c5ansvVMfdL5ZQW81wmHqPRhuTI2MCkCn2EngQ2e0Pa/7BfV1ATJPeNCJBkSEqG/TKEoeaYzs+pmCwM8ojEHVNKCbcF2BpyhLwjtIG9MFhT65PN0qZEZjnyxz9F4IrQuHD6tQ0xOJuQU2EraySwWYbc/Zk/avYni12aQFZdbO8lb5lrUaZVLxwn/UtwG+FfwvzvIdRZtOVyioX+zO/thTbfyTKELG95XnR0aFw2RmyNxl0/lFKWENzS9gy25Qjt/U1rNUl20UJlGqy5ddg2PPrLeTRZFKGr8NSyKKy5kAG6l6mIlwS2MT0Xo1afR+2BPjKUDA/FZQ0El61jzfApcHJbLue8GGvVcZk6HuANWYYcQ2i0ySHnju51/jHmYqxfDO6degFuX9spScxgsxxRNom38I7Ic0dohX3NASxHaC/tTXhwylE0nn9NV2DThTpip7HC5IgbGbKQ6HS0nbLfNogiYM6cJsCVz3f/yO2YuvUi0jLL9gQwrauB4A5PzcV3O+Lw4LRQ++aWlCRHpL20BTky0AdmOdJrHe7+KhCPz7msO7BfWRuDc4l5oPlJjn650UqZ9YdjcOfwANSkjVx0EmoN9EHb7w/A62SsQx9Eyj9ATGoeZgQm4D8zwkqG2wy27cGaG4YHKo/2YDlCj/ZYi1uH+uDRGefQZGE4miyM0E14akkUVp43Ic9y6g6f4nLFbkkZeRi+kmTINt1ATRdnvcF+6LXgJC7GZpTrBNk6OCE9D3ODjWj8axhqSA9usiFNSpAjbtJuUTRYQ4/2IDnirXhH1sPQbyMemHIEjeZdRZMFEVUX+KJy4GcYvj0RydmOJ9stJMqEVt+RDNGPtabv8uConZjmfRkmBz4PXQvyJJo8dcSI5rMu2l6NY7baVuaO2JQja3HXV3vw+OxLVQe1A2EWL86OK6NxOj5HesCr1vkta5nbqoPhuG0YPfzHBzXttdrUTh3EC4PrxDJ1mttwzPWcp5jLKFbnxTpVutbAbWj3/QH4nIqvMHcSn3CShymZ+Vh1PBlt5l62vRrHbLXJO3Jc40ljB2FNjjQY6i3LkfnhuoL7yUWRWH7G5PBJUW6Dlp4CgVAMVBcuIxnSe+FJXI6rOBnCYFNMcKdly5OnOsz/BzdZm1tiBpu9I7yXNg2xH4JtObIBD3x3BI3+rGI5UgGW+1PfBKQ4WI64NZ+4V1dQ0wX60Jc78ZPPZaRXsAwR4aZ0ek4BfELS8NqSf3HzBI1ZgSXJEWmw5gBuHMYPPi3yjtBN5F1jduOx3/UnRzqsjMaZ+LIPoKl/B8q71R/qL4FNuyXpIRDY5A3xPU0yxPFuJK2TKJZl5BRg+0UT3vr7GmpqLTUzW221HClaWXPDZ9rekQZDvPDo9HNorDM58sSiCCw7Y3KoznarOdBXF0DzRVlvqD8+XnASV+IzRd4qNZ2ZW4i9VzLQY9U11FEvWLCw2sI2aMpgjaUckR98Svul0OMHyTvy4PfH0XjeNV3pbLqZ/HyHETn5jvuZ3BiI4nFlAW/rfazVUbk6yP84LEMycx3vQirNac/KK0Tw1Qz0WRchzek2b6tmAbbG3BF+DruGHKHn/9w3+bAudfb7nnFIdaDOdqO5CXoJNQf5ou0PBxBwJl66oSsNiBXRNjuvEMciMzHYMxL1vz1fNARvVY4UTWXVlCN9N+K+yfq8gezmEefQG0gNsP0E0MW0oy4ArT7VZeq8+r216+sPC0CvhadwLbHqZIj6AqFJPmdisjByaxRunxIiw21htYvLEWnfkc/34UZpsIbliCfc+2/GAz+ckKQI6Ww9hcH+CQ6dn+1Wb1iAALIIkAiPmBbb2JO2dqw95dbaaL/vw2N2Y6bfv6DZis70ooe/XojPxjjfGGlmoBuNUn5tx8qa4ewd2SbNHak33A+PzDhvBrrRvHDoITRdGI6Fp0wOHXNwa/djkLT8nx6u6cqhzmB/dJpxCMGXk51ChqgvLJoPcSkxF9/uiJP2DJQ2ojdPZbUyWEO7RQ2hJ435Sptp3jU+CI/NvoxG88OloBeL/eqaGGnluvqclSfvtmRvBO4eKT811hbYNH/BVn1V1tX81A+Pfb0HvwX8i7Qsx83kK8+J1TqWVshfTcrF9D3x0p6BNcax1SY5IkxlpRtIi7kj/qg3cg8emh6Chn9eQ8N54Wg4T4wp7ZqhxaIILDqZhiwHekTo3LvFpuZgypaLuHukvHHLzZ/6S5uSE8hFabGMyynmNNXLeQZcPJbKKM+xZbqoD7me82LMafFzyOlbPvXHQ1/twUTPi4gwZjmltRYhpwUPESm5mH3QiMYzw3ADSRJaD0m7skpw80LfQ6ghPfh0D9xH7cP9087gsbn/agLcaN41uGJ4enEEfjiQhLiMfIf/btJ87OiUbCzYfQ1tvg+CYdgODaAZqPLEAQ7vt+7wHWj7YxDm7gxHRFK2QzWaCKOj0zQHPj49T9q/5O3lV3Dbt2fk58Gz1abNK0cdwo1fBqPehGN4YPoFGeo/r+FxIZD15ryY5jJnjZvOD0eXtdFYdDIV0ab8CvndlDWPhdJk/JNXU/HHzmvou/QcOs86jpd/OYaXZhyV4+lH8fIMIT/jqFRH9VKYfhQvCcHiWOqDj+VY7Jvfwxwfw8tKv3I/xyw+y2uzjqPf0rOYu/MqTlxLRWpmxUxWdzTQYn80Jkq+dtrOeOOpZIz2isRbSy6h4x9heOHPMHRadBlv/H0V3dZFocemGPTwiEVPj1gppjQHqWxTLLorZT094izalSXPfcvvGWd+r+J5ei+x3vK9e6g+y8eesfjCPwFLT6bhdGw20nIKKmx0WAKbTzj9TWbk5IOWikUn5yAyKQcRxmyrMdVZCyUdW3K93HfxdtmITsmRPiPt2lTetYz83asqpmF/8nfTDME4Uy6iUnIRmZIL2uI4Ok0OMaY8RFsJ6jrKi2WOyIvvLfZN5bby6veOS89HUlaBtEd2BS11NP+MFmCbS6UZa4WS7qHpFs4XKn8OiHhuKjLtfOfasb9/RZ47sW+rYIuNqtPVZ8DVzkA12K72i1V/XrvOQDXYdp2m6kaudgaqwXa1X6z689p1BqrBtus0VTdytTNQDbar/WLVn9euM1ANtl2nqbqRq52BarBd7Rer/rx2nYFqsO06TdWNXO0M/B8zD4bkNX67hgAAAABJRU5ErkJggg==;" vertex="1" parent="1">
          <mxGeometry x="900.8199999999999" y="600" width="79.18" height="77" as="geometry" />
        </mxCell>
        <mxCell id="Jmjwqn2J3mBhddmmst4y-27" value="" style="group" vertex="1" connectable="0" parent="1">
          <mxGeometry x="681" y="50" width="184" height="170" as="geometry" />
        </mxCell>
        <mxCell id="Jmjwqn2J3mBhddmmst4y-25" value="" style="rounded=0;whiteSpace=wrap;html=1;fillColor=#eeeeee;strokeColor=#36393d;" vertex="1" parent="Jmjwqn2J3mBhddmmst4y-27">
          <mxGeometry x="50" width="170" height="110" as="geometry" />
        </mxCell>
        <mxCell id="Jmjwqn2J3mBhddmmst4y-4" value="&lt;font color=&quot;#ff0000&quot; style=&quot;font-size: 21px;&quot;&gt;&lt;b style=&quot;background-color: rgb(230, 230, 230);&quot;&gt;Front End&lt;/b&gt;&lt;/font&gt;" style="rounded=0;whiteSpace=wrap;html=1;" vertex="1" parent="Jmjwqn2J3mBhddmmst4y-27">
          <mxGeometry x="75" y="34" width="120" height="60" as="geometry" />
        </mxCell>
        <mxCell id="Jmjwqn2J3mBhddmmst4y-2" value="" style="shape=image;verticalLabelPosition=bottom;labelBackgroundColor=default;verticalAlign=top;aspect=fixed;imageAspect=0;image=https://cdn2.iconfinder.com/data/icons/mixd/512/16_kubernetes-64.png;" vertex="1" parent="Jmjwqn2J3mBhddmmst4y-27">
          <mxGeometry x="120" y="90" width="64" height="64" as="geometry" />
        </mxCell>
        <mxCell id="Jmjwqn2J3mBhddmmst4y-6" value="" style="shape=image;verticalLabelPosition=bottom;labelBackgroundColor=default;verticalAlign=top;aspect=fixed;imageAspect=0;image=https://cdn4.iconfinder.com/data/icons/logos-and-brands/512/21_Angular_logo_logos-64.png;direction=south;" vertex="1" parent="Jmjwqn2J3mBhddmmst4y-27">
          <mxGeometry x="29" y="70" width="40" height="40" as="geometry" />
        </mxCell>
        <mxCell id="Jmjwqn2J3mBhddmmst4y-29" value="" style="shape=image;verticalLabelPosition=bottom;labelBackgroundColor=default;verticalAlign=top;aspect=fixed;imageAspect=0;image=data:image/png,iVBORw0KGgoAAAANSUhEUgAAAT0AAACFCAYAAAApdS8xAAAgAElEQVR4Aex9B4BcV3X2bFd1wQVjMNUQwAZjDBh+ICRAAiEkTgKkUIIh9EAClnZ3tkuyqo0sWbJkWXKRm1xkWbLkJsu9S9o2u9PL9l5mdmanv3nz/fnOfW93JdS8ko3tnbWfpr167j3fPf1YkPvLUSBHgRwFZhAFLDPoWXOPmqNAjgI5CiAHerlJkKNAjgIzigI50JtRw5172BwFchTIgV5uDuQokKPAjKJADvRm1HDnHjZHgRwFcqCXmwM5CuQoMKMokAO9GTXcuYfNUSBHgRzo5eZAjgI5CswoCsww0MvOqMHNPWyOAjkK/CkFZhDoZYF0CGkASaFDFshmAD2DbCYNZDVkABAWzU0HwG0SKnXZ70/JmPsmR4EcBd4qFJhZoJeJCuAR9HQ9A2TS0LM6slld3qezWWTBz1nZdJ37AdkJ1CMEam+Vsc3dZ44COQocgQIzBvSIWxEd6IxkEUrqyGZSAnaU/AhjupYg3AEi7xHpDLSjQCggyF9N2e8IlMx9laNAjgJvCQrMKNAL6sCd9SPY1jgC10AM8ZSGVBZIieSnAZmEUl+zmgK9CUVXSX5ZZAzge0uMbe4mcxTIUeAIFJhRoBdOaKh+rBffvqUNC/f04jF3GH3jGZHfkE0BWhxZXYOup+VVbH6U+Azwo/LL/3J/OQrkKPDWpcDMAb1sFpHIOKyPD+L85T68c6kH37m7D1ubomgPJoGM2giBmayubH5i0DNUXQPscpD31p3suTvPUYAUmFGgF4vFUfr4CM5a3g6L1YvTF/vw/zb3ou7ZCGwDGjLJmDg6xMZH6hDhxJth+nWVNzc3dXIUyFHgrUuBGQR6QCyewG8eDePM5V0osrai2GqDpdKH01f04ic7BvBqIIjhuIZ4Vjk3RKqj65bAZ0h6ytnx1h3w3J3nKDDTKTBjQE/PAr1x4KrHgnjPci8sC5qQZ3Ugv8aPfKsTZ1Y34atbh/BK2wi6x5KIMoSPs0Mctgr0CIJUfXN/rw8FJk0H6t3k59fnermzzkwKvH1Aj46ILANQJlVRSmeMwdN1HWlNQygG/M/DQZy1tAOWMjfyKlzIr/LAYnXAUmZDUY0LF6xoh/XJcdT36YjTtUvHRlYT7KPaK1F69O7q9PAynoXBfGlAFx+wXF0FP8/MCXXCT03pWdOEngQ30jXGV4mfDMnncXPNMSRvEba1BJLpDBLmSBsxlSd83dyOM54CbxvQI9QR8gg9ZCCREphxYQChns1iPJpG2SNDeM+KAArKnci3OpBX6Yalwg1LuR2WCgdOq7Lhgjo7fnB3Jx50RjAwnoauEfjS0KEhk9HkGnJ+E+yyOpI6kGCMM5mWAJz7OzYFSECuKXwROibVWOlxIDOOBAeU4jnDiLRxyZ5RNGdoUQqaHJieCCQ/9sVyv+YoMEmBtw3okYPIJ5SyCH7CTob0Z0oRkXgG5Xt68b6rHSgsbUZeWQssVhcsFR5YKlywVLqRV+pEQYUDZy9y4Ssb/Ljm2SG0DqeRIgOSOcmQfEsO5GdDCuR1BeoIsjplFGHRSUrn3h1KAYOGlMSz4jmPAdkEIikNtsE0DgwArqEUHP1RuHuG0dIfx/5+Ha7hNGJJ0pjSdiIHeodSNffpBCjwlgA9ZkQc60+0TNmB6iYZguEnKWT1DDKGakRA6ksCf9gzhPctdaC43IY8qxMWK9VbF/KslPQIfD5Yyr2wWN0oqnLh42vb8b+PjOAJfxTjqZScO5tOSs4uVVtRnTM60pksMhkaAqlm5yS9Y42XGqosNK4cWQ3ZbAbZrIZIUsPjvjh+tK0D/3FXF753Tx/+7Z4u/PDuAL5/Txe+d98A/rA3iCfakrLAcHEzUwaPe73cDjkKGBR4m4Aekc1QjwwmymSzoubSLBdPZTA6nsTDbcB37u7HOYtdKKQdr8ILS4UPFqsTBfTk8juCYJlLQloslQFYqvw4f4Uf/7qtG9tsY2gPxoFE2JDyqJploWc0SWtTubwZkThzM+x4FNChibRMVTWDZBZwB7OofnIU86odOK3GCUuNH3Nr7ZhX58S8mlbZPrrag6VP9edA73jkzf1+VAq8TUBPB9JUj7ITdr10FhhP6wgE09jrGccNL43gx/d148JVPhRXEtQMYLP6kF/hQkmFDZZyB/LKCIaUAF3Ip9RH1bfcgdMXufDXmwK4+plBtI0kME6BkkwrIS2ayuQwjOvi7DgqyXM/kAJZXVeLg56GnkkhqgNPtqdwxdZ2WMrd4lG3VLah0NosZgdLeSsspY2YX9WEH9zpxkgsiWw2Z9PLzabXToG3DOgdTcU11RsqlIyvY3JFVyiJxu5x7GgNofbJYXxzay/eu6oN51bXw1JmF9WV6qulnKqtF4WVbpRUtCoJj3Y9Ml2pDcWVLSiodMJS5gSZrqS6Beev6sLSZ4J4LKCjMwIkaVfP6EhlsiJ9iP2d9qbc3zEpoGl0CxH9lONnKK5j4yvD+PjyBhRZW1C0YL+AXWFZg5LA6WiiCaK8BZ9e68TetqTYVs3xP+bFcj/mKDCFAm8L0KNndigB+EZSeNwdxtVPDeEbt3bj3GW0z6lwlLmVNuSJhzaA/JoACqvpvOBGSc+J/DKqt35YKjpgKW1CQVkTCis9yK/0IM9qQ0F5C/Iq/bBUd2DWgv34mxu92Lh/HM4gEGPUijgbVWkqFTYzhcq5t39KAcNzy7GjHbShK4yf3NeOOVU2zK52oKTsIGaV1yN/YQMKS+uRX9aIvPJW2d691AnrvlGE4iwNpopB/OkFct/kKHBkCrxlQY+qZVrPIp7WEYxreLB1DGV7unH5Og9Oq3OqMBSGotA5Ic4KPyw1bbBUBGApcyCf3lsCYoVHgWFZKyx1vQKAFoJbVQCWckp4dG74RSKks6O4tBGWqj7kl7vwhetduO65YbiH0shqLFgwLkULKO0d+id68KFfzfRPelZCHGnX41Kxs3UYn93UCUtdHyyVXlhKHSgsawTtqkWVrUrKq/Air8qL0xZ78ZUtXQj0jUqO9HH8XDk/+kyfa4c9/+sKeqbPVSYl/8mqinQEBao2VElN9YQgJqFX/M7YRHriDRuSFI/hlshk0B3RsMcbx2/3DOCTazyYV+tBSbUbBVRPBejchhpL0DPfm6+mTc/8zfhMkBRb3+H7Tf1MdbcBluo2WKq6cWadHz+8owuPOcIIx1TATJrWqmwaWkZVbAFjz7JxeaqJkBrxMpslrFjUgMfQ+8uwGHqHVbC1WcOPr7q5DwkiQdE6spqKGyRNacc0z8FQEAW+xrkPG/g/10dzvGWwkZIQo5SWwfInBlFYE4ClmguOA/lWD4oqmnFWbSvmVLykFrHKDljKfSgo9eNDq9y49cAwkB4HKSvSdSYhNJhQmwmnekaCnmUOpjKg94Rk4j4Z0HPM0Jcpk86cfNN85fjSiSbjY4zXxKmM8CZGF9DNRu/zRFqj7JSWjEcVcsW7M8aUcyFDG6ZRBo370nlm3DafXl2ScY0qjEq+0BJyDXl2Ca/iHMsim2G1cDX39IwyM3CucCOJ0mo3xXhmMTWJSFDOQcWhxrzSU7LwyD1nWZpNzV0+F8/HZ1C2b87tySB/8r65sWCbXJ08keG3usRhMjSMQeg8t5yH92w+x0lM4Ncd9GRgzH/IqFKrjgTn4HAwGXjKwF9FdBksBqTSMZFJCzlSQqwMwqkk6nujuOHVUXz/vn5csrYL59Z5MV/sdFOB7PV9P5dOjwVNyvNb6ceZiz34+uYA1r8cREdYqWv06FL1MvlJBjwdQzZNAMyK51IxnprYKSYoGDQwJyA/c9A5DcyB52/mYmBOejK2YjK1sLAEPhmP+ymq8qg3x98E6PHOjElt743hv7a1o4ASHYPFq1pgKbVj1iIvvr65DecuqVeSntWIo1zoxtlL7Pj1gx2IpjICnEK9rMrwkKcVwFGQQjrKRCI3a6oyNqvpCAtzDhrMaNL1ZF4F8Iz4TS5A8ry8vlTsMQCJixoUiMn46BkQfLjQMepJ7l9PyXxQ987x5bFqjnDcyRtc5LivAJ7xiOackO+N7+RAzhHZDOCYco/IRIF00gAn3iv3MTKchF9T8hvvhXdO6ZxAJhXHuXCwMtFhc5TpmgxFknnJGyfYsjWDLP4JibFUlY14LQWQUQBBPht5xAQ3wQwTN9T5MpILzx2n9/e6gl46nVFjLaPEEeDAGgQ149nkodQqIIMin1X6GFejdCIOW18G9zZFULq7D9/Y7MfHrnXhnUscmFNjRx4dDQw9EWnu9QU7UwrMK/OioNSOArEDtsJS48Xsq/24ZI0HFbu78YI/hTgdypqyORGwCF4qRIOhNSnhQTO4WS0EHNCsTCaJLTQm9CRocVopaY8hHlpWTRQBNo2TiCCrAJIOHa6SPCKTJUPJOjy9GXKKj5oEvbRIFCEtg9v2B/GFdS4UWRtQTKdRZYtkyJyzqkvss5++wYvZ1XYUlTejYGEzCkodmFXTikvXutA4mEVcI+2U5EPGVJIFPUwic0u6m7kokF4EC7N4rDCxPCPPcfIbx47XUOBDYFVjyrE3gchcwJhVIqPKY8jX/KQGVECHz8Hf1ckIGDTp0HGmFlb1TEbx2wyBQklJXGw1zagTKYVx1XuemofKZgAYn5/zcAKcKWnxGMk/UiDLGxDbqwlePI+uQ6fEKLenAI13q2V1oS2vMXF/htbBawleCR6Q1gRWfquEGz6r4hE1DlmGoXFui+ZD0BdqGIv59Cfm6wp6QhQyp64CURmMahKcA8CNk9QceAHErCYD2x0F9ralcf1Lo/jxvT348o3tOH+5H8U1PnEuFFYwto4BxW4wtOGNBD1LeZfYBgutLcgvp92JEooLhRWtuHC5G9+9axi7nFH0EYs4yXRd4tCEwWjL4sTKZmRikjbch/OAE4v78jtz9VaroTnwU9VeMjknHUWDuBwXiuvwB3W0DqbRPZaaUPVkAk5/jpzSIxXoEQyiMoc9I0n890ODOG+5A0XWepRc1QpLhR151V58bmM3nvBG8eMH+vDOpV4BvcLSRhSU25FX5cS8RU5s2B/GSCQm6powDXlNwItgkBQJmTm+ZogMr6zGRM09ApCKrDRn5Am8HgscMyk1n4VqBiToOjQGsAsOZNS4UOrhLYrUpFCP96b+OM4sZKt4g0KgZK6Y80NUU6rCnDgESgbjM2QrJTxFUNfSCQUg/N4AMNLHpD/fMzZS9jV4UPhPAEaXRTOsQ9IrRcokoOqGhMariNSYFv6Vu9aNxloi1HBh5/zMyvl5DQWaCriN2T4hBHFRloVZoh50xNKGJiS8o3iCSQCippNAJMxJ/L2uoGeu6rxhWRnI4AbY8dUEO75SMuoa0/BiWwRbD46ifO8o/v7OAXx0bSdOW+JFcTWdDgxbYNoYg4r9Yt+hjSdfAoxNe9zrLe3xOsqxIbF89AiXMoZMAXBBtQ+zan34xs3tuPaFEBp74mAdPwEvYxVMc7nT0xLqwolr0omvnBycy/yTiUIJjqCp6RhLAf1xwBvK4GBvHE/6gniodQCbD4ax8oVxVDzSh9880IWKR3qkKrQp7b35JD0dWT0iE+ARZwR/fXM3iuscKKhoRsFVdnEw5dd58budvWgPprH+5VF8bG2nhK4UlDehoNIOCwtFVLrx/bs74B6ISciQSHkknAlKugF6lLozVM0IKwQU5vMy/Y38Q1PLmAAEpYxjbsYiTSY+0iZSihaRvGFKZDKO5FQCQiaDOCe6FgfSaUCLiEqZFvuasuPSyMNdBI6pGmco2RvSHecJ/8vSdKGDTaxi1NYNyVWuAYAJkIwmkPPLAyblmQhwnEcixdGmyPMQPDMJqShE8GVXQDO3nAt0kmhLaSsdxXAcGB5PSZD/QByI8sLZjAJyPmNGhRCp+ycQq+rjGot98BkyOuKJBAbjGrrDKbQHU+gMZdEXAYajWYTjaaSY6YSkzHURjnhakQOVBsNLKmng5DSX1xX0OAkEk4nMsgIYNg3R9yn9AdFkGr7hBB71xLDi2SD+bVsPPrnGj3csouTEIGF6YKm+usTrSs+rxM3J98o7m2cEEyv18/UGPZ6fgcx2FddX7kNeuR/5fKXXUTzGZGAnPnyNB/+7ux9PecMIRblKZhSocZWkOkK1U+iijMrEOpnkmaxkkYTjKbiHNRzsTWGvN4q7bRGsfTWCiqfGcOXOQfzd1g58YYMHF1zbiflLuzGrwo5iawsuWePDxldDKkeYjJKmtcSUIoSr/mz/mJIG9JjYsVY+PYIP/tEHS6URFF7mQmGZXaS4Hc1BhFNZvOgbw9dv64el2ifhQ/lVaoFhqNEnrrFjrz+BMeKGPBWf09gMGx8nYUKjys/ZmEQmFUf/aBK23jSa+uJw9Q6iqS+Bxr7kMbem/hS4HW2/pr4kvH0hvNSjIRDUJLJAJJ5MCsNRDa/0ZuAYiMPeG4WjNwhnbxT1/Un0h1XVbsppZGeR+Lj4UUKdAsSKm1T2Ch15B/vTaBrUcaBPR3NvTO7r1QHAP0owCylwz6alEAaLYRDgE/EoukbGwXtt7EvA3RvCwZ44mnuj8A7FMJLIKulOZ5ZRWoDuZd8IbmqI44ZXgtj0yhBuborjQJ+GhKbuV1aPTEwkT/I0QU40GF1HQsugO6zh+Y447moMYt2Lw1jx9CDq9g2h7qkgVjwflPjMnbYhNHdHMErpx1goBHANeyvpIjgrwCfwN+05/PqC3oTYTCaneEw7jg6qYZ1BDfb+JB6wx1D5aB++eqMXFyxzYW6NG0WVLiOMRAUSF0txAAIg1dg2idgvKrdhlrVJPHyWCqNwgHhe3wDQK29BfrVbQDivzI2iCoZVqPuyLGxGXo1LxQdWt+Hc5e347t19uL05Ck8QCNNkwhVWiyOS0BCMZzAU09EVycI1msWB3jSe9EWxszWEu+qH8fvHxvCj+2nL9OEz1znwoRUOnHu1G3PqvLBUMYWO9kWbqNv5fP5KLz66pkOkI3PREWlm2lPk1B44KdVq6Ahn8P17e3B6HYOOCWRq0ZhlbcEnV7tEGqDtbXB4HP+9ZxinL+P4tyCPjo4ypwD8WTU2XPNyFB3jhiQjKpIJ8ZSNOAnTSGkqW4ew1x7SsLU+jF89NIz/3BXEr3Z249c7Ok/J9ssHe/HDB0O4s3kc/REuaikkEgk83Z7ETx8K4qe7g/j57iB+tqsPv3hwAL96eBi7XDG5P7Iy74/ynsC2qLFK+hNAN3KUgxrwpCeI3z3Ug9/s7MVPdwzgV9sD+PWOdvzu4WHc3jgmKi+lrKyewlQnmXsogQ0vj+InO0fww50h/GZnN365qw+/3NGJVU/1oGkghZSmYXx8HA09cax9NYp/vqMbH1/txYdX2nHRymZ8fkMAa18cweB4WlRk0dP1mFKz03FoWhrhhA5fUMfjgRRWPB/Cv9zVhU+tceP9S+w4f7ETZy/x4MyrPeKQ+sCyJvzVejt+u7MPGw+m0NozjqFwApkUFwOadti5cNIpqBwo05+XryvoicVJpBtdqpSMpgF7EHjAlcLiJ4bwn3e14exlbZhd5UBRaSNoryksa0YemXghjdlOFNb4kVfVBAtXd1FpyOge5LMaykI78hfYkbeQObNvANjJNShd+lFY2yG2RUmPWtgMS2kL8ifS2zwoKm8y7qkNRdUeXL7eh6ufGcWL/UAgAnhGNDzfHsej3jjuaBrHiufH8ItdQ/j6Ld34yB8DOHORWzJF8mvaVZwgs0fKVehMXoVbiiUwZa6gjAZ+xrG1KUnY6sWFq9ux4aUhYR8ykTD+9OfIKT3SBD2u3NsdUVyy3oWS8mYlvTNY3GrH6XUt+MX2PozT50UYiCew5UAIF6/vgCxwlY2wLHSipMwmwPfdbf040MdYSUrTyq5FkFDqEHXAqBj/xUaWBV7tSeOnO7oxh/Gc1R0orlD2WNpoj7UVWFtw9M2G/HKbBLZzLv7P7gGpEsP7CY4nsHF/2Mj6ccBSyaB4agpOzF/sRu2+QYTihuNBHJ3KPiZaAIFOtDqqTfTuptGbAG58vgunVzWhkLSzelBY3oSSimacvcyPnz80hEgWCBPvDUmJlCQ9nmqL4Z9uJx1pHmhHCW3S5c2YVePAl9e1YGfrqFQPf9o7hh9s65Q86HwuroyQoJNpIbOUXPj97l50hxIiRdLGpjNOVbSWlFTBeSEQgfWRHly61o0S2rzL7SisdsJSRfMUeZVj7UdeRTvyKriYccFzoqDaju9sacWm/WNwh6gWUzeOGWmmhrovdcWmPy1PAegdzlJTPksMj4aYBnhHUtjePIIFO9vwxeudOLPGAUupG5SMRIWtJHNzMAKy4uebMXOlhneWTM/Cn2V0YLAWHr83ykJVB07QkWHG2x3+eizANPed3KdwISUTqtw+WHhtSn0VNmEIS6kT+ZVdkr5WUmWX7IL5tS58cKUb/3ibHxWP9qJq7wCu3BbAZzd24aN/9OP8xS04raIBxaUNyCslAHCSUFp0I29hswRS55e3ynMXWt3IJ/iVUt3ney/mCGh45Nj8Cg8+vqYDm18ekJWX9h8pzDn9OXJKj5QVm02aNMD6+BDesaweRaU2FHLSc1wXNuG8Fa24tT4tNiudHj4tjefbxvHtO7tRUMXMmAZ5/pIy5kq34C+udeFh5xgyCYY/TYZ6sMahGOGRFlOKcH0GaO6J4uc7AphVzbAjL+aU8tWcT8pkouYW59fRPvP7qb+p93OsDTKnf7u7Hy3DWXHKDccy2HRgHAVX7UcxbZIcr4pmWdRn1TpR90Q/4glKM4LyoqbTD6scMlweBPZUaFc2g+4kcO1TXZhbQaeODZaqNuRX2JFf1oT5Na34xX0+KdNl0oLqpphTskk87w/hitsMEKvwYu5CxkA6xSZ9+cYAdnhT2OcN4cd3ujF3MfOg21Gy8AAKSxskBlZ4tcyJ3+7swkA4PpF6SZshQ1+G08D9fuA/Hgji3UtakL/ggDgc86u9Yg7KX2hDYVmL8sSX1iNv4QHk8dzl5B9qeC5YFrhxyfourHw+BOcwI0CULZLhXhlNeXpPZlJOG/SUkZYDE1XxOjLBuC7Tk6hc01SvXu3TUPP0GL64uVtWoZIat9SrYw6llHOakNBMcDFfJ0GGxT7zy+1qY+FPU+KS1YLEdKPEytSlVhSVtqKgtBX5Za2yf4GV9jWHsg+WUVryqpzbcg/yyz0oKOPmQkGpC4WlLuSzuCjthiw+QCbkxObKzGsyQ4O2xCreo5GtYfWgwOpGsdWB+dUOnLfMi4+s7cLXt7Tj+/f3o/rJEWxtCuP5jgQ6Q2k84hzD3Fo35lbZZBLx/CqYevJ5J6VWXufw76fSR70XmyaBkKE0ZS5cvNqPja8GxfCtFKaTmSLTOJbeemFVTlZlrzRVNwpump6GJ5jBNzcFMLeGBQUovZPmNsyr9eErG+xo7k6IR5aqOY+NxhNYua8TZyxmzrQbhWX1yK+ghO8QNb/20Xb4h8aVYZ23LGAZnWBKnkPFuiXR2B/Dz3f1oLBaZXoUl7+MogpKPJT8uIDaULDwFRRYG5BXw/EmIDYooJKFxq32q6WE0oriBfUoquYztMBS24MLal/Bppf70RNJIZPVMJbQcNP+UViuakJRpWPivgusrTit1oG6fYMIJ0WmNQBObnZSUqeNS+yRyqs/HNfxx2cHMKuatR9bkcfrWun1duD0xW78Yke3OBnIkvwjr4ooks3guUAY/3gHow/4THbk8bgyBwqtNnxuQwDrXw3jdw8P4YyaFhQQjKp9kpJZXNGCvDIF1EVWGxY86MdgcFyccWkyOgUyLY1bm8bxmXV+zKt1giao/AX1krcukmWZU55fOf08yKvySSFfpn0yQ4ohYIUE8XIX8qp9uHCVC0ufGRYzh7RnpUeaErwRa8kFdDp/0wY9rkTKp27GizFWR4MuMVMEwzSax4CrHnDj4qtfxuk1Lciv4cRQgFFYQ/AxvLF/wthTGZ2T3ACqMr4n+KjfWR2FoMFXS0U3LNZ2YXwlDRLsDEmQElm5D4UijTEHl9KUDRYWEaVqaKabyXmZf2t4Zw1xXvppLFDqt6hiVS6ZbKdX2/DRlU58a0sHfrtrEKueH8PtTVHs8iThHNbQFgYGorp4puIp5Rl7whNWonzpqVPJBTQF9DhBFehteDWkJrrx73Qmx7SPMUBPF31SLOgCRlwMkdaQ0jO43xHDp1d7UFTdYuRAc6zsuGCpFwse7kEf9TOqS4Yth57sO+uH8LHr/AKSHMu8co4fj3Ph3+7w4NnAGManBPfSFiQSSJJqr2CIRFoc7E7hlzv6MI+2V6sfs602kTZE5RIzgt1gPs4NzjkCVSMKKptRUlqPwjIbCsoaBBjzF9ajsNyuVNcKO06rbMBvdvfj4FBWIhLIB8FYCpsOBJWdt7x1Cui1TIDeWOpw0FM3TDVdmFtAT8iBkRhBbxCzajgPCVwm6DlxxmLPBOgpx87hoBcxQE/Rm4JHQa0fRVe9jI+vbcN37xnA5zZ2iklGJNly2qqp2jrEkUSVmCmCv9rZhy7aUYk7WhKJtI4HHWH87S3tmL2IPORBIR1rFa3I5/0taMD8RW587oaANOH6nx1t+Nk9fvzt5gDeu9IAvwWcC9ReFN3nVTThGxvtuLsphFE6dqm1cFqk6X1WUQ/TmaPTBj0K3ckkMwzUfEpRhdBooM8irSXQM67jp9t78PFlBzGnvF5JS6xPR+CyumQFEcQ/JuApcKMXt7CCqUlK4mPhAG6m9Me4reLyZhRaOaEomVFF5irMTQGYSFQyOThBzEliV15DruS0NXArD0jcX1GVD3OqXTh7kR0XrnLj8zd24u/vHsF/7Izgmn3duOmlQTzQGsYzbXHx/AVGEmJ8HY/GkIrHgFRUOW8Y90RjrBFh/oR3HJaqdgNYFS3+VJqbCvrHf/9mBD0pri+xXGpySgISDevpDMY04De7h3DeYkobStJQNiYHLlvtwC5XWIV3cBGdEoT9jD+Mf76jA4USq0n1nnZTj7YVtykAACAASURBVDD+xdd5sGn/KHqZyCMLslJpRcKjSsQvDeDrC2Vwf/M4rnokiF/vGUfpI8OwPtyLhY8M4Q97BqWlQNkjg/j9wyP438fDuOrRYZTu8uMPe/pwxR3tOJdFaMsOoqT0oJL4uUiW2jCryo5/u7UVe7uBkFxYhW6MxFK4cX9IwJmSlSmh0j5oSnp/TtCjdFtUehBn19nw/mv8kttMG97sGpfUkvzMOi++fVsA372zHV/e3IVP/tGOmsd60B5WXlqkE7CPAF9a14ozltFMpRpviTZUHcDsqhZ8+QYXlryUwDOBONoGwxgYGEBH/yj2d8dxZ0sMv3ygE++re1Uk95LSBmXKKrXh7Kp6/Hh7L17sM8KJjEK9bzjoiVSZBWLppKHK6khLKk0GSCXQFxnHpoMJnFvXghJRDSjhEXy4UcWkasjI+xPLpKCaKcUBeIyAJA3BNHyqSikMFSmubJXJr37nb0piyyNTlNlRQMcIJT7eg/zG8AdWUGHVZKd0RiO4/sUqN76wsQP/dNcAfrFrGDX7RkRVZL+M5zriqO9NoCeoYSSalVglShKpbAYpI8ZJ7A9c/kgPg8/Ib+QBvj5O0GNcIVfOEwD8E9nnzQd6iiaMzaSgyeeWAGDGdaWzaBlM4NL17SiRuEtKEVQz3SiscuKKm+xoDyo1RuLAMoxbVOHD/tEEFj3Rp6rnVFKdpy3ODape8xd7xAtZ36dsejpj40y1DhmxD6poiAz0dBzDkTjcw0k4h1JoHxpHYDgJz0ACvsEEAoN8n4RzUINnNAsuaO19Q9jfmcQvd/fhncupRdjFBiXzudKHvFovLrrWi52OMQwwFFCiFVQ83HBMw40HxkRi4nFvJtCTcl1lHmmQRSl1jlQjasGcikZ8eb0D1z43iHsdCbzUEcGBwDAeckWxZf8I9nnGMBLPQstkMRCK4doXxjCPJoIKj0h24sgrd0m3wa/c1Ibt9gi6xtKq94mRH0yeYPbQSDKLpwIRfPcO5l37MFvKiZFXubC14uLrO7D+wDjGkoz3pbilUgnfMPV2AmE1ppvQna5J5WCFfhpGoxHc1xLEVzb3Ia+KqgjFY66EyhYjKqmUe6IXy1R3jyXN0EBMmxqlIoIZY7pY3JMqLw2fKiZOqcoEEkoPytFBZwelQDGc0t5X1YG5tZ04Z0kHPrSyHZetacM3bmrH9+/uwW8fGkblE2O4/ZVePNQyiucCMTT3JdEWTGEkmkYiTWlBSW3UNCS+mAzNWDDmSdKzxpxXHUilWUZe2aI4sNw4VGT+vd6IMKp4qN+uoCc5opTtFOqoQFPGaLIiDrB1fx9OX+JVpaKslNhpx3HiHUvc+P0OH5JJlSjPyc0gX5pNGIwbSWWw0x7C5Tey8IAd+VLtmt5revc9+PwGP7a3BEWlZbiGqMcS/pHCeFaXwF2ROJn/mU2ojBZxHsRVphBXKTHIsxq2YmhmUvA+NC2J7S0x/L/N7ShZxJhCl5gS8spsyK+24QPX+VH+6KgEjzPgWIKQOTeyAG1wmw+GxKRCg/2bCfTErk7HXHUbissbxRlyzmI7/vG2AG49OIKhUFgckQx7QTICRuH0x4CRmCZBxJGUjqe8Y/jaTX4BTEtps4xHodUuKvJlGzpEAo8mGHoSk7GhYEAJnsHz4mzSkwjFk7izNY5Lb2jHbAlB8xvtHNw442offr2zG/7hmDh7GMY0gUPT0G9fk3prXoivaiWjHcIoj06Gz6TwQnccV9zWg1m1HlhqVFUMKb8uVYmVg6GIrmmu1Cdo12KgLwGMgJlHp4JIiC4jE6IFBbQBUFqocCKvyiMdztjTlg29T6t1Svezi9Z24du3dOI/CHC7+rFk3xC2vDqCR51jaO6Noz+qy6rDQgFiq5QASaon/Ey44qgzhJ/R9DTQmwHXTCmjhdNcgRhwz0nPuCUVm8hEaw4y44v2ecfAkBOq4icixZ3IPm86SU+kO4NmFHpl00QqcI0Cv7zPjfwql0gEHLuCsmax41y0xo+NL/eD6hKpyXEQHJLuZ2QUHa0DCfzXzgHk09NtbRWvXz7LfVW6cfbiVix7sg8jKTUakp4l4xeHZmQPiNTJxdqo3ExQkoXKGGG5rOE4YHBuWkthXAea+mP41i1dmFtH2xa1FTsKFzaLN/ZdS5vx4/vbUN+XlaKyqoKJkjTJoAS9LQdGxLufR6O94YB5s6i3RaxOzQVYYiVd+MtNAbGjkY7QozL/x8WWprrQCSdIal0GXWENy58ZwrmLWsSGl7dQeWJ5rveu9KLyiSF0hlhAJKyATgZUxalSSGCuriwQWgyd48DVj3co7ZAVzRm6RtNVlRN/t8WLJ5xD4tFmYp2JRdPAPEwb9CQBJa0ixjlBqd76ginUPBPFnCqWXWJqFsNS6Dl1obiSXlFWz2gRACsgeJ1gdRR6gWg8PqR7mXhuCXA+lNQG8I6lfpy3IoD3X9uOj69pw+U3BPCtW9tx5fY+lD0RwrWvxPGCbwhNPSH4QkkMJLIYy1C8ZpoMY6H4FJPhDoo5lM2CgGWIABLsaXokyZQEMgkLEelmUqpTQCmjI+ykwmR17POEZIKxIOaJANqJ7PNmAz0RsijfShqUohxDSxmY/bBXx+fXKa9rHtPOSlvEiTC/qgX/dEc3nmqLQk+r/FUCk1BeS0qFDi48gzEN618J4ozK/eKEInBQumDuMyXGH93bhaYhNZoEPVnENBqeuUiRc9VtURibGFYRSEXEm1zkuGBlGDSsofX/khtqHmvDaVUtAnIEWAIXPY3zapz4q5u7sMsVkXtMp9SiSaZkG0tKMyNxDVteHUQRY03fZI6MfKsd8ysaxENLDWresm784ZFBtA9HVIiM5LConsSyIFAokHg8VTqtoS+Jf7ijW4VrWQMSrsOCuywO8dVNPuxwjEtwdEZTZcSElyg4MC+aKWrkDubepmKIJDPY5xpFIQUXq1NidvMXNkrIy0WrPVj7dIdoUOLTeKMcGSa6iqRHCU/LSGMcroadkTTWHRjHx9d0KkdAOSvdqhAQyU0to5eJKqpHAkuldFCNqbYeR70Vz6Qq205Jb1aND2cs9uLdy334i+vacdnGHvzgnl78bmc3rn2qBzubh2DvG5dQAU5l06pklmky5TK+koDmZ5EupLYPB1YSMw3OMKQ8w0ongGielXwkq5cBcJJipgaY5+Y5DZlH7mSveG8J+G9fmx4lJ1W2iQBgLhc6ukNprHpyBGcvZUl+2libkc+Fr7QJ713mQsXjo2iPUJUkxZKSvSOLhZHNw/dMp3rCF8FF13DRoI1XlZHPZxhRuROf29COu5ojSEgYBRckJaML4KWpYilJXZffyXGqMIFkFbDeneSJM18+LbmxvRENa18dw0dWtWJWRYNyXtA+XOVBSa0dn1jrxapXkohwdLVRptsIuFItZuobJb1QLImbX+lXrQdYjftNJukVLGwQkLIsbMKXbh3GQ34uENRSklIdSEBGNBuVhyt55MiAdRAf84zjvdcEkM9wlpouFDOdsNyOudYG/Pz+DtgGNeExnkNmAgvtGrUEo1wUONbG+PISbWPArDq/BF0XVRA8G2WcT1/ix2+2t8mCKOz25wA9anTM6BTZJh7Bbtsw/nJzLyxV7DlxEEW/Zz8KqrFe5BPsGArAwGO6vPmepZkmpJ1JLyYdC1Rjqf4S8ZnNwG1+nQfvXeHD5Te04d/u6oL1kT5senkYj7ojaOhLYWBcx1jSaLhtElgkDZZ3MlK5BZBI5KkbB3jKRnFbjHaKWwmaJLJpm+PrJEwSGA0hUF55jGnBUz8paUfWM9mRObTMArBUtxt2ymMB/on99qaT9IRGXDjIOIoODFNp7hrDj25RYC9hDBWtKKxkwQgHLl3XgS0NSSn4qVpDRgSnlIRM8JysudjaF8Xfbe2GhQGv9OQz5ozmkgoPzlvqgXVPJ4ZDEbEHcjQ4TwmjUswVKbCwF1UkMqIo0JzMhujH/VgYgBaKRCqLfa4QvryaRWM7lPYi85fFLlrxvpUtqHq0C/5ho3oI810554ywLXMtjMQTuHX/gIopZPXnI4HeRJwej+Kfmnkmg8uc5LeUHE9xyArt5axq846qg/j97m7Yh1T6nJhoxKQjeu7EfZFGnNFjySzuaAiiuNaHOeUHMHvhyyimR7uyHcXVLpQ/2oe+cQ2xlCbe7EwyIs7PsUwWgwkdwWQWsbSOWCKF8VgKsUQWnSMpnLG8E8VlDGq2iZNKBKXqdnzvrm5k05xTpPcbGLIycTHh/jQSiSQedafxzTuHYalVE7jwqoOw1DJmrg0FdW2SNUCbW1FpMwpFT+fEZ78JBoLSm6o8NexFe2ZVEy5c4cQXb+rGP98Xwk/2RPHAfh8OtI+iO5zFWAJCnGRSNeOh+hBlySop0aQIYd7jdF6NkT0FL4ZqxrlrhAnzda83bHidTU/0iQHbsdTcNxvoKRunSjwX3s1w4gPbnWmcVkl1lnGSDDehHTYgpouf3teF1iFla1PlslRgMZneBA9zcRqMAjc0pPCepfTeMmiYiymrsDhRWNmAr2/x42FnkiGBCti4Fk3osmpo1RolgyNfiCSSUeWLaLSPahqeDYTxndu7lcOsognFlfWwLLDJtWbXOvHzne1wDowDSQascXFl5WA6sybzRHn3oUQaN9GRwcVcnDaUUhl+ZZO840X7+jGWUKA+AW4ybUT3EMAmuyk4zArorXguhJJTFKfHhYM1DD+ywo7NL/djIMaFQVkDlMHHvLaKSFBU09EXTuGa54YlXZIOnULrAVVV3OpCidWOj/yxA1+9dRDfuDmAb2ztxNdu78W3tnbL9ne3deNbR9j+5pYuFFQxqsODWdZGzLE2Ypa1WdINv7HFBz0xJgugydtqNF/bv6/JpifjYCAsjbyMP2vsTeJXO/vx7mWU3hiEaJM+BgwL4YPTSFqw0IjFKqeuTu8ru485MKe6BZ9a7cLXt3TgygcGUfNUCJsPRvCoJ4qGnhjahqLoHQmjP6ZL2pKk05DiRkgIlz3+R3uiSYSTfX1t5DvW3lNBT63bh4CeqGYnD3gEwzcd6GUSE4wqDJLNSImomieDKKGnlQtfFTUAFhlwYW5FM/7l9g4pyrDXH8PeQAKPO4bwuD2Ip11BPOEaxV7XGPY5RvGUfQi7W4JY/MwoPrG6BbNq2MSJKhV7mhBEm/HR6/y47tlRCZRXFd+OPE4KCI3faJgXiV/l77b2JnDVw/14z3J6arlIu1G0sF76rORXO/GtW9uw2xWXskxU5QXmCKyHg152KugxmqDZyEQyQc+JRfsGMZYwcm8noI3znE4ypaJPgF42g2BMw6oXxk5ZcLIEX1e14hOrvbijYRTBlCpywMeRLGCl9MizTSxAWRYNSWDxvj5lmybvc2zLbVLYl5kiDFebU+vGnKoWzKuxYy636pbjbkU0VVTSu08bKIUDFYL2pZv7EWGtPZF4/wySno4kekMp1D7eiwuvY8ybAwVXsWsYQ0Z8KCrzqZCV0la8a4kPH10dwJdu7MS/3t2L3+3pw+pn+nHbgQE85xpAfUcI7sE4ukJpDEUziFCKY4vADO2GRllsetm4Eot3leoON6qXfFVr4JGn9p/r25kLejQnKIWeSxLHUcOT/nF8YyttPvTI0Z7HAgmc0IzZbME7r7bjE2vcuGSNF5+6oQuXrfXh0jVefHadD5es8+MT67tx8fXd+OR1AXxqjR8fuo5BsHYUVDSi8CpKGDSLsCiFA/MW+3Dltk5EKF6KVeoE5oCeFacFMmHE4glc/9wwLlzlRX6NC/mMGyvzoJB1Eys8uHRDAFteHsRAkBX61BUoKVJD5pw0/CUi5PJzMJ7GpgN0YDnFU63SLxXonbHIiUVPDUkMmsxiYy7Le9a9k/AOJWnJAqKnEYqlser54KkDPaahVTtw2bo23N8SkawWdS80Cyj7hHxmeJroLaRnFoHhGCof7lJmGvI9CxNI+ibzaFmAoUlCYJi2Nqu8CcV/eEUVWmA9xKNtFXZlN2UokJi/DLNYhRdf2dyBUDwFTVNVVw5ZtE5giM1dpiXp0QMznNZwe0MYn1vLyghcCb2ixhZK9Qb2jVWBw/Pr3PjZzlGs2x/FDkcML3XE4RyIYiQ0jmgsijiNvYwAMcR3UQ3EvkJAM0NGTOlO2XYmLGwSY8XvlMBtPtSb43Xmgh4ZRTIyjEWJgcDrXhzC+67xo4iVNlitpLQVRQsbjdCTZhRU2pDP0AmGHrH7XDlXembhUBXkdz5JrJeUxDI7CsUT2iRaQ+HCA2IfZo615EVXuvHF9V4c7GI1YdWQ6XhzgiDNBXU8msAeVwTfvIVmGZXhw2wfM5PivCUOLHk2DB9jxlLjEkNIyYPHizLKMBvDeWJKucF4Cpv2B5VKW9Yk8YkqKNiG0xa5sOipYbGPkQfEgTZhg1TBzUqf4TRXiffBaAqrnhs5daDHCItqOz63vh0POqIqfU7uhXyp7NZ8JvIdQU8BXxa+oSjKdtM2bSQJMI+coMcsG7ZxYHofO9oxX56ZUmVMfaNQZEjPR3kt5jHMnWdetcSyuqUq+Tc3e8HiDQx1MTW6443rkX6fFuix3AtLIv3zHZ04ndVS6IFj7JzkrLpRQq9sKYOCbfjgKg/usSfQGwViKd6wmhQGTcW7xUljgh6Jy9VNSXEm8HFGkuoEEpqe+R8fnA4IU/Y+0uP9Ob+byaBH3k2J95VM3NwZwn/d14lZNWzhyJabNikLVWCEMAkjSOYOnRIs9MAYTqN8FgGPapNZLVl+YzZEE0qsB2Gp6RZAYsI8pQxKU/QMf2iVE398KYxk4vigx5kVk+mVxbO+GH64vR/nrOB9tqCotAVFZL5KG06ra8ZP7+3CgW7akzk346oyCqegxCYqSDgq6BHEWdGFdj2q9mU2UCioe3IEIbaDEKYQ6DPeKwfCBOjREaclEIymseq50VMKeqxe87l1Aex0jKtyUQaDSgc+spmw0qGSnn8oKk4jSR5gZoz0izYAr8aPd6704tLrnbh4bQAXr+vFxRtGcen1flx6ve8Ymx+fXt+OS9a149PrA7hkrQ+fWuPB5Wsd+N0DbRhOKo/4Gw567DVb/sgY3rvMIak4haxYIjYqJfEVUsytYDiCDR9e3Y6nO1XjEWWjUITjqijV+0Vd5QQyvKbyyhnIzfhTS4vgG60nLC4j1VnNvabsah7y53+dwaDH8dASE1kOOxpH8IXrac9lUK9HMmSYJSO2GkkNpHef9hsbSqxNogrlG1VuKBUwnq+oko4EVuah/Y62UBYFoBRBWx5BkBVAGLBux6yyeilO+e17huEbSsi84Xw4mjrE7/VMEoHRNK7a3YsLVvmRz6iBihYFUkxjrHLgqze68bArCkpaE84Kc97KBTirjyTpUb2lpMdYVYIeS0vxOVowr86N6n0jGGU0jZxDgZ6SGsV6pRZ63qMRDjUSy0hhzlPmyChj4L8Nn73ej132CJJKrBOkE1vlkUAvq6NjNI66vX1Kiiu3YxYDxmVcHShc5McVd3dj0yv9uGU/EwGC2HQgji37g8fdNtZHsXH/GLYcCGLz/hG1vTKIh1pHVOon23i+0d7baErH9+6N4qxaiq8sBtAGlnCSMupScNCLwqpmIcAHruvHM13KzUzQM1cOxkdlmNkgifhmGXkl2ckDGWI08U4mmCRBGA2GZFVVqw+nyEnWFHyd8HHmgp6ZAkbsG04Ay54cxrsXq162rDdYWN6iGnmX2XHaIo9E859T04Rzam1416ImnL+oGWcv9eGcxU6cwQq7S11451Ib3rWkCecsduCMJQGccXUbzrnajXOktl6jMC1tyfmldswuPYDZ1Ta8f20PHrAnJHTlaKDHucb+FcloHGtf6MPHrnNIBgCdIxJLyAKYFTZ8YKUfW/ZHMBDLIJWOSlSKKBmiaFAiM8Kg/kS9ZaVww6bHTCQCHiU9Uf+Y1O9E+WMDGIqrIp9qVitjvQp/YmRCRpwsKrA3g4H/a4JR93TwFHpvncirNEDPQdAzpAx5NoV4CoqVs4WZMVk9jd5wCtc+H0QhK50vZPqZIW1LuX8vKvcOYiiSgJbWoCfjSCZSiKchJi2atY62sdZiJMVy9BoS7K2hQ9oBMMRFTAniZX+DHRkCeg9GcW5NI7gis6oJk/4LpR2jisljp7KS0gP40OpevNARVq3c2AxHZh+XXcYC0fhhOiSUAE1GEaAzYuPU2nkYLnEnU6Vgwr9YkA/b58/+ceaCHothcpzJHPX9On50Xz9mVzLRnmorJTxV3aao0oa/uqkdP90WwC/v68J/7RjClQ/04cfbu/CvDwziV/cF8KP7e/D9HQP4yY4u/Px+H352Xzt++sAgfvLAEH6+vRu/usOB9y5j2TKHzMEiVtuWQgTNOP1qD36/e0QFKh9B0jMBL55MYa8zhC/c4ERBrcoJZkFX8QbXePC+VQ789qE+aY5D5xrnLtswcrHlVJQQHVm8+eEwSW8iZGVMPNVKDaf3mmlfrWKr+sNultJSzb/V7DcAUGI+VTcwkQ/k7Fl0hTP4/e4+iYU7FaWlVPEPGz67PoDdrnEkTelVKtzQjDQphZI3TYkzmMhic2NSqhEVLKQdjm0LWLzDjpJqL/6wexDdoYxkpQg7ynkV7wrhDD7+k/fC3BSElDBEaVOEG8NpREz4M0h6Gfz79m6cU9WoAkOlgKIfloUeFDLnlQO6wCcT/ILrRvF8Z1S53808XUE2VZPKBDi+ygSSf02bnnJcMKlfVZE1VGCGbkskN3Gf4MKj32x/Mxf0aNKnNzMWi+De5iC+tIkB6ayVxkrHLNbJLIoWfHilDVvqx4UxoikgmGKeahaRRBzBtIZMMo7BBNCdBgY1IJxMYzyugX10WLhgNBJHa7+Of9zWi5IlqhpwvuRzM1C5FfNqmvCFNV6EmA92+J+oizqSaU2qhHx7SzNOX0KPcI/ca5F1P/Ir7Zhb14a/v6UNr7ANHRvTGykeLI+epEGd52UXr8S4mGs4iw+x6UGXzKDN9WHksU2oGPeZNscMI6bQNeE3O9rRPhoXhx5t2bRVS4K/gN5kmiOfIqVn4RyI4z/v8qCoikVEp1tPjw4FHkuzAh0LzfgcQc8dFdAz+Y2ODAp+yt5oODLEgZiScJ173JBm90w7kwBxtkxY0AjLVTZceWcbbF0xhLhOEDk1FrAX2DzKq7JeCokpTQotSU/yPUPk4kgm2d+XhQfeQEmPY0yb3g/v7cZ8NqeZqBSiUsqUbY8ZFpx4XnxolQ8vtsdkckyAmln3//CJ+Lb6PINBj17bTBK+UBb/s6sL77qaGRMq1zqPFTSYqmT14EdbbbD3jx9qnyWQiPSvlkFZH6cKB4aET1WP7TMpeK14shvvXUFvIeP+aEinSqrSFlko9H5XTFQrFf5EdY2pZ2mk9SxcwQwq945K9z1p6iQ2QyM+rNKFyzd149Fu4hpL0Yu+p1Zn3tghm5rdlImoeTAtjWmPmazK8b7LncX8xV6xEeYRFOigYSHdyib8w80ePOdhS8i0BDrT9cIHo7zHUkqUbJSNT0cslsT9zgg+sZptCV476D3rD+MfbleB3LwHM3yGHtbLb/DjIadqYals7EYxESMHCSkCP2MwFbBrWhYvtIXxxbWsl9mtQJxAzqK/VV58Zo0DG17oxSi1f4KWFpZMFyWicBym1Jo0YJBVV/isBFlmCnIB4WeeQgCTx+jHd04dC0pes/eWJzNBb94io+aVAN+RQY+xTjnQm5RiJzIy3sbByaL+6Boe8cbxzZv9mF/djHwpFkrVtlVCGkrqXFi0rwddY6qRjzCCgApBz5QGjj51zZWeUPNw6xA+t7HNCJ2iZ1TFAuaXt6C40o7fPcj+uePQ2YtVgIre/7R0K7vtlWGJD5Sy86VsekMbtR3zKurxmWsbserJHowQvdIjE7rIMe5KSYOMUyTDspBsOiI9Sh7zxfD+ZUqdZa06aRLPOVDagouvdWDtyyEExSZA7UaFn2qUHQl6ombSvRuDtyeGf32wB3MXdwqwv1ZJT0DvDnXsoaDnPCboKUlPVRSSxumGyuseTuG/H+hAcTX719hQyCZfXNhKm3HW1V58774hPOKNIanR5GGsWAbAmSqrqnTDGFyGqJmLnpH7m0hI1Ac1B9beE60uzfxdc5E5+mgc7Zcc6B2NMif9/cyV9KgaEbaYKvXBa7xSX62knAG+jMNj17hWfHClHfe6UgglDTqR3lRZmPB/AvPZBD1epzsYwX8+0I+zrmaYiVFmrMyGkgqWcbLjsvVteMoXQpQl++UaaanN95Arhi+trhc1kXatfHbbYxmzchs+eo0TFXsH0SypceRwFT6imE2Q02C8Q9+nmHJnSiZMrs+ERaKp7wzjrzYw08CN/BpW/mbHP0qjPukn8bXNTtzeNCz16qguK/MXmyJFxZHBdNj9fZAugu+s228Uwp2GpDe1R4bVUG/FCXls0BO8osyVZV1JjhGTBbMYjum4syGGi661KbCjhL2AWTeNKKqwgbX5rrirB4/20KmlI0NTgNnvWSx11H0J9AQ5tbFN7GAceNoXxvXPdOExx6g4MqKsv2dUMzoZ9syB3slQ75jHzlzQI2P0xbL4/vYBzKYJhK0aTdBjQ6hqL7612YEDQyowXdl5iCF0AhhpRsek7aQhWyI2M3Fc98IIPrqaUQQsLEswaZXwF6q7Z6/w44ZXIuhmBX9W+Miksb87jSsfHEKhAKNXWhtKpRaq4aU2fGy1F6VPjOF+ZwK77CFst0exyzF+AltEwLx5MIV4kqpYSppmtw3H8Ls9gyioYYiNykQplmK4bG3gwVlLbLhiqwv32aPoGGPBA9qx6MSIYziWxC53Ar/YE8In1nWiaOFBpb7TG3wCNr2JNUQaAx3aI8Os+MJwmmOptwQ9qts0PUjOAO8tm0IilUbrIPDfO/wQ+omjimFGKuOE5bfOW+7FFdv6cf1zvfAOJcUhJMVDZWlUyiy5hV7awVgW220hLH1m/ej5WAAAIABJREFUFP9yRwc+v7Ed170wjEiCTZZYwi4rMZUTz3SceXKkn3OgdySqnJLvZirokTvYzzcCVs0V47b0NFFNmNintbCuHTWPdEqDbjFwi1hD3UV5PpV7ShTeo46EKekZ1h885Qnia5u7UMIoAnqJGefHoOYKu3Tg+v59fWgYVnUfWSSA7SfPXxmApSqgWhQyaJhpZnTKldlwdl0LPrveh69vDuBrW9rwlc2dJ7R9c4sPf31TADcdCKIzoovnktJfMJrAnfYkPrSazhK/AHMxS85LvJ6q9n3uUg++srkNv949gJUvhLHm5RCueX4ICx7pETPBe5d7MbvWh6IqB85aQmA5MdAjJQUkjgB6eVKyXwV1Hwv0zON1poYKANLoxobcCQTTwMOuCD68OqCkZmnjQLs+79EOtkI9s6YZF6924sp7u1C1L4gbDkZxR3ME22xB3NkUxKaDYSx/LiRe6S/d1IkL/+jHmTUtOH9FANc8O4hkTEnMbELEaton85cDvZOh3jGPnbmgl0jGULW3F+ctVWEZ4lSQwGQHZlsbcPbyduxxsueBUmmVu1N55jmfufZLD9hj0HcS9JSnuGtoDL9+sA9nLQmgUKoA017GeDiXeBI/ssqGh7xJdI7pWP/iID52HW3Q9ID6JEe0hHZAVlBhj4dym5RIYgtESYeq9koTcBr9GRx99M0udelo22LFYDarFmcG+6ek43CMaPjZA904rZrXZEZGg0iaUnmF/Z2lhwxDb+px2pIAzlnqxhmLXMiXGnWtKC6zSZWaD1/nx1e3BCRE7EQkPYknJC2zGakc8w9mC8jXoN6KPS7DNghZVYGF52PNwUxSPPVDUaDs0T585I9s7Wj2waFDqFXiHQtp06WjaUETTq9z4QPXtuGi69vwyXV+XLTGiw9e48E5i+woZp6z5PDSRtiC85f78cfnhhBnsy0pAcZS/0fwxh9jrhz+Uw70DqfIKfs8M0GP6ql7OI5v3NaBOTWtYs+TeneSoujC6ZUN+NKNbdIek/1LqcIx0UBqtlPSm/BUEvqO/jcBelkNUR1IxqO46dUgPnl9pwIUse0xHlA52E637sfypwdxuy2KK+7sQhHjBhlCUtEikp5UYKbayTg/awuKrcycIKMyvVKp6ATDY20SzCy1I12o2jcMb1C1LFT2qriou3vso/jENV7MraFHmzGuVMObBdCYTUI1k8VVCZzFVzUopwzrBla1YU5lKy69thmVj42g7PEelFS/9haQR/feHlu9FSutIWFREhfJj2iqfMxi5zvQm0DZQwFcusaNuTUqb5qATjsrVV+2qmQ+M+kkCwilTIIhP5c1q8KhLCzL8CYGh1c4ccGqAFa8MC4tANQ1VRn+o8+M4/+SA73j02iae8xM0GNe9t0tEXzgOvY6aMWs8gaV2SD9iZ04f4kd1kd6JZ1Ild1XeCc2bQLgBOhRDDz63yToGXX79LR0qvvuPX1yPTYLEmmKEiarHJc241s3+/DP27pEDStk24LSeqnKotoaMI6Q6W1OKdWVz7ajEhLClgdMg2MjIibBH2uzI6+aHf8cWPxEL/yj7BaoDPXyZHoCY/EEbjgYl4II8xap5lY8fzGrkFibwYok0si82oWi3zNdjRWJ3Zhf68MlazxY8swgvKPAdc96Mavm+Oot6TRV0nvGP2aErFClJeBwO756K3ZXOoEE8NQrx4qbSOV6Soq19oYT2PB0AH+1wYWzlrhlDhSWNUoQtoUFJlhwgcHjDGSWECPGCKoURFZfLihrEil7brUd513tlIZDtzUnEGSEC/veMnvm6NPihH7Jgd4JkWk6O81M0GOZ9oq9A3jHinacVmvH6VVNmF1pw6xqO06rc+ET13fgwdaQdKlXKYgq3ldx01TQo2J49D8T9ERKpE2QlXyZE75vGHNr7XhHdSPOrHFiVqUH86udyKvx4GPrOnH5pj68f6UXZ1Q34KzaFpRU+zFrkRfzr27DLEpd1S4UsvBtTQBzqp04u7YZp1fZpHp3Sa1HGl6x6dXRNvaKLSmrx7K9HWgPqQwkyqz06GoCgHHE0lFsbRjDVzZ24KzFbSipY0FdFSwsdfukPYIHp1Wzo5gdhZUt+MsNXmx5ZRhtIR0sHrPhpV6cudiNebUOkahn19gxq9aFdy334re7eiT0gwI06SQea77XNTwXGMN37+5EcY0TJdWtmF1tx6xqp6TDfWVTAHvc46pNoxE+NKFI6jqSUjaLBj0FegQfhpsI8hGKMnEpNDEYTeMhbwL/em8f3nE1y+p7pKaeCmBm0Qmv5DKzqk5+GXtg2FBY7US+SLQ+zFrSg/evcODn9wWwzz2GECPXNdY5pGrLLoxHnxcn8ksO9E6EStPaZ2aCHr1ru1wxYepb6oO4tWEMt9YHJen8rvoh7A2k4GKCzklO3IkhkUKbLEMBRDJA60ASu1uHcVf9ILY2juHm+jBuPTiK2xpCuKs5jG0t49JD4/bGELY2BLG1IST7bW0I47b6MdzWwC0sG4HJ3NT35u9Hea0fw9ZXerHLxgZUMYzEWQmad0o1nvFnAkNII46EnkXnGLDHEUX5wx342uZWXLi6FedfE8C7V/bgPav7cNn6DvzX9m7c1hCBYxTSu5e9NyKxJNoHxrCtcRS31wdxW30Itxwcxe0Hh7CrZRgHuyIYSZjFNlVhfCZyxZFFZySB5/yDuKe+A7ft78YdTcPYdqAX2+u78YxnWIA6xnA53jVj5lgQRKHaBMmP9kaGVFy7ymPNwgiv9mrYeDCKnzzQhy9tYF1NL96/0o0LVrjwvlUefORaNz59nQN/s8mJK+9rQ82TQ2jsDEmBUjZA53wSSZLBzSpk2aDj0e7i+N/nQO/4NJrmHjMT9DjxY0kN4bgqdsmKwLLF2QchjhTTiCTmbZpkPewwiRnTJr2+US2L0biGoVhGyhANxLIIRpNyP5GEJh232HWL73mP3OR7/nacLcwUOOOYI72OxTX0JIDBlAJgqfRNOCbgZVTTIdInTcmUqMLUunHAM5jG8+1R8XjvsY9jT/M4HvPG8VxbFO6hJIKsISc5vypwm6ZQZtYFExmMJiH2ruEUBOhY3CBBGmsqXYveTkmTk9g41fsjkgQGokBvHOhPA31JoC+hzvN/tQzE0qBAj44LNY8PI/sRP1I2pxQm98qsFz0jec/90Sxa+pN4LjCOPZ4oHnSO4wFHDDtcCTzkSWCvL4qX2iNwDSbAfccSyuut4HYq6HHRUI2+j3gDJ/hlDvROkFCvfbeZCXqkE1dmKkCcogxvUFOVPzA9LYVsitKHyAWvnayHHSHnVxqXOqcACvO6k9LQG3pCJcirVIwpRxu5m/L9lK+P9Za3fJzNfFaxo03UhVQOGx5KMIkzH0SCpBmMnZWqJpEMm+ekEEmmEB2PIZ2IIZOMIasxC0KBppZm1eC0kbFC4vI3SkATV1U0ljxVZnCwXhWjebmR9mIYUzdBUyNva0J+EjiRvF+JxTNSRWUMj0WTqb/JCXkdenWnFBJhbF86CS0ZRziZkVzooDQGAkIpIJwGYuksaA/mHxcLAp48FVVqyaSZlDjVXlMv/Nre50DvtdHrNew9c0FP5yRXCUPCb+YkJsMzmV560b4GSh5rVzLA1E3yzKQfMQNpFSjQrvWG/WVo2zKzDgxkmQLwfH5mtEpCv9j4hCrC5IQvfpJ/DHVYMMtw7jA+jZKX5A4b/TP49Dyn2pRNlGDBc5nnU3RXtFfHMvdY5R9nuQgRpAiU5jbFZMBjlcR6PApy5WHaHG1vPNfkvfAZGN+nWj0YqWiHjQlHiAsF9518T8BTtOLZzHEWGh3vdo7xew70jkGck/tp5oIeGUmkOmFINZkZyqLAh1P2ZKftlJEh8xiYxhcyPGUCJo3R0E7GN4FQiTYUb460EaBOwUbAI2iQWQ1Anrxbcj/BmNLQFMlLnkGBl+J4dQQBQABjQurho/B51cJhUlLwQ8BQqX4m6JEGfH5TauIdMfQkIw4JDbr0+U1JA+3JZ6eEZkhpsnSpe5h8hmO8E7pOenbNsaCgKQsfH988XJ6D9DYlQj6/cS3BRX6eCngKRE1gNE8zndcc6E2Haid0zMwFPRV4x+efXJ0JAFIZxQh7OCESnshOokKaIDbJcGQuMh23CfQxUYjcJfqnAZj8XtjRhJGTeJWSSOps5vV5KUN+EWA1AUDASv7h/ZP5DWmLkpJ50wLERh9aSmUiKSrbGe9STs1/xYFg7MfjDSnSdJ7IHUx5XHWcWg/kPqdIWRP3qkTOiavwHEf74/lY+0Q8uuYRprrLVwNACcS8nnpsekx4r3x20kCNn/FQxln43ZRxNYbuaPdxIt/nQO9EqDStfWYu6HGKc2KLKWkK+FDi4Hf87ZT+kWHI5MI8BA5KmoZNL0Of5RRIM5iGQHQS0HbUY83nmwokBHuDy4W55TdDAjOlMBPAFO0MeyiJJMdOBQcl8RAWRRU00UuAj8BhSquGBMVFgbY8ERuNwTj0YkoyNqQx3ps6pSF5Tqjgxx8xPgtPLfdMMMvQpmiqu/LLIZInAVyBM+9ZLVwiycqCpK5njh1flZQ78cDHv6Gj7JEDvaMQ5uS/nrmgJxOYUt4EEJmsTZYiM/LzqfsTe5Ewp6kumfYp2tbYgNvkcmEdg62nvDelraNCGY8/zjkEKhQgmWdWTzjJpHxH7BHU5+kEp7OC1eZ3vBX+RFCj1ERvqAkmU8+kmmepKxinUovMFJVYfpUx4IUIMH/66AqMTWnKfDXvnAUPWNOP43YCf+I84oJjAK5ccFJuVGfhkxnjI09mzAc5Rr2nR54Ax40LhoozNJ5eFgE+yPT/XkfQY7s3r/QOzdXTm1w9Z0I9PU2fZH55clnFyXjKmK1iv6Y/aQ890qjDZmZzZCHdvAgY3E6k3KTwkcFkJrMd6fXQ6x75kzgaRIJhyAZte2RytQCS6UW9o1HfcPRMGABMGsmCwONiEuxLwDZBTex7JtObHlraT8VxpDDNxDW5uyyrBrIMvcqX5bXVxgBfBk5PBSACkQFWRtViwoy5HflpD/vWcK7wHiZA25BoJwFb2ekIpKQHN4I69+erLIfGQ/AYvj38mVSD4cOu/Ro+Thv0fnRfD+bWshouE7CZR+hFXqXHqBqhqlwwofvCa45URHRqK7nXcLdvqV3fnpKerNaGGkkGp32KAKEi5lUGAn23nLxkUjFiy2SmCT2JbJpxelzJeSZOZ0ZTsPGNAgJ+R8jMSNiDMoATvORPPIOqci+ZV80i88fJV2HUKSA2+cub5N0UlY9UIMPzeVgrjpKVhNkYYT8CCFxEJmyXhmRktF4gjZXnVvWDZVMmBTAZ6IzRy6ZFWmQMHTdeS343wmCUpPcmocsbdBvTBr0r7+/B/Dq29WP7OJaGZxVllo9nocQ2aRbEihU50FMjqSZiFm91SU+BnjKYkxEJasQ8kWqyGcS5g9jTqGoqDiO0EQjJjvyP/xMsMyLdkInNmDp6EimdKAYlk4rHMZOAnmQ5daZyKCO92O2PwySmtHac3d7wn4VuQhPShxKw8vgS/PnsItmIXZKqIkNKUkilNSQ1xvRR5eWiwr1YCVo1YZJFxpCc+AuHQQBT0+RVhsIIp6HKKADLJyfIzrC/aYJeFj/ePoC5texaziqw7OHJpt+tYDd4dkLLL22W0j1TQY+DITOernL17m1M7renpCdjKCpVWhygIunJsFJaA7rGNNzbNIq7G0dwd8OQvN7JdK96pn2FcUdTRKV/NY1Lati9LWEpJ/5ydxKuoSR6QywPTlWLWQjsS8EtLoxOaUgQltkGDNpVE+qYc0ik0GPu8cb/yOdgc3GBG4Jbmt0CY7IIpCjRISNSWVzLYDgcha0ngvtbx7H42TB+tmsY/76tE9/b6sR3b3Pje3d34wfbB/G/ewZwwwt9eM4ziN7RCOLpjEiPlPS0DAOaGZenHAsEPd6DkI+AO8P+pgV6jJ7+wfYhFNf4YGFyNEvvcLO6UFThQEGlG3lSQdWU9KLCIGqOcqXPgZ4qIcSqHie/5bE6iCSp+1BQ5sLFq/3Y8GpIqTHGv6dqXovEKnF4qsSPpB2Jt01HlCXNOyL44sZeXLougEuud+HT69z4zDo/LlvThsuu78BnNnTgkuvduHydC5+93o3P39iBv761D/949wCu3N4L68PduOmVQTzqjqJnTJOCkex7TCY11TPlnaW17q0npZB+7PUgObmGh1PPpCfMAGnJwEhiSAeeCMSx7KkB/OCebnxxYzs+tMqDsxY5MKuaNfccyC9jCaxWzKtqxXlXu3DRGj/+7tY2LNzdie3NIwiM6UhpTH/TVEC4BDEr54B4TiVr4q1Hw5Ody9MCPTYG+vG93ZhXywKHbhSyOgLV23JVu0zUW+lcnwM9Uf0mpNq3vnqrQI+SmOpFylaFGXJwVkcoCTzuHMXcGrZ8JJiz81kr8itcyC/zIK+UPShYUdeGotJ6FJU1okgqm7jB6iSsyvLupQ586no//ub2AVy1axDbmhNwDrD0uorOT1I1E8WONsITcVOcLIuc+uOlVLqotMxg0OR5COjJDBeODFz9Yax4MYTv3tmOv7jGJdVpiiqdyC+zIY8aFAuQVrhRUN6KYmsLWJJdSkRVeFBQ7cO7lrnxtU1e/GFPH/Z6wtJwnZkNlPBM9VnMERnVlOnUP+Gb+4zTBr2f3NOGM+ucKGLJazYWKWOlWhZhZH0sv9qsbsOm96eSnhhg39y0Ocm7e3uqtwr0aIdTsWS06ZmBsOxbu7t1FKdVsVS7augt/V0JeuVu5HN+lLFQpmrew9p0LDJJpmUdtbzSRikmyaKThVUuWVQvW+dH1WO9eNE3jPB4WFQ1AQgqgWxSc4ol2ZMc9BM6nHNf7JO0VRpODDogwvEEXu1NoeyRHrx7hQuzqlhiXwEcQY5mpHxWO2aJeavSqIqq3PKdlLpnEVSWare6hKZn1Njwnbv7cF9LBKPjtBsqDUs0LqrV0EV6PqGbfhvtNE3Qy+I/7+/H6UuMJicL2fKNlU7dKK5kEUY3CqQgYw703m6Snsx9I8WKxnLFQCrcIZQGdjvGcGZlAwoIbKxaXO6QlorvXOLGB1d48L6lrXjfCjfevTKA96xqw7uWeXHuEifIoHMqm1BSYZOinSysWbiYx7fg3OVO/GCbD3scI5Ksrmu6ymcXJ4rA8FuKJalaaqmESMgEQEphqXQazb1R/G5nB9gro4BtFKWKMs1GXhRWuqQ37wdWeXHR2jZcvK4dF9/QjY+tacMHV3pEvZ1Xy164LomoYNc5tmIsWdKDv72hRSTwSJyOD7qGuCCzzY+q8zddCpqOIvP1rTII0wI9FoqsemIEn9rYjwtWteOsJR7MXeTHnDq/gJ6S+FTDb+XIOLqkZxLsWK9vFWIeep9vU0lPUJwsoyxqwjDiaUyDoLfHFcX8WlYh9sFS0SltDt+z1Inv3NuHqmfGUPdEP5Y+OYqaJ0dR/XQIC/cG8fOHhvHt27twyVofzlvmRSGb81QGYPn9c7BUuWGp6kBBpR1XbPXjUW8M4ykdWiIu8bbmvDmU9od+Mvc52ddDz3rkTydyDV1LCeBQzWXlFAKeezSDxU8O4R3W/9/ed8BZWZ3pT2PoqIjRWBMTY81Gs6smbozRmBiNRpNoikmMm/+uu8mmuMr0Ru8d6aBSBMSCBRQFBAGp0+f2uW363Gl35vb+/Pd5z3eH0VAULJG9w+9y23e/cr5znvOe933e592PtLEmDMqvQibVn3OqMLKoDtfOtuIXG1oweVcHXqnrwmFnDyrsLuwwdWFVeS+e2NopBYm+OL5W6nSwylkm3U65dmT+7QAe2diInQ6WvqQrgulsMVF6oczVhznnD17tsX7zwW2O9f5Yv/vgZ8f63cf52SmBHk+yq6sLm3UeLD7Uh6JtLjy8oRnfWWTF5RNrMKKoFiPLLMgqMuOqWfXYY/eJbIyiN3BqU05wDpwPXvCx3n+cF/zp7etMBr2jlAgBPY0/1xtOgh79TpRZN2PYk+X4wVM1WFfXC5bLjkiGAO8CKS1hIeCSk9fUG8EWkw9521y4ab4JI/IrMZQ1Yrkc1ko6ji4+gkfWW7C/PYqwLGxD/eoi7DcaA+3vbvH7+xQH+Ycb6O//3fsX0u8/2tF3R3+jco2Tx5JYT5I7GA1KYEaqesXD6PBF8dRBN66cSUK/CekC+iZZPY0aZ8bdzzZjebkXDjfLL3KZGlSgySsW+Sg/vKEI3raH8KfXOvHVmQS7Ovn9sJxypBc7MWq8HX99sw+6TmZmKJVjdQ/Yhir7gc/0+7Ep+Zp+2uR3H2xUueL+3ymf7tFtjrbH0c/Uq+T+jv3M4wkofOBn/HDg3wffD/zu5K9PCfS4W540VVwj0ShC4QgooNjgjuBwo0/8Os8ebMfjrzTjL5vb8eyRXhxx+mDtjqHRB7hDZGPH0CddX70m2yiCCMLgLBhS3oYE8/bo9zhqkidN8797JpYOeHDZQPN94EPcP7yX2vAg6Ca341ItyW1Kvk4+cx90APPB1+r/5Du11QfPhwu/gfdP3abPfyCD18Ur5oDov0btvTcCbDV5MayUS6wapHOJm6/HtxbbsKHaLSq4jMSy75CSIuUEuRfeq0gEoUgUHUFgjyOISa8ZcEHRAakQxuI9fJAhMGayA399rQ1B6sMxgyDuEwARCXGN78bdq3PkrYopFSXtnkumQ5TlBINyf6R/xFT2hrom7driEYmwis8yRGAAgsRogm0sBo+2NJSdUMY8GpDzQMwv10e/IwU5SUUht9AnbaSdV9wjwQsR+owGsdngw+2rmjGU9TD+tl8sW5L+RxTXovCNFtQ4OtEXCIv/jaCEiFdeC9lE0uwiYrWx/Vp7g1h1uAtXTKU/0K5qUTxZh+GF1bhylhnzD3lV3dhETEjhiHlVScV4DKGYqikr4SHelHC3KLLwOGzPcDSGSIwBEeXWYNsw8owEs0eSbAGOC7aOT8sDVl1F5jrhFCouYnIMhWOMMFNxJih+TrkfQY+MNXUP2eg+kb/qj9fHTi+AdcqgJ12e7G+GvZkGw5SXhFKMZTV2Ksja+wBLDzBvXyd+uqERd6114uGNDvzx5UYUv9mJpbtasdvchuqmXjS546CvVQRitRxp7i/JJ5L+Q+Z+TJPmkQWW6vgJNpjWqaR3soWF0a9mRXZweYiGGM+Xv+ODMxSblntPQqE0uwK2AfmAaltur4idQa3aOm8x95AENbUvtc8zHvRoCfRfexwfBL0MRm/z9bh5sV2BXoyyRupWsZ3Y4dl+bH32IUYU+X13DKjpAf77lRacN9GM7AK1ZCMQDC424a6Vduxv8AmvTd15imsGZfBSqy8e8iMcjiAit0FT8aCFJGlZkFq0PK6AJjNEGNmUc4gAYW+/DFIsFhUysEx00oe08+SgS5BIzbxZgiADO2qo8wW3Z7+VaxKADQklRQAwFpZ9qvNOoNkHFLzdhXPH6cSXmfXkQSkulFVkwoPrmrDDHhThTVqF7HMx8vho3Wn9TiKyUZ6L4jYSuKpccYx9swtjxrPGhgpsZORU4qziKjz2YiNq2pnVounkJYJIcOcRArsGPlRzkQwQXglBKqEUkXlQSX9jVg3bW4GkmnBIP1dnRfFTGkRcvoeizMFWWSTyfUJBF48vjzgl9ZNMgATIU+S98UUSCITCAqpMWeME0i89GyOo9nckOepH+e+0QE9dhDKDJa9SGwTsQLygaCKCYCSAQy7gz1u6ce0sKy6YYMaY8RZ8YZwJV03R47rZLbhxoQt3rHDhZ2va8O/PN6PwtWYs2tWJV6oC2GNNoNLRC32LF46uMFy+BDxhhvcV10mMhriyOoU5oTUHzyF5HmLN8Y3aeMCzBnoCgEnw5lUlH/yeN4wDh6oRnHXUrM9d9W/W/1ojYGnILR/zP21T/uDznpHBVuW9TU4CyUvn58cFvUXHAj0udZX1LPvjwIj4ZUDzVnnjwIHWBH61oRmjxxukPGAmSwXm6XD5VAOm7OpAbyghQCA8tLiyIGRf2n1idkh9L7DH3I5577biP19x4cF1zXhgdQN+uaEFf9nShSUHOlHu7EYrTbFwr1hmHHSMpnb0+fFuYwSvmfx4va4TW00+vGrwoKbVi0BQWXBi9rCDJZhkp+50iJMzGyYeQo8ngH2NEbxiDOFNvRsv6zx4wRiEucMPTyiON+pDuOtpp7KMC/QYXMjqZAZcM78B6yrd6PaQtEwwoNQ7J5nkeGMdWAUQUenXPGuxQ2V88Lx//rQRWUWM6BqRllOL9JwqfGeRBeureyQ/WYCfdzMWgdXlwzt2H7aZe/C6oReb9CHsdEQRDpPQHEA44EGdK4zV1T7kvekS7uB9a1rw0/UuGdsLDnpAgrnLp/HGYwpUw6LgR/VqNSn1ycCMIx4Jo6U3hCMNfdhY0YriN5349aYm3LvGgZ8u1+H3z1kxdksr5u3twjZTH5rcCpQJoDIJSVuf2n+nDHq07I7+JW8EU2pUipJSj/UjGo/CH41hj60Pv1tXj5HFDME7kEbeVi5L4FmQXmBBdqEJI4r1GFOmw2UTdbhuhhG3LLDj+8ua8NDaZjy6qR1/ea0Dhds6MHVHO5bsbcfzld14xxZEZTvg8kbgDsTg1QCR2QE0wxXOqaR0dh75TEBIeqWy6Di3iDNezXBJP0xyC7lPSSDnRYtUjxDUlGnKWbF/x5QA50b/B5a3H9bSOyboHQ2GSCfmjZI0KSVFFKPbJBrHel0AV8+uV9SWAhbb1mFkcS1+tq4J1h5mGYQFPJVNoiZbWj/d3gC21rlQsNONH66y4Iq5NoyaYMWQQgOGFdRiRLEB506247qFDty/uh4z3+2CsbUPnojiy8WjQVhcvZi0vQm3LtTh5sVW8VnfssiOnG0tqG3uE8Iv+4haKGirCSb4R9XKh5betvoAfvtip5CLb1lkw42Lm/CjlVa8VduM5t6grIKunkVQqhbqSWaxWSqx/eUNN+ydASDMpXhUsl2+dFNSAAAgAElEQVSoWsPjCbBHverz5OFltcVvCGIhdPrCePpgO0YUsY4s3QyKBH/JVAtK3m5Hpz+ZnkYllQTWVfbg52ts+M5iC25ZbMfNixvxp1c7xcrsC4ax5lAr/uOlFnxjYQPOm2TBqBI9hhbqMKTIgDETLfj6PCt+vc6GRfu6Ud+l6oATCzgV0QMZouQ7JyZaf+E4dpvdKHu7A/evbsD1cw344mQdskv0yC5l3WEdRhXX4YJJZlw524afrnZg9eFO9PiZhUO3xEDsOYpCH/bVKYOeWhbyFigHr3rFtwQ+nlxIicPyTGIh+EIBbKjpwndXODFoXAMySxqRPlaPNM5ELHrMGph5WgX5Am12IpG10IghJSacNc6C8ybV46IpZnx5qhHXzjTiW0/Z8KPVbXjohV789fUO5G3rxORd3Vh8oAebqnux0+JBZaMP1g4/mnuCaOv1o9sXluhfULMy1GBRirJqFj269KXviQOIeMbJXOtSsnRRuaNJP6JKCBfnrLSIGgnSJvyv/7OUpce2lD/J6lBcP2WjaK0kVjfVWGhZB9DgA+5eaZe6s6TAMCo5tLAaNy2yY0+DkmWX4kDaPSJQOnpCWHOkA/ctq8Xl01kQu0rrZ2aphZs5tlosH6GEFOoxqKgK186px3++2IR3mhLoDcVFAKG5L4TZuxqQmVeJNAYXtBzzm5fW4xV9r9TuZf8RLwkHYiwo563EAWIIxhKYuc+NCybXK95irg4ZxVZ8fb4Nu+u7YXb58D+vNeGLE0nrUZxF8u1GjTfjDUsAQabjUQ9Q1JbVqkOWs2wqATnO6nIGYgmGZeJVvwmHQzB3hvC16XoMyWf9XI4lC4aUWvDwhgaYWnsRoStAs6qn7u3FpdOY2VMnRbYJPLcttqPaFcez5V349kIzRo9n9pXiBQ7Pr8DQnCNIG8ui6CxTSdpRLf55jgGTdrajptmLSEhZw8zzFUJ2LAivx42X6liGsgmXTa/H0BLuk0twldwgHMRCWr469Sgw4+IpJuRsaYGDZmI8cpqQB5wm6Ckfl4CCNgOxEWXwk/1NnysnHqJFIoEWbxyLy334l2WtyBpnRzqLLQufj42t5e+SmyQ3iOz9ZHobCa2qIHGaACKrwCuC5tHPzcgu5o0xC2/ppgVW3LvKgUefb8b/bHGheHs35uxuw/KDXdik8+MtewQHWqKo64jC5o6i1RdDdziBSCQiDvb+pTBnV+2hTDjls2FXk2sV0FcS3FHyr5Iz8f9hS4852el5NcgQrpkONy/SAhkxNYEI6NEvJZwxTYklGXjSwEuwMRaSZeZfNzfinAkq64eW3rACgpQF62t9CEqDq9UF+W7O7iCWH+zE95bZFNcth4WlK5CeX4UvTLbgqllWXDfThC9NIfmZZGlmjShSPVchY9/sRFVbWMpJMj92h7kL502xII2plUXsk1ZcNr0OC97rQJtPLfW5quDSlv2E2SliiSGOxt4w/rS5RYIwPG9mVAwr0ePhl7ph742hvNmHX65vwjAKd5BiIkTtatww14COXr9YYMnxJMaEyLurpXP/RBFnwCAiqW30+angDtPaEvBG4vjJ6gaMKq5VBGZtbH1/uQ17ze2IRRgwVH74ybu7cNkMtrEeGYUEylp8Y44Zs/Z7cdMCFhVXbTSk1IQxE0wYU1qDYXkVyMzlfdYjI4+ZIbQo6/C1OXpM3uNCfTcBWHNtEgeiAbxhaMMPnrYjexxBrk6BfaEZWUVWXDLNiWtmWPC12XZ8bYYB543TyZi+cJIRT7zWAodH4zRKBzr1/04D9Ah4CvS4MmHj8cEbTn8GAY9EqmhE+SPUBhE0uiOYdcCDK2YZkV1Uhew8PQblGZDJyvJCxtSyOnINyMwxIiuXPC3ytnhDOCuQ/KyXDp1FLlNuhVSqJxk6g/sQ4QM6hXVIz+V2RgwqMmNIST3On2zFV2Y5ceOSZty9ugWPbGrBk683Y+qOFizd78JzFV3YYXRjn92HqtYwTF0xON0xtHqi6AqwfGAUTAKPM+Gdzmw6t0UhRJFzufhgZxQndtIC1iwb9fR/w9IbXkbQq0VGAf1TOtz0lA3rq3qEttRv6fUHibTyjQxaaRYB/Vcy2DmGI0Es3NeOK+Y2qEkwrw6D86tx+RQdZu/rRZ9EuoiUAQRCETxf1YXbl9Yjo8QqkV8O4jETTbh+jgGPvdSM2Xvox+vChB307zXioikmpJfakU6xjPwafHOWDvPebYfVrfJ9a1q8uPcZJ7Lzq8Unxqj0yOIj+NNmB2roCJQAjPJNiotEc5jQlbLN2IMfruB5qEl7UH41zis+glUVvegNRqX04feebkFakVVlNOXV4ouTjPi3jXbEwn5lNAycXGWgsYepTAoVLKE1FZR+x/CGKiiugDcQjuKJrS6cO94oGS8C8PnMd3bg9boOWZFxdROJxjH5bSe+PIPcWpUxk12g8nlvXdmEjLxKXDjVjm89ZceDa534/Qut+MXGdtyxqgXXzbVhdJleLL6huRVIK7YhrdSKf326CRuNMcnHRiiKWCSGDn8Ev3ihHSPHMWuLIF+F4QUVuGySHveucmLi2y4s2evCkvfaMG93M/7ykgN3rbDj+4tNmPR2CxqpPRFTqjKnDnmnYelJuFob0OoE+OYDS90InaAs2EsLiDeL8ZcA7D0hjHujFZdPolmrlrKZBWZk59djcH49svMsyGAeL81eAh2T6SlZlc/t+UzLkNaeEekFZtHxSyM49m9nApPwM/IVEGYwZUceXOrQZ6BHVl4tMnOrkZVbhSF51cIt5M27cpYDNy1qwj1r2vGHlzpQ+KZLBsH6chfeMnbiAIMqnRGYuyNo6I2ABY19tBA5o2ngTx8JO6a0iNZG6ikFeknQk7aRKLsSwaRlnZw4k23FHsMSiC/XduPbyxqRXsh7zwFjwPllVSja3g1/WHE+g5EYjjQH8chzVmRx8MlySY8hRTr8cm0jXtd70OsLSjSQgQZfFLB0xzBlhwsXl1RgSKEOQ8ceFNrIPavseNvQJdFZpw+Y914fLppoRDqtwoIaZBTqcNsqB7YY+1RwK06yL2+5omnQ+CSBevbuVlw1x6qAIN+MwUV6XL/QhgaP0g9cV+XGDQvt2mqHikV6XDC+Dk++Yof/fxMAKMZK65FtxrYQC5KTbDwklBWJ4Yo7iXZmXOSiuKQmFYgGCc9h6i4Xzp1sQ1ZuJTKYo1tgwjefasC6ql75DducB5i6vQmXzHKoZTwNDBlrOowo0+FLU6sw/q1mHG5hiUr6FxXo2r3AqsNu3LrYirRxrcgaW67GZ169jKfHt3bB5pWZS4QP9jcGkT2xUVSYBuccwfC8w7huRi3KdnSC+5KAYSIg10b+YTQShLUriC21HXijrkOCTWwDTiin83fKll7yJsjhk348+mkkdC5NKZpf0RjD46qR+BuZGcNhVHcCv3+pB8PKaMUR+LScTD4zt5DmNAGRlmBuHQbl6+WRlU+r0IR0uSlMU2JnYVBELY/FWhQyK5cuyQd5Y0akE0gFGAmearmkdAA5G9PcJqlT/SYjT4/M3Fpk5VRhWEENzptowlfmNeP65V24b60LD29sxxOvd2D+vh5sNfqha4ug0xtFMBhGNBBEMBxDIMqQvarnyUmCN+tNc5/q5HJ9p6+wooCf107QtyAj14hrZ9s+MZUVDi41+JSlz/uvuuDR6O0JLT2tt3Ifqu8oqgoDElIakh2aK4i4sqoZVNqm78Ady+0YUqRHJpeYRQ6cXVSBsdu6RGeOvDVXDJi4uxdXTdOJJZhVwP5Si0vG12CHLSIWRyLUh3jELy4I9sW+KHCgGfjjOrVPmTiLG3H+FAeW7W4Awj50h4GtlihumF6LbPqeC2uk71www4r573UhHIyIdUUAkuuJU6sYaOj04vHNTpw/kW4YEoVrcFbhETz6ei/8YQZf4lj0XrtYoNl5FcgScQYzzimtw4S9PiFyy5I26pH2IKzJ+BHeH+k6akVBq1hWHFGfrLD6qTJhL/wxYOE+F74wo0WsWE7yJC1fPceKJYd7xUShr438wym7unHhDKdSb8mvlYBRVqEO50+z4Im3WtERTCASVv5FoZKFGTF0I+Dtw8ZqN26YY0JasRVpj1dgZL4BZ40tx73LjXjT1geGTHojMbxQ68XIYiMG0Q/I/Pw8E360ugXbnREESQ+KKTBn+0lEntxIAF0sbM7FlOCHouZ8JqB3ygcliztOQmJcIq53r3dhdFkl0vM4O1drAMgZ3YB0coyYcH1M+SVuM/DxYQBk4PbHe33s/TCfmIoymYVmDCo2gYne5EANLrFgWKkZZ48z4cIp9bhqbiNuWubCw+tbkL+9D8sOe7FV34sjTX5UdQNPVYQxJvddzXnLczj28T785wYMfXy3OJ9lUOYRnFuwuNwv4MSBEhaUOuU79oEffjjQU+Rkjae3SC1vozG1EvjADo//ljzQCLDT3I3bVjuRQdIz/UZ5Opw9QY/8V9vF98aJtro1hIfXWiWym87803wdzplkw+J9rfBQXuloawiTLjkRuwIRHLK345ySKmTlaBZivhH//rILDkaHoyGYu4D/3uRExjgHssYeRiYn5kIz/v2lFji6/LLkCoQVXYQAzGDDFrMft69wIksoKLQQdbhqTj2223wS4ODAnrHbhctnkUBcpyg5hUaMmWDAlN3dAlgqe0WjTGkBC95K/lYAIMKy4cqfyM/EoBDXSwgM7vijwDNH/LhkFq3MOjEe2DbXLKjHwr3t0iKJREhcBDN2uPD16TQ0nEjLt4vFe+G4KvxhIy1TRY3hBM5r48THduGD0dhmTwybjzRgUKFJorl0M9EddfWCRizY341gOAqKUWyuasfwEh3S/ucgsnLLMaqwHPc/a8MWa0hzh4UVsGtxAPZd6b+Sm8xcZcWHVLPu8bvNyb45ZUvvZDs+0fcSFY3HhZLwkiWC+9a14uwJtN7qIB1W899lsXPRR3fawHC6wPL+34t+Hc+JQRguwSmjlKsTR+6IQh1GlxpxbmktLp5iwddm2vCNWUZ8Z6ERP3qmGTcua0Ha/1QgrbTl6FL9NK8vXYI6TgwqorpGLa6bZcKKg53iCOeyT6LpJ7ohH+m7Dwt61Uin9VKgl0AGfXofFfSCrA8RSWCHuQ+3rmqUiTArpxaZBXU4a0ItCrc0y8AmR3STIYSblzZpfj8DhuRX4voFVuy09CKu8eiElE4fnBDqaanSEgecnQEMLzVgMH2QJXYRzPjZ2ibsd/oQi4TREQaeqwtjZClVhTRpp7w63Pu0HTstbsmfFSI0bScBhQRm7emQdDAJ6OTVYOR4E36+zglzN4MzCjzmvuvClXMcyuWSWyPgx34z6Z1OBGIJCUb0z1di/R51Hwnq0X1EDh+DQMQiwSMCg/KTkqe44kAvLplpQnZBDbKpcZmnw7ULLHjmSJdsH4sH4I0BM95pw9XTuMqyiSWbnV+FK2caMHd/Nzyaj1VoYNJXuGyJqEg1l/IxoLbFh/PL9KLvx2U6x+2FU80o3NqIth4v3GHg3fo+nDOpXqxJWT7nWXDZLDvyt7lQK0RJSt4zCk6+ZkjAndYqKUAqdU5lyQjSf6Q++/6NP1HQS0Zx33/Io9FdMtrdwRhesUTwnSV2DKIoaYEFg/IYvifYmZE5lsuJ94POZ/2+P+AigZdkyF0BX/rYamSOrcLgnEpk5umQWVSPjEJmFehxVqkOZ5cyilclVmO/f/K0ri8pz9+ItLGVGJRXhevnWbDsQIdUsRLqR/j0GOzvv3+fDuhx/ErqVjyKF6u6cdMiJ9JzTMh+kgGHapwzuQ7T97YjFFFBpIl7PLhwVrMmaabHqOJqSX9bV92HvQ0+7Gvow3sNbux3uvGeowf7nG7sa/Jib1MQr1u8yCy1SgRSXCo51bhnhUUAUygSsQjqO/34p1l1GEyKRb5JLLMb5powf18HPIGg8ulBqRV7w1E8uqkRw0RZvBYMYFw+sx6z93bAS3SUAGAMi/e145o59RJZpSAoAw1jympR9k43ghHlq6QFJxYP/cV07slvtRxVLbOIK6ckpUpWuxLQSCDI5e3eTpw/lQIG1ciWSHYtrn/Kik01bhVoTEQk22HmrmZ8haBHZRyWgMirwk2LrXi3mamh/CMtS/ldBV+1bCyOcZ6jyw98a74Fw4rpquI+9BgzQY8/vtQAq8sjZOj67jiunmNGFreh5mKhGUMLqnDFlGo8uNqK+Xvasd/eA/pRwyEGC0NISNoiD8/MDmbxJGk67++VH+XdJwp6JzqRfkBMRNDnC2DOnk58fWGLgERWbo0AH/1sGfSxnRYofPyAKea7BFJ4bgQ9Uhq0+iASPa5TPsZco1YrhP4Lg0joE5QYGSND/mO9rsJ6ZOVUyvLvqrkOPHWgRxzOjChKkZ0T3YyP9N2nA3o8JbL5OeRn7mzGVTM4GZowKEcnNIcLZ9mwproLYfqWEmH88ZU2jJpgk2U+5amGUE14igV3rrTh3rVN+PHqRty3ugH3r2nA/aud+MlqB36ythE/ea5F/EqUZBJnfwEHfA3uXF6P100+ARy2X28gjMdecGL4ePqgzRicX4ULJhrwx9c7JedclpYxEnGByhY/blvm0IJwOgwvrhUFlPdIOiRECGrEsK68C9+cawb1AwVs8/UYPV6PP7/ejlCIaXOqYhj9eRKqkN8pkCf+ieecy16pQjaASkUQjIYkp3XS9jaMmmgBtQuz6NPL0+HbS514Xe8WUCFgBeIxTH+nCZdO4wTK/swVVg1uW+5Aiy+KqBZpJ+jQ2usPYmoATMRn2tiDq+0YwWJhHA95tTi7rA6PPN8IfZvyQfaGgAnbW/DVKTXShgxM0SJnW44YVy9WL4VT/7zVhVdqO+Do9CNAxOeFUo0mpnx8SX7ER+q2Azb+TEAvCXh8VmarT9Jyyt5x46p5DcgoMIApR7SU6LT+eCyijw/8qAR8FLA0Sy/JKZRZjp/ZkJbLYkkMkjBAomqI8NqEgsPASTISfZqgTmIrrUlR1sitw82LG7CuNiCdM6E51gfc89N8+cmCXrJviOlEGkosgcdecOC8cdSHowqzkkz6+lMt2GnuQZBOpXgIv9vgxMhSIwbnViB77CEV5S2xI6vYiMFFRrG0hxQyid8gmT/Di3QYVqTHsCKDZGkI1yyXJGZOXjrcsdSMV4xeBTZx5vaGsbaqFxdNJ1G6DoPyKpFdrMdda13Y3aDxBCNhhKIxLDvsxtVzuExUwbjzJxrxp5cb0UmdeCbda6C3jX6/pTYw6CJ9osCEYaV63LXSgj4/o7TKaU9gorXFn6nMIQKRNvQlA4pQq+6LWIOS2RIAXRuPvdiAbAYLBcwp3KDHD59uwm4r63IokYRAPI5pO5tw0XSb4iPyfPIMuH25A75AEHEuL+lcJQ+VhYm4AlUnoyUjRCVP9t+eb8QIWrd09+RUi3/1VxuaRCeQHEomMhlcQRS+0Yyvz6vH8DJFNld+ewJuPQaPs+GiKTrcvsSEx19rw/M1XjR2UoxAVXVj5i4oRNKv8CIn8pH69GcOelJMmDcsGkCdK4An3urGhdNsSBdrrwpphf94oJcuVBnSYo4XDOHnBCE63hk1ZkRY+SdZJlMirYUEw48jkGFEFqODBTah7lw53Yi8ra2oalPlGIUulOSJfKSucbyNPznQSwJe8hnRKAzdCXx/hQ3ZhZXIKKgU+fkhZVbc83QrLC0+BGgFxML41ToHhpcakZ1XicwnD4lFk1FcLxbfkGKdiBYMLqzF8GJaXgS8uv7H0MJaDCsxgt9nlNoxuNiIe1Za8LrRI4L0Unk2HobOFcYdq5oxurgCGaTFFBrEWb/wECOsFB+Iw+314f9t7sT5k8wSkWVmw/XzrFhxqEvs1hgrnnGcxmOoaIvjV881ia9Q8VDNyCwy4CuTq2DsoIVOK44DXJHexbITq47SWsrq4aQm20DVxxWgjKmqcc3eBG5dbEJ6iU2jxdRhRIkev9vQAl17CEy1owVJUvPUHc24aAaDGCZkSv+uxx1LnfB7qHDC86XJpWXQJEFPLD2eYxT+UAQPb2iRiYcGQXpuNUaW1OHXG5uEz6hqHccFME2dUSx8rxP3r2nCpTNsyC4iuZk+YPoUKXmvkhUIit9dZMX83S5YOpWsvvg444H+BIj+vnK87nqMzz9z0GNTsuETrAYVC2O3M4jfv9CCCyYohnqSj3fUshpoZX1Gr3NJpDYhgxxBAT7tPAZYgNk5lRicWyOO3Sxhsw841yeqlLLwaVp4yTYhfyy92Ip/WtyG0h2dqGjoQyhMxTkt0hdhC39cf58M6CU7b/KZUcK+ELCyog9XzKaPiMBOqkMlLphsQsGrbfAE1cCPRkJ4eL0TQ8dZxVLhUm5QoQ6XTq7Dj5frcf+6Rty3ximP+9c24oG1jVDPTfjpumZZ8j64xoGfPWvDT9a144G1zRj3VgsONgVEJIl2FK0tTzCG0p09+OrkKmTkEoCNGD3JgsdebpGACn3w1Y09+NaKNgwp5nK5GqNLa/Gr5xpwsFFJwzNjg32e1mlDXwJj33DhoskaIZ9UrGIzRhZX45lKnxJB0KKxtKx4DqIelFCsV0VPUSmfgv38njnk8QDcoQS21Adx/sQapJP8LBSpOlw82YiybS50+qluoqKlvL5pO1txCUEvzyiJAmQp3L7UCXefkuBSx1U+PZ5LMtVOISJFQBK4fUWLWNGZVE/Pr8PZ4w34w4vNMLsot8VzU8wNWrs9vjDesfsxbmeXuB2+Mc+CiybUYFRRpVpFFVGVnXqKtbhujhUT9/hgp2uaQY5jgB77zYf9+0xAb+DJEbnDkbCSl4lG0cfGqPfh95tacRYTkI9LWRkAIh8TeCRB5KTPlMbPI/GZEWd1HkKGLjQpojTpLaxnkOQL0urL43JWBWq47Bkk+canfw087jlldbh9mR1LqqIi5yV0AknMTqjasqcb7hp4wz4kTy8t96NFb5Ngl3yOxBLY1gA8uI5516Qt0TI2ILugArcsMGC7vk+sHYHzWBhPbG3DuVPsqjhVjk6KDN23pgG72oBObwJdnji6verB152eBLqp7egHurxx9Hj88Pv9cAfiaPXE0O0NIhJRhXMEbARMotjpCOHbiywYVEh6FfN2dfjBMjMs3UxhBFbtb8HFBI+CeiEzXzvTgOm7XHB5Y2rga2owiPYJ0XfxES/+eUE9KP3EZV5GkUXoUD9f24JdTipEq7KNyrtJ4GAghGJPGllZJK/CYjiogENUluJVncB/b25CelGt9MNM4QHW4GaKP1R6RKKe+UM01phuN/2dNnxphuZ7ZnpYfh1uXWqT1FFev6RiJgnk4paihaeW3wRBaiN8aYYTg/OqMIgk6Hwdxkyux99eb0Njt6LW8FhilXL5LcvdBCg8S/fiekMYf3zJibuXmzC6pBaDi3mvySusRlqxBd9c1oKny3sQ5wQuZPCjwqfJPvO+bnqCN58x6HH6ojYZJIdScnRjUVBM4Q0b8J0F9cgssn9gGZhcUg4EjIGfDXx9rG2S35/oeeDvkq8Hbm9GRj4LndN/QV8dhRJY9JwUFvpx6KOhI5sOXb36jstaSaMzIpMS6H8XyBi4fx7zg+///jMC3pASM76/sgEvm8PoCVD6iulxHKykN9DfpciyJ+gDH/ErtcSR0XJMlRWf+GoG8vRuWmTDc6SsMBJ3vKNpPhpJqI8l0OOP4LGXG/DFcbuRlcek9kak59vwhbJa/MdGh1hWfYgo31LcK8uzL03Rgl5FFowoqcMdT9XhUHNAnPqKtsOgRwRx6vZx4IjtFEU8EYGPA5InF2W+qBZhjSvtRAG9cI+0a5s3jvuea8PwYoqkMhhVh3+eo8NbJh98gSj+/EI9RpaR7NwoS7U7l9vwmq4PoYimJUj/INsg0iP+vW2NwP3r2jGigNLwpK3QDWLA6JI6LDroRRfN3Zj6jfLr0S+oDXwR9uBSLyrLcPq7CEDd/gg26oO4ekol0kpMyHiSK44qZBVV46fr23CwgYDFrdlfEiLjNX1XCy5nGloB+2sNMnLLccsiM8y9CQSiCmR5/4R2JMtathGBXPEBbT0xDB3vwKCxrHJXIePg4lkNGLerBz0BpegSZrFy7f4nGJ0l10+EJagHGEVXCDjQGMBjaxXvleNoUO5BDMk/hNGl5fj9cxZIHolkv74f9I7XrY71+WcPegmm7nAG0B4SsYqiJQy8UOfBLxceklQzdoh0dgoCCesn5BkkWsmcyTSawqVUZmAnVODCeqB8kPqSnqNDWkmbAhLJyqDFZdciq1rUlb8TPxutMi43VHrcUUEElfGgeEzHAqQkOCafk9sc6z2/MyI7t1rqBLOoEs87vdiODOYZS/lElTUylOl1VAUhyZURYqrh5tuQWWzAZZOq8OiGJthcbvQFSfCkX4dQpyw8RSQ91m0/9c94m2TQchdaipQCMpWRwRoWwxjhlHul2uCbixrxbLXSU+PyRH7PARNVfDISaVm8mwOoOwrsaAT+9rwJI8ZZkPbkYWTQaiwwYlRRNX62yojttoCkXEVp9Yj0UgAb64GblzRgWM4BDKGFUNaMMdObseJIL3qTkU4OMFoKrFERi0oBcfER8QLEf6Zx+KghxwHJim+xBIIhgiUHeEw4aZP3+XAtc8cZ+Mg3YMxUJ/7fFi/a3T5cPNmGzCePIJv55AV6PP5aC1y+mAz2iJSvZO4oRy2LfLvhI0duTzcuGM8+YEUmc4AfPyjZNdeM24s15Z2iNs64r3jVaGVRrIETG9tMy/cmmLBdvUFgW60Hd86mlWRF9hMHVb8vcOBr041Ysb8dkXBIqS9LRTtaHN2YtsuF82c0IJ2qR3mM8tbh6vkOPFPejZi/R0CVt0kmBJFSI3HbL7p4jX5g2vZWDCqxSAAyPadCRAtuW2bFa9WtYt3RbyjLes0mZU9NurYI5rwPYkDG4mjwAo+9YMcFEylmYMLgnGoMzT2C259uRDvlkYj72iR5Kj35MwY9ng16HDMAABqXSURBVDI71NHJVUnlhKWRrT5gfZUHF0w0iQaa0gVTAQQScmVpSetJZkedYtQXcqBpwYICK9ILLRjC2Yf1Qmk9SZTVDPrZSEYdnF8ruYAKLOnwTeYdclujyvdMBiwImIzEihWWBLNTf6YvLovRQqG78JyNSGNlubE1mqoFfSMOZJRyaVeFtCcrpXZser4FF07W4/GtbTjUGIEnFEKYy4V+wNNAT2aTU+kWx//NUdBjz+MRNepEPIq+UBxbzQEMLaXwQ5XQJKgc8q2F9VhT5RERTMq1i8yQALRK01O5olF0ekLYVN2N+5+1Y/TEeqQ9WY2sYi29KU+Hr8/SY/7ednSSdZuIyPDhQCcY7WmK4YHVdowqKJdSkowejijV4a5VVnR4PcraowVHJ7wWDRXwJYAEe9VQZGQyCrEiGWhlhFQc8ARI4QOq4BCt6juX20F5pYycCnEv/GSVBS9WuzBsogOZBI0CM748zYzl+9sVZUiEKUi4pdIyl3vKP0Yw2GUP4Dfr7BJN5oQ2lKl27MdPVuOWZY1YWeFBu9sLhN2SGscIKoMhMQQQlGtSQOj29mGToQN3r6GEVqUEtxiUSSt0YnipGf/xvFOKsQvtRGuDGMtQRsOYsrsHF02lC4YqK4qyclZZHR7e1A59L12QPiXprpX+ZD8gSDFpZWsD8IPFjIrXIuPx97QxZsXP1rcIfYf3in5DPssNEAoMJxUGaQjgtFxVVJv3JhqKYMI+Dy6brcZv2lgGAo34zpoO9JGiFOyVCZLAdyp/nz3ocRZOdjBeBBtGSIlRkcshUfGvW7tw2WSDyMxQPECsO4kwMTKqIj4EK8ngEABhXq0VaUVN8sjIrRMJHFqKGSQMU3yAlJicKmSOVfI4EpCQpTTBRwOgfn8dgZaAp333MYGe5PnyfDWai9Q1zauTWsKDKSYpS2dFN0hj5y0w4awSI763xI5Z77nFF0IeEyWtTgR4p9o5jtehxDqS6ZZDV4EewaEvGMdWSwBDi1nLtlwqejET4Ib5Fkza1SWBASqT7G1NiMruvqYwdjoj2KALoujNVvx4hQnXzDbjrHFK6ZcTkvhCi+34xhwTZu12wd6bkBRGIa8mouKP4pKu1Q9MeKsZX52uqfLk1WJI3hGcPV6PsVuc2GwJo4kGHA2FSAgxJrSL/IXKKGjui4oPce7+XmytpwgnG5YDPSRiEhJx1WTizd1R/NerLpw3gROeXgjL10yvw8+e7xSLPJvLuyIzHljdiL2khjALhNajOODZYEHxYRMI+Oj0RfFyTSd+uLweaWOpI2dGBiuZja0F85ivnmWWYMnG2j5UNnpgd0fh8ANOn9IOrGz24wVDAH99ox3XP6XHiPEEvGqkUWmGOdk5Knvk1dpudPlU5JeWIbMfuNTnQnfczm58eQpzi9nPOD4qRCXnvKlO/OGlNhg6I3AHleAoJztGlnneW4we/PxpiybTxXPnysuOC6eYMW1XG9x0uSQiAo77rR1YeagT7zQDLWwSdjD698JeNeYpSw+gsSuIf3ulDedMVDV+s/KNQle6e40d4qzR6qycar/+7EFPS3FRmYvKT0CqgjwSVFyN4mBLDP/1aicunEw/mqKBiNOXACh+Mlpo9KEZkVloxBcmGPGV6WZ8cYoNg4rrBei4BGZuqoq20lrjrMZnRfkgITpDqsdrliKBTQIR5CxRzYXiiQxQqCXbSYMdJw2uKF6SAlIDCOYC6CKkqmoHizwWl+b0BxZZMLRUjx+vcuDZw92wdXjEJ0X+mMy6Aj5Hl7UD58BT7RzHBj3NL0e/DotHJ5eOiZhE8Ch+OaSM7UXAYlFvPUaOt+DGp6x4aLUFv1hrxY/XuyRieu/TNvxwpR23LG3ApdPqkV2oeHhSrzX3CIbQWsyrw7eXNmPe7jbY29wSNSRNhdkGXCpzpUWLjIGPXVaPEI9F8JMT2JNHJNBA3td965oxbU8vXtX3Yb/djcONfdjX6MNWi1fqdxRvdeK+1Q7cttiAp4740EZBICb3U9NPm5TpW6M/jeKeiw+68U/zqZBCS92KEYXVGD2tCZn55aIzN3qSCRN2dMHpVnJjav3G/s1WJb1FgQ8HOf1Z7b1+LD/UhWunq2R/SrtLEfT8WlnenzdejxsXWvHgmgb8dUsXnnijCzlb3fjzZhceWtuImxc5cMEki0yYUpCJBHhabAV6fGNGJdZWdErRILabAjwxqeS0+hLAxHd6cMVUjSRdqKXbFeiQWWLBeRMMeHSTE/MPuPGayYvt9R5squnB1F3teGidA+eXVijfNa3TAjOGlhjw0Bo7tlv9cp8SET+8wRDWlnfhxvkmPLSxDVP2B7DZEsHh5hCMHUGYOoKobPJil6UHRW+7cd1cphIeQFZ+NQbn1eLSyTrkvd2KeEK5NtinT7Vff/agp8wGiQnGaPzLwl5b5FNiOuEH6+yyzgBD/6Mn0oJj6o7mtC6m9DwJvw6Z0YYVVOPOJWaUvtWGybt68OgLrfje4np8bU4Dzp7owKBSEjAJkkmfHi0qnViCFEFUVBSLisIKwGr+PeHbGT/GDBEN9Liklcr1Wo6xLKFp3XFJS8uSijNGXDjdil9tcOL5WjdolQQlE4HWCMFPARF9eHxosHRszDrdT7UlrQQyYiqQoMYxpfrj2Gr0YPg4gp4SBpBrKKxHdpEOwwvKkc2oZ5kdGcUUfeWEUyucLhX8UZqJLCg0oqgGV04z4sG1DVhT6YGzw4tEkBLpMc2fR7RQSe9CQ0wk0OGNYvHBHvzLkiZkltnFr8jjMgJ4Tlktrp1jxB0rHXjguWY8uKEF969x4u5V9bhzmQkXTuNgrcNXplRh9oE+tND8SbAIFVVUCPDsndoSLRbCAUcfHlrXgAwGpfLNGJRbJZkig6gEk6fDvy6y49Vat9BuuCsu7JKWDc+X6VWS1iVvGEWNwNYdxIzdbfjuMgeG5FWIFJUQd6lMXFCHYQWVGFVYiS9MNOG8yVZcOM2J0SUGnEOSNUULOEFq/ujsfPpAjbh1ZQPmvduE5h6fKtZDAOd1aHVEOPy8UWDa7i58lWloDMIV0niggrMR/7LIhuElBpw13oBr55jwo5UWqT9821Irrphjw9kcjwRoioXkGzC8oBrfX2rBmvJuNPkUB5C1T8J+D5ZXhTCysBpjSqtx3SyDTHisgfLoi6343aZW/HxdE+5+ugGXTHdiWBkneyWFdf44Ax5+zo63WGks2ivWsSwKP7fLWzFT6NZkhEel3ci1sGPIC/KOyIiP4jV9n2jqnyvAR9NdzbK00AaRi5Sjx5CCWjy6wYF9Dh86AkB1Wxgv1nRj2h43fv9CG76/3IErZlhw1jgSQbWlpWa9pTOIkEs6CiOxR+knYtVJZ9J/jKCXJC7rRd9PiQZYVPm/4kYBZllSF5pw6cRaPLGlFbudXnRTykizPLisoz6hOFeOMfMlZ8OBVt/pYh6tO7U/ZenxHBToReENRrFF14MRJXQh1AigkbPFFC8qk6TT8U86g1iunHQUgTdtbIVaFtFpXWzE5TNt+P4zbZi4qxe7nWH0/i8/TsQjyXFLWpb0ZTH4EGH0Ul1VLBqDpTOMBfvduG2JBcMKKpBOayWnGpn51cgopEoy+X6cMAlWRuGTZRVwcHHiNOHa2QYsPexGB5e3LHmQSCDINXFclWBkZS5+3ukJyMR6DiXU88ltq8XQnMMSZOIq4m+bO2Bq6UM8GhElEgIewQ+xPikhKXM9T1zoG4TEGMKxKOy9ETxb7cU9zzhx0WT64xi8YpK+WYjWWVQbZ2CryIx0Ee+swJDcGgzlhC30Lr3ktn51shE/X9WM1XV+NPWRiMxr0QBPrHQeU9AX4XBUeHqXTzMgXWTeOAHX4aq5Vsx814VvLWS+LK+T6siVyM4tR1Y+76PmRsrRiRDDoEIDvjO3BisOdKLZHRKrnMEpyuh7fX4srQzjrGKmw5HnyJogdbK6EaAV0QxNW5OGAFcKxfUYMt6BB55twua6bnQH/YhHPeL2SvbtU+nPn72lx6aXgidHneLsEDKw+R87hrDQY/AEwni+woW7VjkxeByJlMzHrFENRwupwIm0kgY8vLFVHLaKnR6R+p5Urq5v68MbdS5M3d6Ch9c3SvGTS2c6JWcziz6UAgsyxtYgnSIHOaqYimRQcJDKcldx85ID5rSXuFSHZlieuY4MxtC6K2lCWrED6Tm1QmO4Yo4VOa84UdcahJ8DSOjxHCMUi0z011OVdeYAdGOnIIGUjwEfn0ofed9vCD6cp5RDWhGVZf/0DYXCeNvUiwum1OPscQacN96AMeN0OLesDmPG60Vb7rzxNTi3tArnTrRgTFkNvjylDlfPMuH6+fX4zqJ6/HqNDXP2dGGHPSzcL+INrUr2CTr9JQgigzUqgJKMIIuvLhZFNBREQ4cH6w634ScrDPjyTDvOLTXgrDI9hpZQNp3y8SpQNLSUvigjhhdX45IJlfjnhTb88RVOLkEEWOs24pcyh6y8x2iuQBOtPtaMTQCrq724cXEjzp7IokP1OK+kAiOLTTh/ih1rKwLw+lUlMdKyYnGV/QCyFWKs8Kz9SYBDpZXFxVcWQlcwhrftEdHju3WZExfPbMDICXYMLrNIWl1mIf2IBgwqq8agkkoMKanC0JJqjJpoxJfmOnDnKgdKt9qw1+qGO8yiWCERFhULj4eVgEKSehQR7hvVw7801Yh0Wq5MQ8utwb8us6Ou3Y85ewh8Jlw6w4ohZSzkpRfyNzMpsllgaYoNl0634J41bViyvxMNPZS2Ur55oaTFQugKxPGSzotr5nIZrlLQsorrhVRPGX6SyYcX1eCckmpcMN6C88dV4tq5Jqm6trnWI/5i2tpBloiMHL8IebJZT/T8mYOe2HhaVE36sgynOEhHiDKUxj6mRYwSIR+6vSEsP9yLGxfaJNrFfErxz+VwVmxCWkkzfrGxE3udlPChv4R+FEaKlLotxxB9Gk2eOHaaezF3Vwse2eAUNdkx05owqoSpTLWKRydLS0bSkhFdMzLltZrdTw/0VCSZSs4EPsnNFfKyonucnXcI35pnxILDHgnhC8hBUR8Exbi8jcZAwVn5k2XSUXjrBz1Z7iY3+hietair2pOKQMrykoGBaAQVbTE88nIXfrFBLVl+t6EJv36uAb/a2IrfvOjCb55vwO/XW6Qy3h83tyH3rW7M3ufGFpMPtu4IIiyGwwACxTOjvbLEpHQSLSVKocdpGXHZKbYRz0IN3mA4rnJEGTSIhhGMJGDxA3MPhfDLDT24Y2UjblhoxtVzTbhmbj2+Od+G7y6y4b6n7fjd8w0oeLMdr5tDaPGrYxHnWGgnFKEfj3DBnkOKDSdiJVle3hbF1He78ehL7fjNplb8doMDj220IPeNNtR1UhqKP9GuJ0J9Qzoe1GqGYC3faZQTsWAphc4lvFbzgjmuVc5uKVP5H6924q5nW3DrMge+scCKy2Y5ccnsRnxjngF3rjTjntU2/PurLiwr94rME1dOCS0yGgkxcKKuQBpO49nFJL2NpOoopu3uxpenai6jQvbJKnxviQldvhD6AGyzhfHklhbcs6YVtyxvlhIANy8w4QcrrPjDiy0SqNJ3Ax5es8bfZEEgEZWJRcVCZyBk1nte/HlzCx54xo7bljlBOtOVc2z4ynQTrptbj39d2YwHnmlG7pYmvKqjH5LpeMo9QDeruAiE2/s59unJklasOa0Xs5g3QYqXR6smrpYFnDk4kDlDWrujmLndia/R8VrSIub/MJreBQZk59bgt2vrccDhlQbinrh0YEFwytLIklC76fyG1gMjxG9bg1iwuxU3LGrDxdNsGFVqQDaXZe+jlBD0GAA5EU2FgHgsUEx+PvBZCRFINJlOYG3fZxdV43tLbZhVBQSYFUDgF/OKgy+sot0cldLBCAxJi1hmCLnigf9xs4/zT05FdqiBHlEv4hfpn7YI0OOPwtXjFXl2jz+MTm8Ezd648M2aPVG4AyF0eMMi2U51DvpsFQVDWfhhvtGWYjyCUtHlUdkfmIbkE/jgYGTDiAWmXSCBRopPE6iiPrFw2noBkyuI/Q19eLu+B2+a3Nhp8eKgIwhdexgOdxgRWnaUSWL5Ri6bJcGeE6UCOGWZJRCWCVrz0hGcggG09QUlraojyFKkfegMxsQC95ECJ40v/BKhzfC2MZtKpOUjKquEg1n6pQzmmLyWWyvXl0A86IGnrwf2Lj8OtoTxjtWD3aY2vGvqwn5nAhWNgLMD8HjDCEUCCGpparEweYYayEof0WrR8n6RnJwICNmXCt8TdrlxxXT2awbw6jCkoBw/XGlDex+3Y43dILr8ERg7Qih3uHHE3o2KZj9qOqJo6GHBcGrgueU+CpjHVdEh6Su0bEWAVHXVvmAU9q4gKpsD2OvwYafVg13WPrzn9KK8xY+GXqDVx7ZWWR8yj0l/1+rSsID4Mdw5Whc46dNnbumd9Ay1uTwapQ9H9Q5ab+buIMZvb8T5peVIy2sSNjsjfdkl9fj1pg7x6VESiI3OBxvpeH/sA7QKqeYcDAWhbw9gZXkvHnnRhevmN+KsCQ6p1sSaG5nMpChkPmMtMgt1IklOkvHgnFoMoj9QAM+KYcX0/1Up/wsJ0vQRSq4upYlUMCWL+oFPknhrEMDOyq3FFyfoxfd4qI2I3PMh+EjHv67jXe8n87k6DxmsgsGciQfgMceZ9ujfRsPtj3Y+8mv5iTriiX6ttuB58NisXSJZBdqzWD/adyfay99/N/DIA65T62fJMxy41cB9aGfVf/XH2+7ob5RVQytTeNwDroPvk9dxgi5+dFf9r9RZ8n8WEWfx9C9NoxtHlWpgIIpV0zpE0UFGkPI0ae3ItpRHf/up/fXv/gQvuGXyfgy8J2p/qmLesa+Fvzz9v88J6MW5klPoJZ7zCPqiCexoiuJ3m5pxDv00XHbSUio04Vfrm3DIofhRnPX5U2HAf4j2SkSiiIej8PpCsLm8eMvoxox3u/DzDW24dCYzQdgpmpGWY4WQJhngoB+EAFZkAQMSSrdMW3YXNyCNgQlGi5ldQbECRpvpM8zRKdVcWpO5enx5mhV/eq0Lb9tCWlqUimafCLA/xCWlNkm1wAlbQIGeC5cNAD1q6r0f9E64i8/Vl58L0GOL0hLjykKZC1yKRNAaAl61xvBvay0YQs0w8evVi/OzwslcyajQGwT0YlJu6YQ3h/MIlxrCY2I8ORaGLxhCW28Yta1hbDP5sfpwD377XCNuX2LHFTMdGDXeqegyFBQgqHGZSrUPEWxk+N8mZE0GREiJYeCF1dhEoYXk0RwdhpUY8M15FpTscIMWHtWkKQJJlD8dM/6EF5v6MtUCWgukQO8fsCswTYkGXlJpOymfE41H0RYEtlu8uHVFEwbnVUvu6m+eb8cRJ3NnlNS14iWdHPR46dxW3Nb0GYiKBF2n9CdSuTUET8CHyoZOvKF3SaWp/9zchluWNuK8iaxir8QHWDSIhFWKEJC/RYY+iaZKZp4+E2aS0BI0Y0hBDX70dAMWHeiBoT2AUETleFJnMOnHTFl6/4Cd8gw6pRTo/QPeTMrJcI1PJzX9FyrAwXw9OkuVPM3SyiC+95QRZ5cZpRAxi7oItUAjhkoE90NcW3IVLTFBcWYrNzkd6oy+hYUAHIU/EkJLnxeVzW68ouvC7D2d+K+X2vGDpc34+kwnskodyC6xiM8vXTI9yEEiN80hVBtyAUnneHBdEzbW+dHoDkvFeSHcatFJoZuchsP2Q1xuapNUC2g+vdTy9h+rK0QZySW5RUW5xPJJRmBFfjsmVIOn9vfg209Z8MimFuxrYFajii4KdUBCnSe/LMa6eCT+S+Y28LhJC5AQmIRBoTJQLSMRkyR1cw+w2RCQ0n4PbWjFd1c0ikYZ+WCi4CJZFiYMYqrcZAf+9FIDttlj6KTCDrmKCR5bFXgmytOxm1renvyepbY4vRZIWXqn136fzK+JOiJjpCXWMyoonzE6SJ0yEiGDIqA5bocLE3e6UN7CClWKSEpfnSxxP8zZSZRYJXIJyGq/jUn6lYI8OTZ3yoeW+8lFML1wwXgAff4O6LtieE3Xi/HbGvHL5xpw85JGXDatHheOq8ENs/V49KUumNq8kgLE39LC5CMJqrRsmRifAr0Pc9NS25xOC6RA73Ra75P6rQQxlLy1Il0yG0GT9hJQiiFG6ZtEFOVtEexyBNHoVnI1im8V05j8Jz9BgiPBR7MRFV9LaqXygIzPaxtoZE8qmoWZrqSJMgqvjGBIRJTc0ACaPXG8bgfG7/bib5ubsGhvO0w9REmPKsPXf0zFqSLw8TC8nhTonfyepbY4vRZIgd7ptd8n8usQ0yCFD8SAAhn5Sq2C1hDBIaQpy5LwyfceakvSYhPdLvWslrgnPz3JLZdMDsUxe/8vuPe4WHQsTyhUafH7qfMhzhEXeehkjih/IVykGMUoI+jt86LXQ3a+sj4TXLqTcAvW+FSJ57w+Xi/BTyw+/pf6S7XAJ9QCBD0WJ792DlWfjRhRZsTIMgPufcaOzn6e3id08M9gt58bysqx2iZpBSWfuebla1Ea0QIAye/4/Gn+DTzuwNf9+bDvO59P99w+zXZIHesfvwUYHPQEI2hzB+Ds9MLe4UVDlw8dfUEpackJ+Ez6O6NAbyC4HOv1p3njjnX8D372aZ5P6lipFjheC7BfMlOFaZqsIxyIxFVqIN1KZxjgsQ3OGNA73g1NfZ5qgVQLnLgFZPUhKyQFcgQ6ul/omjkDMS8FeifuDqlvUy1w5rdAgvJj4g5SIEegSz7U1Z9Z0Pe5tvR4Q5JLxjO/a6auMNUCn1ALqGiZ8MBI81IgOFCxJwV6n1DLn/puCXypv1QLpFrgNFsgSfgXDUoyErjAPfP+PveW3pl3S1JXlGqBT7cFji5l+UrRspIevaPffbrn9EkeLQV6n2TrpvadaoHPQQskYU6tl5LAdzQr6Uyz91Kg9znolKlTTLXAJ9kCyUitOsZR0ON7Ah6/P5P+UqB3Jt3N1LWkWiDVAidtgRTonbSJUhukWiDVAmdSC6RA70y6m6lrSbVAqgVO2gIp0DtpE6U2SLVAqgXOpBZIgd6ZdDdT15JqgVQLnLQFUqB30iZKbZBqgVQLnEkt8P8Bdl+H5g98FhYAAAAASUVORK5CYII=;" vertex="1" parent="1">
          <mxGeometry x="343.75" y="135" width="102.49" height="43" as="geometry" />
        </mxCell>
        <mxCell id="Jmjwqn2J3mBhddmmst4y-32" value="&lt;font style=&quot;font-size: 20px;&quot;&gt;File Storage&lt;/font&gt;" style="rounded=0;whiteSpace=wrap;html=1;fillColor=#0050ef;strokeColor=#001DBC;fontColor=#ffffff;" vertex="1" parent="1">
          <mxGeometry x="567.6" y="341" width="130" height="60" as="geometry" />
        </mxCell>
        <mxCell id="Jmjwqn2J3mBhddmmst4y-33" value="" style="shape=image;aspect=fixed;image=data:image/svg+xml,PHN2ZyB4bWxucz0iaHR0cDovL3d3dy53My5vcmcvMjAwMC9zdmciIHhtbG5zOnhsaW5rPSJodHRwOi8vd3d3LnczLm9yZy8xOTk5L3hsaW5rIiB2aWV3Qm94PSIwIDAgOTEgODEiIGZpbGw9IiNmZmYiIGZpbGwtcnVsZT0iZXZlbm9kZCIgc3Ryb2tlPSIjMDAwIiBzdHJva2UtbGluZWNhcD0icm91bmQiIHN0cm9rZS1saW5lam9pbj0icm91bmQiPjx1c2UgeGxpbms6aHJlZj0iI0EiIHg9Ii41IiB5PSIuNSIvPjxzeW1ib2wgaWQ9IkEiIG92ZXJmbG93PSJ2aXNpYmxlIj48cGF0aCBkPSJNNjcuNjc4IDBIMjIuNTU5TDAgNDBsMjIuNTU5IDQwaDQ0Ljg4MUw5MCA0MCA2Ny42NzggMHpNNDIuOTgyIDIwLjk3Nkg1My40M3YxMC43MzJINDIuOTgyVjIwLjk3NnptMCAxMy40MTVINTMuNDN2MTAuNzMySDQyLjk4MlYzNC4zOXptMCAxMy40MTRINTMuNDN2MTAuNzMySDQyLjk4MlY0Ny44MDV6TTI5LjkyMSAyMC45NzZoMTAuNDQ4djEwLjczMkgyOS45MjFWMjAuOTc2em0wIDEzLjQxNWgxMC40NDh2MTAuNzMySDI5LjkyMVYzNC4zOXptMCAxMy40MTRoMTAuNDQ4djEwLjczMkgyOS45MjFWNDcuODA1ek02Ni4yNTQgNjQuMzlIMjMuNzQ3VjIwLjczMmgyLjg0OXY0MC43MzJoMCAwIDM5LjY1N3YyLjkyN3ptLjIzNy01Ljg1NEg1Ni4wNDJWNDcuODA1aDEwLjQ0OHYxMC43MzJ6bTAtMTMuNDE0SDU2LjA0MlYzNC4zOWgxMC40NDh2MTAuNzMyem0wLTEzLjQxNUg1Ni4wNDJWMjAuOTc2aDEwLjQ0OHYxMC43MzJ6IiBmaWxsPSIjMDA3OGQ3IiBzdHJva2U9Im5vbmUiLz48L3N5bWJvbD48L3N2Zz4=;" vertex="1" parent="1">
          <mxGeometry x="650" y="395" width="67.6" height="60" as="geometry" />
        </mxCell>
        <mxCell id="Jmjwqn2J3mBhddmmst4y-35" value="&lt;font style=&quot;font-size: 22px;&quot;&gt;all activities&lt;/font&gt;" style="rounded=0;whiteSpace=wrap;html=1;fillColor=#fff2cc;strokeColor=#d6b656;rotation=35;" vertex="1" parent="1">
          <mxGeometry x="211.14" y="515.64" width="131.46" height="24" as="geometry" />
        </mxCell>
        <mxCell id="Jmjwqn2J3mBhddmmst4y-48" value="Actor" style="shape=umlActor;verticalLabelPosition=bottom;verticalAlign=top;html=1;outlineConnect=0;" vertex="1" parent="1">
          <mxGeometry x="1062" y="220" width="88" height="83.09" as="geometry" />
        </mxCell>
        <mxCell id="Jmjwqn2J3mBhddmmst4y-51" value="" style="endArrow=classic;html=1;rounded=0;entryX=0.5;entryY=0.5;entryDx=0;entryDy=0;entryPerimeter=0;exitX=0.98;exitY=0.2;exitDx=0;exitDy=0;exitPerimeter=0;" edge="1" parent="1" target="Jmjwqn2J3mBhddmmst4y-48">
          <mxGeometry width="50" height="50" relative="1" as="geometry">
            <mxPoint x="882.6399999999999" y="311" as="sourcePoint" />
            <mxPoint x="1078" y="280" as="targetPoint" />
          </mxGeometry>
        </mxCell>
        <mxCell id="Jmjwqn2J3mBhddmmst4y-52" value="" style="endArrow=classic;html=1;rounded=0;entryX=0;entryY=0.5;entryDx=0;entryDy=0;" edge="1" parent="1">
          <mxGeometry width="50" height="50" relative="1" as="geometry">
            <mxPoint x="680" y="350.90999999999997" as="sourcePoint" />
            <mxPoint x="810" y="329" as="targetPoint" />
          </mxGeometry>
        </mxCell>
        <mxCell id="Jmjwqn2J3mBhddmmst4y-53" value="" style="endArrow=classic;html=1;rounded=0;entryX=0.5;entryY=0.5;entryDx=0;entryDy=0;entryPerimeter=0;exitX=1;exitY=0.5;exitDx=0;exitDy=0;" edge="1" parent="1" source="Jmjwqn2J3mBhddmmst4y-4" target="Jmjwqn2J3mBhddmmst4y-48">
          <mxGeometry width="50" height="50" relative="1" as="geometry">
            <mxPoint x="570" y="510" as="sourcePoint" />
            <mxPoint x="620" y="460" as="targetPoint" />
          </mxGeometry>
        </mxCell>
        <mxCell id="Jmjwqn2J3mBhddmmst4y-65" value="&lt;font style=&quot;font-size: 28px;&quot;&gt;API&lt;/font&gt;" style="whiteSpace=wrap;html=1;aspect=fixed;fillColor=#dae8fc;gradientColor=#7ea6e0;strokeColor=#6c8ebf;" vertex="1" parent="1">
          <mxGeometry x="810" y="270" width="80" height="80" as="geometry" />
        </mxCell>
        <mxCell id="Jmjwqn2J3mBhddmmst4y-67" value="" style="image;aspect=fixed;html=1;points=[];align=center;fontSize=12;image=img/lib/azure2/iot/Function_Apps.svg;" vertex="1" parent="1">
          <mxGeometry x="832.8199999999999" y="320" width="68" height="60" as="geometry" />
        </mxCell>
        <mxCell id="Jmjwqn2J3mBhddmmst4y-72" value="" style="image;aspect=fixed;html=1;points=[];align=center;fontSize=12;image=img/lib/azure2/integration/Logic_Apps.svg;" vertex="1" parent="1">
          <mxGeometry x="410" y="590" width="67" height="52" as="geometry" />
        </mxCell>
        <mxCell id="Jmjwqn2J3mBhddmmst4y-74" value="" style="image;sketch=0;aspect=fixed;html=1;points=[];align=center;fontSize=12;image=img/lib/mscae/Event_Hubs.svg;" vertex="1" parent="1">
          <mxGeometry x="470" y="405" width="48" height="50" as="geometry" />
        </mxCell>
        <mxCell id="Jmjwqn2J3mBhddmmst4y-76" value="&lt;font style=&quot;font-size: 14px;&quot;&gt;&lt;b&gt;Event Hub&lt;/b&gt;&lt;/font&gt;" style="text;html=1;strokeColor=none;fillColor=none;align=center;verticalAlign=middle;whiteSpace=wrap;rounded=0;" vertex="1" parent="1">
          <mxGeometry x="477" y="460" width="60" height="30" as="geometry" />
        </mxCell>
        <mxCell id="Jmjwqn2J3mBhddmmst4y-78" value="" style="endArrow=classic;html=1;rounded=0;strokeWidth=2;fillColor=#f8cecc;gradientColor=#ea6b66;strokeColor=#b85450;" edge="1" parent="1" target="Jmjwqn2J3mBhddmmst4y-65">
          <mxGeometry width="50" height="50" relative="1" as="geometry">
            <mxPoint x="440" y="150" as="sourcePoint" />
            <mxPoint x="721" y="142" as="targetPoint" />
          </mxGeometry>
        </mxCell>
        <mxCell id="Jmjwqn2J3mBhddmmst4y-79" value="" style="endArrow=classic;html=1;rounded=0;fillColor=#f8cecc;gradientColor=#ea6b66;strokeColor=#b85450;strokeWidth=2;" edge="1" parent="1" target="Jmjwqn2J3mBhddmmst4y-69">
          <mxGeometry width="50" height="50" relative="1" as="geometry">
            <mxPoint x="390" y="176" as="sourcePoint" />
            <mxPoint x="760" y="320" as="targetPoint" />
          </mxGeometry>
        </mxCell>
        <mxCell id="Jmjwqn2J3mBhddmmst4y-81" value="" style="points=[[0.145,0.145,0],[0.5,0,0],[0.855,0.145,0],[1,0.5,0],[0.855,0.855,0],[0.5,1,0],[0.145,0.855,0],[0,0.5,0]];shape=mxgraph.bpmn.event;html=1;verticalLabelPosition=bottom;labelBackgroundColor=#ffffff;verticalAlign=top;align=center;perimeter=ellipsePerimeter;outlineConnect=0;aspect=fixed;outline=standard;symbol=timer;" vertex="1" parent="1">
          <mxGeometry x="477" y="640" width="23.5" height="23.5" as="geometry" />
        </mxCell>
        <mxCell id="Jmjwqn2J3mBhddmmst4y-31" value="&lt;font style=&quot;font-size: 22px;&quot;&gt;new activity&lt;/font&gt;" style="rounded=0;whiteSpace=wrap;html=1;fillColor=#fff2cc;strokeColor=#d6b656;" vertex="1" parent="1">
          <mxGeometry x="183.96" y="359.5" width="140" height="30" as="geometry" />
        </mxCell>
        <mxCell id="Jmjwqn2J3mBhddmmst4y-47" value="" style="shape=image;verticalLabelPosition=bottom;labelBackgroundColor=default;verticalAlign=top;aspect=fixed;imageAspect=0;image=data:image/png,iVBORw0KGgoAAAANSUhEUgAAALsAAADVCAYAAAAPboFAAAAgAElEQVR4Ae2dB3jcxrW2b9zt2E6c7iROL87Nzb1JriU7iZsqRYmkJKo3SiIlUb33anWr9957o3rvvXdSvfdebUu2ZCfn/z8sz+JgdoAdQJRiXRHPsxzscoEzc+adbw8GM4P/oOwt2wNPiAf+4wkpZ3Yxsz1A2bBnQ/DEeCAb9iemqrMLmg17NgNPjAeyYX9iqjq7oNmwZzPwxHggG/YnpqqzC5oNezYDT4wHsmF/Yqo6u6DZsGcz8MR4IBv2J6aqswuaDXs2A0+MB7Jhf2KqOrug2bBnM/DEeCAb9iemqrMLmg17NgNPjAeyYX9iqjq7oNmwZzPwxHggG/YnpqqzC5oNezYDT4wHsmF/Yqo6u6Ba2L/66iv617/+ZeQdfPfLL7+0Xv/85z+NjsG5+RikplsQW8iTX1tq/kzLJW0hryabtOXH7w9qCz7xU8f379+n2599RmevXKMDpy/Qpv3HKG3dDvp4yiJK7TueEtoMoLfrdKJfVWhG302sR6/E16TnC1Sjb+RNtl7/kTeZ/iNvSsTr5bga9EaZxpS3aU9qOWoWLdueQcfPX6Iv7t0jU7+b+Bnf0cLuxwkMkmnGZCX5dTjbMs1fUFtsB2mQcgUBPagvTPMHn0mxMPXhqYtXadzSDVSz7zh6r35X+kNya/phiQb0XGxqBLg2zCHAo4Fufx+NIHTMM/mr0K8rNKWSHYfQ1kMnojZI0/K7wm7SUqTjglauiR18R9oyLRy+J6E1sQUA5DFBbAXxBY4xhU+WK4gtr0Z178sv6eyVG7Rh31FqNXoWvVmpRViZAa4TzkiVDv0/OOhq43g+NpXqD55C56/d1PqHfWFSt/iOVtmjHZwV8JlWrrRlegw7gcE1PY6/j/RRge4Fn1oP0hem+UPZ5XE6X1y99SmNWLSOirQbSL9JakHPxtjhhw2gG9zy86wDXTasP1VtSyt2HXC4Q9ax4x8eb3zDLh2HfZMNDpYgmRyD70hbppUrnQCbppvMn6ktWa6gvtDBp8uzLFdW2Prkzue0/9R5ajxsOr0cX8uh2gw4pxI89/2HAzrbeypfFZq4cgt9+dVXlhDJ+tL5S/eZL9izAj7TypW2TI+RQMAZpsdJx5mCLm1lBXy6yuHPpC3T/KHsOh/e/PQODZm/mj5o2J2+GVfTATnAYsA5Zdi804cLOtt+rWhdmrhiU1g4Tf3OfjSGXTrO1AgcLkFio9FSeYxp5UogcLzpFsRWVpTLtCHKcgX1O2xdu/0pDZizkr5frF4E4AwTA84pf+6dPjjosOdtg0OlZHomfwqt3LXf4sq0jvl7RrBL0IPCZ1q5j5OtoPAF8aHpMfCz9CEu7j4aP48Q9z6Vv4orVAw4p6bw8feRvlAwlb5XtA79vGRD+n2ZxvTf5ZvQXyo0db7KN6W/4PPyTejP5RrT70o3om/FR/7CRNq3G9WfqrShc1dvMMPGaVTYpeOCVq5pboKorFS+J13R4Wf24ad379Lcjbvp9ZKNXAFnoCSw2OfP1RTdgi8VqErfyp9Cfyhai5JrtKTutVrSzGr1KaN0El2LL0I34xJcXzcKxdPVQvF0JfN1vVC89d3LhRNpRs0mlKtCI3ohpqrGvg16KH/J1Gr0TOMwlfnzhF2CZKos8hg4PlvRQzfc4IsgPvQjMPjuvfv3acHm3ZSvWU96Or8OHA4JQmk00F9LqE15KjalpiVSaXypZFpTvgodKV4mDCzgBcRekON/bqDL4y4XSaTZZavQP4rVom/k41+hSNDRCF+Kq0F7jp9hjo1SV9i/7oqORsQqhtR0k8cEgS+oLdNGL8XCFHSU/f6XX9Kdzz+nhoMn01P5nECrCs3vo4HeuWJduh5f2AEy1JiVOStBl9CfKl6G3i5TP3yjifOp3oUt3XkY/fOfZnf64SMt7NLhQYEwrVzZqL7utkzhUxtikHL5sYXvzl6/g/6S2s4ChGH2ShkgTnXfTa3c+JGDztAfLV6a3ilWM9w7pIKO/P6mYgs6ffmaqc7pYWf18+NwPiao8pkCoYJkWlKZP1Nb+J48Logt00YvbZn6Hfn5/IsvqPGQKfSUFWu7x9sSZgacU/k/uf+zkg3DsGeFol8zCHcAO9uaXbgMfTMG4Yy+XM/EVKM1ew+bVos77KZAqPCZVi4qlEEytSWBwLGPypYpfKovgpTLj63042copmkPz4FWEl7sM+D/W709dZqwgN4o3URzQWiHQcsqpIbhQ/gSNHTxCzpsHc8TSx/EeV93oKfJdNOGMX4czsAiNd3kMaZAqCA9TFtqowpiy7QhSlumfkd+Fm7eQy/GpvoG/Ucl6tP4JZvo7MVbdOX6XUrpMd4T9lKl6zxwjB4EdDSqC7kK0LB8JTzzV6B5H9Pq0Su7ydEqfKaViwpl2E1Bl0Dg2EdlyxQ+1RdBymVq684X96j3jCX0nSK1fYH+y3JNqeWImZRx9DxduvopXb3xufUav3QrPVugmgtQyfTrQlUpI7GUuaLHJTi6F4OCjt4bwL4/Ry56uWB11/z9qnxTE1yt72iVPdrRqFwJbbTv8/8ZcqRBgMBxptu/y5ZpQ5QN2BR0jAup3X8Cob8b4YhbLCtDF4wpqdB1BGUcuUAXLn/iAB3Ab9l/mn6k7YsPdfk9H1OFphUuE6h78UFAR+x+/sMYOvrWh/TbxDoa2EP5eyW+uikS/pVdVTHTypWNIyjoj8qWKXyqL4KUy9TWxRu3KOnj4fR0vlDcHQ109FP/T7WPaPSiDXTu0m0t6ID94tXPKG/T3gpMzr7tmDL1wxeq3FuipjeyUNH53Gffz2/BnqNYbdf8PZU35eHAjsqV0D4q+J50Rb/7xT0q1LJP+OIyGuhQ9hp9J9Ghk5ctyHWKzmEM0kkrtguYnKDD1tP5q9DqcimuwKs3jB5U0Rn2M+/ms2B/2wF7ZP5MaTcOY1QVe5SgPypbpiqr+uJhKjr6kYu07W8MOsajD523Lgx5NNAB+6Vrd6xx7ACbe2vUMClv8Vp0MSExAngoOuDmG01ZBTqAP/X3vArs+vxlKeyo3H+XopuC/n8xRv/07ueUv1nPMIDRFP3PqR/R9oNn6OKVT8Kwy4tRqebqfo+py6w7rwy7auvl2Gq0qGhZB+wPS9FZ2U+8k1vArgcdv2KmW1RllyoG4E3hk43DVPmkLcD7MG0hT9xAvo6KjulxMc16GYGO0YwVu42mc5dCF6BQcxNFZ+AvX7tDm9NP0E9LNbLsqaDzBW9cqdp0NXP4wMNUdMB+o1CCBTouUN9ODPU8uTXELIEdsEloHxV8jxJ02DLduHH4yV+QRnX7zueUv6mZoqPbsMf0pXT64m2rpyUI6Djm3MVbVL7TCM8eHgws659UO2JQV1aGLqzqV2MKWbAfsWCv5dnoTevPVdmlygZV9KCKaZp5nP/KjVuEO4nr9h6ixdsyaOb6nbRwazqt3XuY0k+cJcyvlIOFJHymoEtf4Jggv1Smvrhw7SbFNu/tWbmstC8VqkG9Ziy3bg5duvqZ79AFis6NA6HPniMX6DtF64qLVftOKtv8aWxV2lWk5EOJ0Rl0pBdzFyCAflDA7vaLY8qLFna1cr+Oin7ozAWqPWAC/U/VtoS7gi8Wqi6GhaYQZqb/oHh9a9JClV5jaNuhE/SVCF38qDO+yy9T0GWjMgUdU+YKNDcLXb5VuDZNW7WDLl69E1jRObZHirupCGvaj1vg8CNDHkqTra7PSqVrWbA/DEVn4E+/l9cCHbDnTMQcWf34GOTLdNPCzhWLSgoCumnlqo3KJNNHz1+mWv0m0PMFqgr1i1QgZyWl0DMxVahs56GUcfwMfXHvvokpq+zsC6SmoMtymfri8s3bxt2LryTUohELNlpwBlH0K9fvhC9iJeiAfdeR8/TrpBZadeeYGX3bw0tVoeseEzUYWh7U5XdczZG3c4Vh/3Mx3U2lUJ0/VyDVqC7xJU/Yg4BuCoRUPoAUzRZUedTidfTrCs3oqXyhK3Ov1u6E3b6Sf71kA+qdtszIQUFAl+UyBf36J59RwRZm/egIM6av2WV1F6KnhcMQ014XhC5ORb8THjoA2KHwvWesUGC3/cfA/7BQdVqV6OydYcA5DQr6pQKF6HDOEOyH3/qQ/lDMPbRCwzfdtLB/3RT9/pdfUd+Zy+jFgqGBT+xwJ9Bu6u6sKG4gNftNJCwn4bYFAT2IomMitGk/+ivxtWjY/PUPRdG5Z4bTvE3su6rsb07Z7zlL1KWTRYo7uiMfFHQMADufN5YO5fiQADp6Y36Z6A779xLrulVhxOda2KOpLJ8FjYKheFiK/sX9L6npiBn0Qqy9cA8Dy053T/Wg4/voWagzcDIXxZFymZAGKZepogP0+Nb9RDjmHpdC0Seu2P7QFJ0h53T1rqP0oxINw3lTQWefxyTWoBNFSziAD6roAB3hzukPY8KgA/bXi7qHMRjgZrppYTc5WIJuWrlS+QBStO3Lr/5J3aYtpudEfA6ns6O9U3fQ5XED566yLlw5L0FA91su2Lr12V1KMAT95fiaNHJRZIx+8Yo9epEh1aUITZyhS+hiVPdd/gzHtB01h57Ob4+Bl37jfYzBqVq8Ol1OCE22flDQAfuJf+QJ97GjRwaLn7I9Z5pMOWp24KqLmgaCXYIeRPkAVLRfj8/v3acWo9IcoUtWKLrTWSkEkNZnHLEc9aDlMm306A4t3MZsCMBrRerS2CVbrAFbDyNGZ7jVFLZOnb9BpToMsdRd9Zt8j1/J5GLV6EzhxHCXZOBJHgXj6FiOUPgCVd/2dj5X0CF8sS16RYWcv+AbdgmEaeX6VT5cjHaftpiejQkNZXX7CWWHY2WrX5VvTmU6DafGQ6dTUteR9PuKzelVaz2S6L8EJToMCYdjQUMXk18qOB1DAIq0HRAOD7wasKXoCx+togN62aj2HDlH/5nSxgU4+zoJk7xTi6fS2fgi5mPflaU10JV5IXeBsKoD9pkfFtbYtn+1K3UbySxHTX3BLnsaHpaiI0ZvM3a2Q9G9QpeY5n1pzoa9dObibbp8zb6xcubCTVq69YB1Gx197twwItNk+mZcddp15KQFfJBymTb6Kzc/oaLtzEB/rUgdGrFwY5bF6OiFUdVb916Cjm5NfGfxlgPWmuuRvmPYQ/Bh+HGxoql0ILG0I4bni1aZquNqEP7gMx4PA9Dx6h1bRqk7G3Rw0XHiA07L0zWRR6Ho//zXv6jnjCX0bIzdh+4GOsaDVOk9PnwzRL0byDdJMKKv6fCZLjdKbMcVbtPPEbvrfMCfyUZvquhoxEUNFR13Rkf+mxUd0MvGkLZmNyFfkcDbPgzVVTK9XbI+nYxPJIyfkYDzvgo635zCEIFjOXI5lL1uohSqSFuTV23haomaGim7rNwgymcSowOG9hPm0ku4EyqGmkY6N6QmqX0m0skLt6wKkYqu3iRBhZ04f5NKdx6uVJTTcS8WSrXWAY/mMekLP4pe7KOB4XJ5hS64Mzpk3rpMRbd/qVT4JIhy39GPfvkTehBFl+fFJI9uU5YpCy85fSjL9cuidWhiicoRsKugQ9G5EWAaHis6p+8l8JS8SFvPxFSldemh661o9Yb/R4U9iKLjxACcX9Eygpgeis7TzRh2HeiYZlar/+Sw6rgpuqyoQ6ev0oqdR+hnZXkmvc5x1WjJ9gzPrErQTRUd1x+J7cxAf7FQDRq1eJNVNhlOoAHL8rjty14X3GziXze37/Pn0la0RtVj2jJ62lqiLtKHan2hp6ZejdZ0mUdKamJ0Bh3pyb/ZvTCAfW/O3PRG7orWUAFmgn89YOu7iXWt8U+elSb+6Qm7rFxTRVcvRqP1ukDRu0xZaKzo1XpPoFNhRXcOZNJV7rnLn9Luoxdo68EzVKhVf1fHfSNfCg1fuFa4xrkrfeFH0Uu0H2yo6HVowOw1gRVdDgEA6Fml6NwgOIU/W46c7RAmqegRwOdNoXeL1qCp5VPpUlzhcG8Nhy4M+5X8oVGOrOhIl79bkL6f371R/bZiSzpz5bqzojzeucL+KBQd+eqVZqbocGKNfpPCamWi6Pjp3X30PO04fM56NR2eFgZPKgRXUOfJC7WukqCbKjpOZBq6vFCwOo3+mis6w85+HzhzldVb5gU6+xXfwSJOJcs3oIuF4q2ZTQw5pycUVQfsk3MVpZczJ5fr6itn7U6ed8HVytTCLiv3YSp6j+lL6KVCZkMAUnqO86XoF65+RunHL4VB337oLHWZtDAMu66S0AukbtIXfhS9VMdQ/7SukmwIUujVhNrUd+bKr72iA3YGHb8cWHemz4wVhPsAsjy6ffiAX98vXJsal6xOO8pUCsfqV/IXdPStA3QMFej0QdHw7CldfeEhY4YPdbSqVQs7x9qmlYszyV8CFRjd+z5py4z70av0Gm8NZVUdrrsYxXfQA4PQhRUdoG/Zf4pajZxlOV3nOFRSB6UbS4LuR9ExuhL9ztFAR5fo8HnrrV8rGTcHidEXbcqwhueW6jicMK7lH3W7UkyzvpTcYxz1nbmKtu4/Q1euh9aKkbaixeiqogN09jvCxg3pJ+knpRu7AG9DzrDDz4jlX8hfhUpVakKnEkvS2fdCE6s5hAHoGNqbGFvZ04cDZq/UoeX6mSvspqD7j9HvU99Zy6y+bXZACArus3WmlXuMDaDoFx2gbz1wijbvO0GlOw7NdJ7TBlcAnkzBmwTd1Be4M1qmU8hGNNCh6D2nL9creiaUDJou3bzvFHWbvJhimvWm14pgqQnvm2e4sP95uabWjbdhc9dSurJYks4GfyYVnUHn/yFds/sY5W7ck9A7IpVd1q9bHb9YsDrFF0ymbrlL0Ir3CtGhTNAPvPUh/awwHlLgXq49x7JgyWrTygXofhW9V9pSY0Wv1mcCnc8c/xHN4XC6FaMfi1T0LftP0qpdh62JHLIy5D5uec/asMtiXYLuR9EBOo8l8aok9LrghhGUUY5Hx1gX3UW2BOv4uRtUped4eq1wbeM1ZLicDN9zMVXpZ2UaU/+Zq6P28pj4HfnDTb3GQ9MyYdcrOudDlz6drwq9mrcy/blITeoQX5Gm5SpM6DTQfRef/bB4fcJ9GT+bVtlNTiAVHcBH63XBMzYHzVtJ3zTsR6/YbYw1rxKONHG4LkaHogN0vNqNmav0ETsdiUkAh85ctEY5+g3joOhlOw+zfjWiKTrGX3ebsjRzrIuzH90L9DOXbtPQeevpD5Vbh+1EsyVBYdA55f+936A7zd+0Twu9id9lQ8T+pOXb6K+p7ZU8On3Ntp2pvwZStffY8OQaE17xnUCwq4oeDXQYQq+L6ehF3BlF5ZqCDkXf46LoAH3wnDWEHg+nc50V8KeqbawF/Rl0P4persswI5WFomM8OiDyo+jnL39KpTqOoGcjRn+6/8TLsjLgnMr/Yf+VhNr00bgFVkjF8AYBHY0VYQ4WZ2o1MjTkQ7Wlf+8E3etXEcdD8THPmOvqocHuW9Hvf0kjFq01VvTyXUfR2UuhmygmDo+m6KMXbfK4gAoBj3h2xtrtYeeZhnGYYVSh6/CwinlV0jfjalCXSYu1MbqXou86fJ4KtnS/P6CHx27IDDinbt/HxXKTYTOtX9NIv0cfV4MyqBe+i7ccpEKtBtC3i7iPR4fPOG9IvXzIeX+9ZEM6cOpcuL4eCuwSdLSqaIqO//eZuYyeL2BPvAgVyK4MLgBSv92L6HXZe9x5MYpeFw5dRi5YH3W2POzmqNWBvrh3z7fzKnYbGb654lVJGFMyeO5aumRNjrZDl2gxOm6evVe/u+uNMOk73b6EyMvvfCwuMCt+PJpOn79pTffTXYyy8ss0pOhyimBoABm+c+HKZ7Rk60H6e92PNb+s/kGHn9+r35Vuf3bHqi9cX5luxmGMBN0kRr//1Vc0dulGejnObKxL6U7D6dxlc0VH6KL2o8sYfeySzfRGGR4eoG9cqGRMxB6/dIMv0KHoyT1GhRXJC3QMP243dl6EokcD/eT5m5TQZqBv0K1uvYLVrQdsSZFhoL3TZGtGWJeJiyzYcVdWQq3b1ym67nv4bO7GDIpp3o++WxTPYg0GOhpt+3GzfYOOBmEEuwTdTNGJ+s5abqzoqIDOExdZPRGRP6GRs2qg6CroDkVfuIG+XwwPoHKHPPS/ZEpsN4A+yVSJaL9UrCCVu48yVvQBsyKHAEQD/fK1u5k9G+ZA/Kx8S4rpPIVKDF9HFcZupaRxW6ncmM1UbOAy+rDNSPpuYjR/2LYwM2j66l1GoKMs6HvHi4cEu8GOz4+cvWZNGK87YDK9UaqxJRheYmHXYSh/uBN7+MwF4+mSXGdGsEvQjRT9y69owopN1lQq+TNqZ1oPIOK68Uu30PnM5ZXdfkJNFP0npdxucti2cZHzXr0u9Omdu5ZKSKe47WNdF0wW4HJ5VRJCl/bjF1qK7hyVGb17cf3eE9aTqNkOUp2tp/JXpd9U7UxJI9dSvYVnqP6ic1RvwWmqO/+k9ao3/7T1GT6vM/cEJfSYRT8o3ZxwjeKsDxt0tvXHlLZ08NRVV+D9KDrDj3E12w+dCYeZ6/ceo17Tl1vXJL9JamnNGnPmi+vLzh9WM/YTusi69FR2CbqJomPlrf6zVxhPvHAWLJleiatBfaYvo/OXb2v7m3WKLkOX0Ys20o9KNlQqkh0m02T6TVIzOnAydJFjquhVe40x7HWprh0CEE3RAQVU/Z3aXcINiuFz+grTCWtR4T6LqPac42GgHaAvsEEH7PxKnXGQ3m0xVPjIBknaQvzedfISLeyRoNsxOoOtpldufE57j14Ig45fYtzZxl3ubYfO0rIdh6nZiFmEh4I5y2rnDzPXFm1Ll/z62neFXYJuouiYHD1l9Vbfih4qmF0g3CyZvHw7Xc5coYqdhpWv1NBFgo7HpZgoOhQSjyZJP36aLl2/RZjhH+2FR6Kbxujo4mw7Zn4gRUdZ8esG6PilU/SX4mpR8UHLwwB7KXrDxeeo8ZLz1qvRkvPUIBP8vB0mWXc82Y4EnWHDEzlOnLuhAB/Z68J15JaicRw4eVkLOg/pQFq07WBX0JG//0xuRReu3/IFuPyyFnYJupGi/+tfhFvtphMv2Jkq6Oxw3EofOHtNWN2h6BknnIO6JOhjFm8yBh02Xi/RgP5a/SP6S/WP6K81OkR5tbecbHJnFBejfdJWRtwwMlF0gHL20m0q2KKvJ+jPx1an0kPXUL2FZ8Ow6xS9/epLNHDrdRq16waN3X2Txu65SWN236ThO25Qz41XqcnCk/Ru8+iD1dqMmeeA3dm9GF3RUa4jp69FBX3upn0E/9ls2A2euag7cLLxbDIJOe9rYQfgeJkp+leUtm6HsaJ/P64GfSN84RhZIC7stwrXoamrdlhdV16KPnH5NvpxqUbCSTJckfvutthmZGp+DCDEOG80TL8xOoCA+u04eNpqiFy5an7Q0/KP1mPCkKuK3mDBaeq45hJNTL9FaQc+cX3N2H+bpuy9Tv02nKc3U7wfFPynqh9ljk3yr+go16kLN8kWJjt0kYq++cBpeq9BN0cdwgfyhfsAuMP9IJsn7NFiWczCGTjHfAhAiZTmtL50JfqgYnOjricA//GUpeHYDjHe1gOnwyqB7sWflW3qcJIKSOi903G60CDyOPNjoEg9p6+wGqafO6OAgUHHBfnI+eszH8WuvzP6fMGaVG1aRhh2qehNl5ylYTuu0/T97pCjAczYd4umpd+gaenXrbRt2mbCnd3I8oeE4ruJ9WjNrmPKDSMzRT95/kZU0AE9nhQCsfCqqyq9xj4I59axWthNFB2gz96wy1jRi5RvEJ6Aey2+MOUu28Aa0O+mYux8jCUZOGeNdRFjK8RJawzG69qnvEk1x745tGzTzzHPxlSj5iNmahTdbFocFB2go+uueDvErHrQkbf8H9mqLkFvtPA0jdl1w1XJWeWh6BJ0vJ+8+yr9ulJbV9jRczNq4QbRveiciM0NVk1xz2T7QRYmvaIDdAhY3qa9wvalmofYSLFuDB4+e+nhwG6i6EPnrzEHPbkZHSkeWl6BV4zaU7QUvV8BXYTulcvwvZpQi9qPn28N08XdUVzE/bI8fh1UsNX3Dxd0LJPdZdIiunDlU19jXRgMCTpg/1GJBq5lwkMHas46ZKm6BL3x4jNWLM5Au6URoO+zQ53kfjxaUfVfaEx+vQFTjPvRUbbTF24ZgQ7YMac19BxW97oq3WkoYfqmbvPTDalVdt1J5Wdr9h4yvjNauKz9WEHMLOcHTWHFKCj8B+VwYyHSyRJktHAseDRw9mqavHK7cfeiVAmTRuVL0QtUo1aj51i9Rs4Y3b+iA/RDp664gg5f/LJimwjQ680/RX03Xw2k6LJRDFp9SGub/YeLZtNJHuevmCk6QF+y/SC9Whhrr9tL7LFNrn80hC0Hj0v8wvs8FDv8QZQd37BjWbpfl2/muHjgjKlpXHxV2vqPAtYqT6zo6jrdGYml6f3y7jeBuPBIv1249tdC0RGjd5q4yOp1cYIe/YYRlE9VdNw1Xp9+Qgsc+/TP9fo4bxgtOE1Nl56nKRm3PWH3UnQGfnrGTXpeGRUq/Y4hu/xr5JWevmiu6IA96ePR1qwlaUsVpYZDpmrHYDHo6Egx3XzDvuPwCSPQY+KqhNcAweKUZ3IXsFRdtwbg9fjC9K5G4aUTsM8V752GxnegGxQvhBq4APN6PRcxUM3dFhZnajkq6xQdoAMgDJbyKleOJoPFndFTlsoP2XbNB+jXCeAz4Gr6wxL2zTjV75jF7wU5/udH0QF62ro9pPpdreNfVWiu7VeXoD802GFk95GTYdi9KidPwRRKz5nHmjiL+YSHcn5Ipz/IT9di48ITbXlmOSbcbswVR+8k2Ks/qQ73smX/L9n61ek5ZTmNXrSVxi7dQeOivEYv3kZ5G5s9rAuK3mHCQsKw4qxSdIZo6TZ32OGLnI0HhYYAZN4ZbbL0PM3w6HlxKvp1qxdGBVy+/2Hm9YLO77+r1MoTdig6uk1Do03dL0YBOV4YEPaT0jzJ/agAACAASURBVKEn87E9VdFRp50nLYiYjaSCHu36Uqq+sbKzkXv379EbpU36tVPov0vVp505c4cfFwKFP54zF517Pz9dzBNrhTdyYZzDOT+kHEXQD69erHjH9CHYk+nHJerT+CXbKW1NBs1ad4Bmrz/o+Zq57gCV62w2Hh193C1GzLZCECfowWJ0VnSGHROX7UZrl5d98ee6vQgxOt/2x00jCavcjwDdQ9FxHLoj0avEtjjl/PxvjY6usGPapEmvC4O+3bpTai8apdpim7+v1IJwV15uzCDfB5L/M9k3gl0awf7ynfvpB8Xdew4YPhQkNi6FdufMbT35jGePe6Ur342lnPH2Wo9ceO80mX5Vrin1T1tjDPqMNfuoVAezqXRQdNxJRMU6QQ8eozPknB49ez1iPUoGAenPy7cMgw7gP15/WQt7BOii10U2CLnfb/kBV9Dh9/jWA7Swn7EUnQd2RVd0dDPixpsceoyyqXX7vWL1aNuhkw5+JYOA3Y+i84miwi6NoP+dt4krNkdk0s60U5n/VLohZeQMPa3YC3SEO3hl5MxFfy3ifqPDtgMFTKYfFqtH4xZvMwYdql+204hwBet+QqUNKDoGaDlBzxpFZ9iRyvsGEnRrP18K1ZlzJAw8bvlLYC2FdvSje8fo8tiKvaeGfaGDr+HgGRGw+1V0KPuguWvDE9K5fNLPvF930GRH+CIZ9BOjM6ucesIujUjQ+eBJK7doFN4JOoMUWyiF9uZ0ruUnweclFAD73A8S6A8F1GGo9k87OwXnxmNG+vlU9NIdbdB1lcvnx0Vt8xGzslDRve88YgILbDMInHJ+Pmg1PAx7jw1XHLAHUXQAP277BfpVUquwTbbFKVZdwMMQZKP0q+gAHZO6f1OhediOm9/fqtmRrt7+lBFzTIAPquh8MlfYo4GOE+CnZPLKrULh9aBbFZivCv13ifrWRauEHPus6EgXvh9PP8ivA1v9LNka8z1y/iaasTrdKEaHolfuZjZMF3luMjQty/rR1RhdwsP7E5ZtdcCgAvF8wRqUOi3dAr7rOhv2CNCjxOis6tMyblLr6RvDz6tiwGX6vcT6tHbP8TDsVq9LeEx69NAFoK/YeZh+UKy+o2zSBu9jodLjF64wmxGgh/8RcEcLuwno0t745ZuMJhugUIUKpdAeofBS0ee/H09/LKBCrXsfUnQ/Mfr01RlUtrM98UIFiR2OFMN0Gw9Ly8JeF29FZ9j3HDlPPylpP7SLfxU5b5hw8k7zkLq3XXnRUvYI0A1idMCOvvVx287TH6u0syBkG2r61+odw4tUYcWHHQfNY3SAjobyQf3uUUGHXcxu47VgJIMPqujMqhZ2nBwvXejCB8oUkzbGLF4fLpBaSdKBGGuRs0R9K4ZXFf1HhoqOxwEOm7fRV4xeoavZVDrktYV29GLWx+gMOVIMIMNE59jmoeehSp/J/adjqlH5ocsJ49Sn7pNjXcxjdCj65N2X6f3GoeHE8vzqfofxCy1Vh6L7BX1D+gn63+rtw0sBegkM1oHBI0CxqaBL1h5k3xV2U9ARynDjGL1oHX3P4wGt0pFxhZJpe848Vgiz6P14+lOsTsHVz0Jh0vOxVanhoBmUtmafZ9ciuh6nrEynQi3th3V5ORyKXm/gtEcWozPscqTkpOUIZdRyO98/U6AaJfZfTD3WXcgcvRi9H51DFyj6pJ2XqGS3idY6NLJO1H2MKMXEb4yz3+EzdFm39zgVammPzffy+4eNutOnd794qKDj5FrYg4AO4PEThJBGdZr6HgXH83feKVKDZuQqQj82VHQcxy+sEdhsxFxP2BGjYy1EfsiB1y8O+tEbD52RJaMXMdbFJEZnRcf38cIkD8yxlQ/cVX0Xep9s3d6P6ziOxu647HlnlCHn0GXUplOUo05Xa1UF/blDDQt3ivulraLzlz/xDfrGjJP0br2uYb97gY4njRw5FxrR+LAUnX8NtLDzP71SqehoHLLfc9Ri9/VaGFZOX4xV5xw6VYwrl78fclyob/a52GrUbPhsSlu7PwL66av3Ufku9nIXoeN05w7F6LUHTMlUdPmAg6D96GYxurMr07a17cAZ4juakUDaDR5l+kvNLtRqxmYas/W8o3dGQo64ftCao1Rj+EL6WZkmnjE623urRkfac/QC7fSr6OnHKa6V/SBjL79jqZM9x85amAUF3VSYYSQQ7Az6nc8/p+2HjtPpy86nH2C9SQDPjuMUBZcv/tw7VY9x3oR4Ka4GtRo9zwE7FL3ix2Po+cynYkdTdDy2JnKG0cOP0aWiY3AYhzWYf4ubWJF+0fsC61T+qHRTer9JP6o3ahF9PG879Vq8hzrN2kJV+qfRf6d2pu8Vqy8mi+sbPdvDoLCFm/cFUvQPGnYzUnT8ks7dtNsSSRV0KZxegsvhs9d35P98w46MYDWmLpPnW6MQARIuOgu16kcHTl+Q56bRSzaEV+SSkHu1dnZ4KNVXrvM7KYTKbjp8jqXw09fso0rdxvhqVK+XamQ9RtINPoZQTSNHLz6Yosvz46ZNQuuBYjFWM1+ovvHrdywB8vGUJf4Vfa+5ouPR9FNXb7NYYeH0Cy4U3e8xvmBHxrBMHGba45avqpi/SWpBJy9eDQOP749ctM4Bnh/Qf1CsHhVt099zqhpXLtZSbDlyrqXoLxgoOh8XSpPpO0Xq0PRVO8IL7UvwdPsh0O0FgoLG6FLRVTvHzt6gfE37WH6W0Kp+d5bFVm15jKnfa/abFJ4kI5e7QDei2wsxet4mPR2P9HTLEz4HE2AjqKJL0HEO080YdmQOil6j37jMmM8ZTqAQUPjB81Y5bCMzg+estBbMN3U4KvPXFZpZD+LFchcJrft7rtXNjn0mv/PuI3/undqK+ZNSjWjVziPhcEKFj98/TEVnG5xiUkfuht3Da9o/LNCh6Ajn/HYvotfFqh8Rorr5GxejzAd4YmVGaroFBR3nN4IdGYOiV+s9hp4vgKcrRILOBWwwZGo43zJjwxesMQIW5/5eYh3akH6Y7t2/bynArc/uUuUeYyIGSrFNHCNVzCt/9jFQwMjj8BOLB9wybGr6KBSdbXKjOnLqCtXuN8nT77Jc0hcmAoPHxvdLW0mb94XWsvej6AWa9zFSdMToQ+avtth41IrOQEaFPazofd0VXTq6/fjQ47VlgQA9tmEL1loPzJLfd+6H7ozuOhx6tDps83bj0zsU3wYKHzlmxm/lhmxGgs55wYAs3BBh6Dhl+Di2R28K/88rdet18Tom0tYdwvLbv6/USnPhGix0eS42ld6r343W7D7qP0ZPP07x+MUVgsH+U9NX4mtZK8WhLv8dis4MecLOil6j7zhr/EQ0xcSsoLXphx2PnlFjKgCPwUWqQ3BuKPraPQfDis6Z5BSr5yZ9PFIA7w6sen4s51a2VG16Nj8aS/TjvpdYj9LW2gr/71B0u1HZq+nuPXqRek1foZ2eKMGLpuh/Tm1PYxdvoYMnr9BO6wFrUHWzsS6I0XHDCMvRsU3V3/wedT143r9X0ZkfV9gB+id37lDNfuNdY3QuEFLcfWw9epYDdFZ0NsbpwDmrCOuR8PEY8/Fm5ZbWknSI36Si8zGcAnj8dOIYdjSnfD41xaTdpAr16XKRYrS2RHn6rojtvRowFl/Cg7oiVfbRKrruFwBrt/dNW2WtC4lfIkxBxAq3Ol8AOKyyhjuisS360cx1e6wyYVUEv/3omCtrGqNb4dGsFVbVBVV0GderwslMmKZa2FnR6w2aZC1S6gUEwAJMHSfOp/v37Ue4R8vY9sMnqdu0xdR46DQaNm+VtQzx/Sigc6HwDCOs+8cVi1QFnN9D0euVqWmBjknfl+MSaEbRcvSs9XAq9+P4+B8Ur09pq3eF100xDV3kEADT5e8iG5Wt6Drg8RlWxt2ccYJmrNpBg2ettiZH1Bkwlar3mUQNBk8njG0Zs3gzLdy8nzKOXQqvoYl1XXYJRd928Ixrbwv3wmzcd5IKtxngeFwQ+0lN4XcsoIVNhrTRxIzrGKm85vMSQHmM174W9s/ufk61+08wUnQsS9Zw6DQH6G6KrmYkSGu/d/9L6jxpnjHopcvXp0tFipG6usGGkkn07ZjI+N9ZaSGl/HHJBrQp/YQ1ecMNOvm5M0Z/tDenZD7c9i9cfbiKjnC254wlVnUHqWMcmJWKztxpYR+zZJ315Oloio6bOR0mzg+UMTghSMvtOnmB4/lMTjjtCzUoS63SNbWgY/2aG3GFaWZihcwY3j7OPp8dEuCXA48inLVub9QLUifo9hAAN/DwefDrAbuf33Rdl6CKnthukJGig4l+maHL10XRPWH/c6r3YpcAAqFLvcFTAim62nI5M14pJt8CdJPQBf39RROr08WExAhFB+i8qgHSLaUr0ivWRasE3gk6N3o8uGrHoXOuwDtBf5SKHno8j1eDwv8wyMyO0U+G19DkMEWXbsgwj9HxK9992mKrGr9Ois5caZUdP0O2wkkIQvsoVPsJ8x6ponefushM0fNXocoxSbQvZ2469Y+8dLlgaBUy3Xo1gP1GXAJNT6xgjecIlVkPOvsDwM9Znx4BvBP0h63o9kPIgin6STKJ0TftO0klOgwxUnQwgYfFYcsKRY92zccAm34P39fC/tukFq6w48q+/pApDtBNY3QYlLEYZ9grxbDhzhPNYnRL0YtWpwM5coXXqzn2tzx0pWAcqYou1R37W0tXpBdFL03oold/AYtemt1HLoSBd4L+9VP0S9f8KzouRk370REy/jsUnRuVFz/yf1rY8WABhCmsZpyi9bYdN8cBrCno6s8a3ptsS7al06sJNcPhC+dFTZ+NqUqVC1ai/Tlyh0HnmVCn381LNwolOMIXFXYo/MSi5a1eGi/Q2e5PSze2JhE7Qf+aKvrhs+Flvs0U/RSV7jTMSNHR5dxrxlKrKhk+FjTTOpbXbqZKLW2ZcITvaGG/88U9Kt5+UPhBU7hrCUVvMWpmINBhiB1g2jhwDL6LJ9NxnM6g6dLCiqIz6FiYCZO6T/0tjyvwUH2EOViHEjH8c1a3ZGT4ptp9vWQDq/sON3/cHnimxtFBuhdxDmdXplmMfvn6Hd8x+ub9pymhzYCwz0MNX+8L3OvoOmWhxZoqZtaHBn+YC6RBQMdxppsWdhyM+YCLt2VYfeG905bS5gPHHLGYKbSqE/y29rxNQpN1VdDk+58k1qXtb+eLUHQGnVczOPNuvgjgJeiA/VqheJpU1KuXhis+FNv/tHQjmrd+r9WjooKtvo/sdTG7OSVBf6gx+v5TVK7LcCNFxzIjHLpIlQV8fuv4QUA3tQWmXWFXW4sskCnoOAe+i8L4aYHymMrdR0aEUxJ03k8omkrpOXKFl+VQQWfgpcKroKMvnsOb7WUq0TOacTghe86LWMTw6ccuhmN4FXK8zzpFtyd56Ozgs5Ci26ELP5VO19vCn205cNr4zih80GXyQgtqVcxUbtzeMxMPArrbud0+N4I9COiqE0xboAQddpft2E8YSMRQ69Nkei6mClWKTaK9OXJFXWrvzHtQeDt0YUVn0DmdULQCPR8BvBN07pb8edmm1kq8OgCzStFxHt355WeYM2rfGTXrddm8/5Q15ui5AtGXHcTc325T9d2LQevYDU75uWQQDcTUljxHVNilET+KLluuNOi1r4KO76I3BiqihxwhhQ0fJnEXLZJq9cawkrulx/6eJ9wtKRWdQUeKG094BpSt8LYt3UUs5lTKXhpAmFWKbgI6FH2XuBg1VfQibQcaLXeBOug0cb71xDrAJuvLq17l/yQXYMtkkwzi+KCbJ+zSiCnocAIXCMeYtkBpS+eE7tOWECYYOKGPhA8rCVj97Dn0a0sivOGFmU68m5euFbRDFwm63B+fmEQvKgPPWNGd+Umhn5drSsu2H7IU+JEq+pUgin6aKnUbZRijV6fOkxdYnMk6Rl2b1rFsHLo61kEsufBjS3cuV9ilEVPQYYBBR2q6mTgBd1A/nrJYwB4JOoOH/vYiCalWN6RUdoDOvTRID6OX5u/RuyWvxiXQspIVjbslMbpwx8Gz4QeDobcm2LQ9sz77oIpetO1Ao8nR8CtuIqLTAmDL+jKtY8lFUNBNbbl9Twt7ENBla4czTFu7tGXihI+nLNI8XDjy5g8UPiUmKQy8VHSADnXnhnDWiuH1/fByANmYohXoJcM1bn5Rtkl4Ejf64mVc7bYfpM8eE7P9xui4GE3uMcZoPDp+TTGiFZusYz8qKxuHSR3DluTCjy030PG5FnZuhcik6cbH+MlYECd8cf++446qWzgBNXomf1VKTKhG+3LYD0RgRWfQOT2tUXgJuvXAs7jCtKRUJTG0gLshZWr/4gD4rftPG4EuuxdN++yh6LsPn/N1wwigF/tokNFUOvjwo/Fz6V5mqCLry1TM5DFBQTdlMNr3XGE3BV22dhxj6gTZck2dIG11mjjPUngOXdxSKHyVmPJWL42q6Aw6p1LhVdDRe8Nx/NjEJHopYvCY82KZL2B/Wb4Zrdl9zBP4R6noVXqONVJ09LogdMEm/f6wxUxy4cdWNNDxfy3sQUD3k7EgrR0Ol8fhuZidJi0QMbxUV94Pqeyz+VOoeFwKZbhctDLsSE//I3TRiu5IvHQDyPDAs7klVYW3FZ1B5waIB2G5KXxgRT/iX9FLdhhqdDGKfGNYCHys+h3vTTZZV6Zi9jBBd4XdpDCytaNgpk6QBcJxJpu0xY3qy6++stYIxApUDJWaAjp+YZmNmgUqRO2WxEXriffyWd2SOtBZ3ZGODiu8bUcFnfOENXUwd1PG60EUHVPp/MfoZ6ha7/FGoQtGvLYdO8eqFul3P3UcBHRpC3VsupkyhPNplT2aITVjeG+yBXWCPA6PkcdDh4u3H0Lo18aYHQbKTp3whQBMsSq7TOGqdMBF4QE6Qh28jv8jjzUWXsKt7l+LL0LTiyfRM+JpGV7XEHjE4pbMGN6p6GYDyLBE354Ail6641BrCRRu+Laf+BfQTtuMmU141i3qVPr9YdaxFEAWMz88mXwX3/ENuwQdzjB1giwQjjPZpK07n39B2w6doJIdh9IzMZEjMmUFcqVyKv+HxlE9JlLhJeiAHb03Z9/LHzGWRgLPd2FHJibRy4ZzWn+d1II2Z5wMz2k1nZ+KqXT+Ff00pfYeb9S9iNGLrUbPsqpF+t1PHcvGgfo22aQtv4qO7/s5xhfsasbw3mQL6gQ+7tKNW9YApdeK1NGouK1K8m6qDnSG/rmYqlQ+oUpY4XWgcxyvGzwG4Bl0xPUX4wrTpGJJ9HTE0AKZt9A+8vW7pBa0fs8xa4lqkzujQRW9XJcR4UfIwC6XX5cCdFZ0hgjpw6xjKYBBbZnmD5wawx4UdFkgwGuysS2sQrZ85z76VYVmnhXFlceAc8qf61LceKoZU96K4Tl0YUVn0DlVFV6CDth5uMGYYhVdemkYeju8wsO0dh52n+LHsT2m0skhACbj0bceOE3V+0wwVvTmI9OsamG/AzzUlSlILEp8nJ86xjF4mW7SlumvB5/bCHbpBGQsiBNMM4Zzo0Cf3rlLzYZPp9eKRlNzgGRDZAI6w/9CgaqUVKgy7c3sh0fowoCrKSu8G+hQe8Tw44rJsTQMuW6Nm2T6feXWtCnjlOOilSFHihlGeM5S6MnRZoO60I+OhaR4cddoig7Q/68rujHsQUF/EEXHAqrNRkwnTPdiML1SBpxTjLX+bmJ97Wwr+zyhBoLBY7ViytPBHLlcQWfwMVrySuacVqnoMo7H/thilRSFdzZGeRH7m4otrfVcJOTYh6LvFoO6jBT94Bmq0ddM0THrrMnw6RYHso7/Lyq6EezSCX4UXYLuV9Fv3P6USncaQk9rb9rYSsnQMuCA9ndJLalIu2HUZNh86jZ1LRVpN9SlsTjhg8JXiU8Ox/AMt0x5uMGJ90KTuDl0UUHH+6sJRWhksYpWDM/541SCzmX4Q3Ibh8JD0fcGUPRK3Udbi1rZtiL9xTYbDp36xCh6VNizAnSohMkmbU1asSnqg624wp7Kl0KvFa5NH9T/mPrNWE0jF++iIfN3OF7F2g+jZx29N07QGT7E8PVik+iwRuEBuozrT3uMpZHwjynmHC3Jtjj/Mv1dpVZ08NRVK3TxOwQAql+z30TjYbqwizU5pd//Lys6M6iN2aUToOim6vwgig47eFXvO95FjZ0q9XJ8DSrVcTgNmr2eZqzJsB4zM3PdARqzZLcD9gFztlLRdsMyz6kHnaF7oUA1qpo5aZtVnRWdYUfPDf6nXrRKyLEP5b8YX5gGFU2iZwy7Jf+Q3Jpmr9/jO0av0mucsaJzWXGvgn2OFHVusqFR8HFBuHjYtrzKoIWdC+MnYxJ0U0VHxqQtvE/qFn0aHn6mO09YTGmrM2jmWufjIfE8pdGLncBD7RPbDVF6J9y74urHVqDDb4VmPDHkSOVISS/g1XE1Y4tX1Mx4cjZeqD7K9avyTWnFzkNG67psO3iWavWbFL5LjOMZZu80mVbvPmD5/klQdG4AnrAHabmmoENJpEqwsmDpNIQUbpXF8egvyzWl/rPWOR4chuee4qUq/OC526jfrE0U33qQBYZXOAG7L8amUu1CFSlDzGllRWfF5/Ts+84bTyroVu9NQhEakBiK4fXlcv7i/LZiC0pbt9tzoVH0uuBiFKv3sk/059Y3Koad/c5AuKVSzIJw4Uc4JRemttzyLT93hT2IE0xBRwZY0dVjzly5Tj8r20QLO1cqp98vVo/GLtlBUHMGnVNW+MHzttHAOVus16A5W6hI2yH0lHaIgYQiBF/d2PK0X6PoDDqnHNLoQJfhzbgSlejZiIbsBJ0bIgaPYaEinhAt022HzlLt/sEUnX23evf+QKGLWl8SJrkPfriOkZpu8pisBB32tbCbGsH3OHNBnaBrVHuOn6E/p37kAJ4riVNWMQyhHTB7fQTsgH7Gmn00cuH2MOiD522ngXO3UVzrQY5z87lCqQ3fS7FVqV7ByKEFDHk4zfEhnX7f7pZ0G0CGXpo+RaXC27ZQLgad8/PbSi0pbd0eB/BQ9Fr9JwVWdPbf2r2HjPhDHd+7f48++ewOYUlxk01yAT50daw7DxhinvwwqDuX7jMt7Lovqp/JApmCjnNwYZB6bXjMJD/4liuIU4aBU6yhPmHZLgfws9btt2L6GavSacSC7QTQZU9N4XaDNcA74QsBmEL1CyZ5rljAww1Ooh8eKwSLse9S2Xl/QonK4WeS2mXSx9tQeMTmUHZMoH5QRQ+VKdnqjdH5H2BisN2q3Qcppcdo+l1Ss/C1DvyNldDKdB5G8zbtISympQPZtI6lfXmMKeiwHY0jaSMQ7EFA54xxoXROkhnD/s4jp+i/q7YNx6QMH0Mu01+Wb04DZm8IxexrQ6DjAjZtTYal8KOVXhoofKFWUuH1oMMGYvjGsXqFZ9CtC9gc6KXJR9ejTOK+WDCeOuYuRs9mXpSqii7Lhf3fVWpJ01bvpHoDpxgt7opjvlWY7zw7y8W20PUoNwC+cd9Rqj1gkjVpnBshp2qe8P7HpRoS+vaX79xvnSpIHePAoIrOLMlyeO37hj0I6MgAZ8xPS4QT0o+foR+VqJ95YSnj6sh9fG/C0p2WojPoHM9zDC/VffD8HZTQBsA7gdA1KiwBqCq8BB2w83CDE2/npqsxhcIzm1jRkV7IU4AO5viQDrz1IQ16N46eNuxB+SYeIyNWONDBx59V6DraujZRy8Wg43sq7C1Hz7QeFYT/MeCc8nndUowkLdFhMF2//Um4nr2gk/+TXPhVdD5Wns9r3xfsQUD309pvfPIZnb920/oZlba2HjxO/1WljSbsUIEPPW2vX9oaS9EZdL5oTVsb2S0JhS/YwmxtQyh80/zltIunMujhOB6TQN7JTRhTA7XHDKjjb+cOL+OBxoHVhj96r2hmP7xaFvne2RgltCqAJTsMp5lr91PRdkMc0KrHMOyHzlykfM16hX3LgHOqnl//Hk85T6F3anek9Zk3q7yg4/89qKIDdpMIge0Zwy7hexgxeuNh061Hv7+SUIt+l9Sclm5Pt1SCW3vGyXOEZeb0zgYYNhA/LdWQJioxPAMvFR5xPHpo+qNbslUIePfzh+AL3WmtYPXSAFip6BJ0dV+9C8tdmfh88HsJ9PT/n9yss83Qcar7Dn9Wrsso65H2KGPRtqFuVhyngo7vA/YL12/RL8s1Cz99kG1wyuf1Tm2/47hvF6lN69KPMF+uKasyUq5j1y9n/kMVzmjfV/9vBHsQ0NWMubXAM1duUP5mvcMVzY7+TpHaNH/zbkd+tx06Sf+ZolN4p8NRub8o14wGzNL30kDhRy3eRYPmbg13Sw6cs5UKtpQxvB4+nPulAtWoWb4yVj+8TtFNQefvHcqRi9q+r1P4yHK5gVes/VDr/gJAx3UKw64DHefAw73+M7l1hN/Z/252nJ/r84c7wUfPX3bUnXzzqBWdbUeFPQjoOLlsuW6gY2m7fM16uyrLj0o2ICyOJLe9x8/ST8s0DlcSKpMrCKmsXPTXT1qxx9FLA4UHEDNWZ1i9NOiDB/SI5UMXrQPEuVXgbVuYxN0g804rQ6tL3RRd/S6UfqBQeFmmULnUvNjvS3UaTtNX77PKBdBxvQLYpS+ckKbQy3E1Xf2uflf/3vaF6nd8/83kVoQnk6tbVoCuntP0vSfsQUA3VfSzV29Q3qbRY8U9x85ElGXLwRNWD4UX6FxBUPiBc0K9NAz6zDX7LCCmrUynkQudA8cQ2hRoMVADfGTlIoZvna+M6/BgU9AZfAxCa/pBMUdIpgOJy4Y08aOhFuSs6NaFuQW7rmvVbiB8jmiNCsOsET6iR+iNMo3pOeshFZG+4PNxinCv5/TQQwq4ArMCdDfhZBteqSvsQUCHIVNFL9ACD+4NDQvwcnj6ibPa/KNb8mdlGodV3U3FYAM3niYu3+1QPkCBcTUYWoCQRvbS9J+9hQo5bjy5Vy6e+NGoYORoSb+gA3jAXj82itIX2wAAHERJREFUKVymEOiRgDJQxTsMpemrMyLKhXsMuEDl77mlXn5HD0uxjwbT4i0HKOP4JTp46grtO36JVu08TJW6jaSnMntt3PwOm5hhhl9vbP9u0JEHLexBQFcVHefQbehtyWeg6HDWHyq3JiyZoW5sC3cBf21N2dPfkJGV/ItyTWng7PXhbkk5gGzGmv00bMFOB/CAP3+zfg7wQvBF2oLCt89XOqzwQUDH5JEO+UrRN2OrhW26gYQGHNd6oBWeqYqOnhj8gkWD3Qt0LM46cuFGwtxXOankyvU74fUrF25Op/9KaRu1QeGRRUFA5zpm8XwQRWd+tLCzAWTSdONjkLplDK28YMu+Ror+naJ1afOB4xHmcW7pPDwp220sjQ17qGvstxWa04SlOyJGSgKOKSszImDvO3MTFWxhA+8GH+w8X6AaNS6YRLjY5F4apNzrwqGKLsUxuGn1fEwVAbq7ov+xSjuavGKPVtFRlmiwe4H+0zJNaMWOww7IAbwEnZfn25hxir5XrJ4n8D8p1YDu3P3c0bMWUanKB1JsvXhSDov61hV2U9DVFuim6Bdv3DLuz/1W4do0dulGUodYq7a4Ua3POEK/KO8+KVtW7i/KNqUh8zZFXrSuP0gjFtnhDEZK8gCyvE360FMGM6dejK1GHfOWpH2ZwJuADkXvbKjoiINzN+rlqejRYJe+wL4tCCmE1YcXbTkQFXRekfj4uZs0fMEGwjRIeR7ex/nxgIPth44H7l7kOo5KssEXtLCbgo7zmyg6bkXHte4XdoiXwzHBesGWvfTPfzonE6DQUtFVJ6BbEj+/7OhQ6oy1Lbv5qhBmBU1auTsC+HHL9lrqLkFHP3yfmZsopnl/5dyq8oZsYYpf49jQqgU6FZefQdGbxlagFx1PvHACKMtTpN1gmrJyr6eie8Hu5fc3yjah5TtC68q7hS4hRQ+FNpev37VieTwUOGftzhG+YVtYa3Pqqi0GKD6clXulYS3s8gtu+4BNgu6m6Ji5XryD3TPATuBUViZuKI1ZsiEiDFJtqaBzHnGjRHZLsg1OpS00jGHztziAn7ginVTQeQBZnQFpERVqn8/ZqF6KrUYf5y1lhTQSbrkP0LvmKWkUo0PRMRYfILvF6Aw5p2rMzj7g1M57Cv2kdGNasHmfsaJjrZujZ6+HR2NW7j7a4Ru2gRR3VvEAumibWsfRvs//9yPMgWBXM+YGHzK0ZPu+sCOkE7AvHQ5Fn7tpt29F50JzuuXgccLFqJct2MVF3pvJbaxeGgZk4vK94dAFis6gI8Wvgcyvve8EneN6XLQ2iSmvBR6gNy9QntAoOJ98nH1e+5ejcNtBNHlFpKLzxSjnn9PJK/fSr8rbD25mG5xKGwhdlm47aA76jc8doGM0Zvvx9gKzbINT2MKy115b0Bidf+m9zi3/5xt2FXQ3RWcjvdKWWpBw4TmVDv9mXA0atWidL0W//slndOjsReuFfbmt2n2A8IxSnS1pF/u4uB2xYCuhu2780l2Ose/cHdlp0kp6rkCqBnYn6LAnzw/gu+Up6QAeoHfLU8JI0XGuXI17+lL0EQu20M/L2Ncv7ANOZaP6YfEG1oOLZdgSuhi9G+51QejCMfqVG5/TifM3aOeRc2FVB+xdJi3yrOM2Y2fL6nHsqzw5/unxhkFHdGG6+YJdzZiXonMGhsxbHYbOdritWuh1mbV+Z7g/lo/DuWWB2BbS6Wu3U45aHen7xepbL+zPWLvDaix8zPr0Q/TL8moMb9uVUP4xpY3VSzNm8U5rrAwrOsNeucckzVRBJ+gSInluAN+iQEjhAXqLmHLGoOM8GLo8evFWawgA3zByU/RJK3bTH1PaGfV2/bxcM1q81fxilEOXnUfOO0AH7HUHTvGs44+nLuJqdaQPquh+e2qMYQdkMkZn+By517zZe+yM68x3PMJk1KL1xooOm7M27KRXEyIfFfmdonVoQ8bhcB7hyNV7DkXtGgOkaIRvlG5I3aasCocuDDrSd+qoy2I7QcfxEnB1H8D3yFOCeuYpYXwxap8jmb5frA4NzrxH4Ab6qEXb6I3SduNmYeFUNsbvJtaj+ZsyNKGLUHTxHChL0S/cJB3oeCJ2rkY9HLDbeU+xRAI9a+qm8qT+3+09ixlYjBZVqOcwgl3NmCnoyMz9+/dp7JJ19K2Emg4gMLto+prt1nBemSmcWxaIbSEdu2wjoaKkM3kflVq5x0gLdumEDfuOWndQ+XvO1Ant7yu1oV4zNjj62/H+m3Ey785jJETOczt/RV4umEp46eBzP8629dukFjRiwWbHBTXH6FNWpdOfqtjTGNkGp/L8iNEXbt6vAd2+YSQfeAbQj52LDF2g6HjNXreHvlu0jiiXs9wYbrAuwzkKEvUTRDglF7KOJT9e+0awB8mYLBAyiTHphdsMsMall+48jDBkV90ANNvCMRJ0XLy+mlDbFXRU7H+ltNa2dkwx+3bECsA2SDiWoX29ZCPqMmVNqAty3naKa233JPGvAEOE9Icl6lPpTsM0YY6sdL0tCWHkfuQxrxWtTcMXOHuQxizeQT8tZU9Ql3mT5cL5cf9i7kZvRZegI363YvRMsBlwTtfuOUZ/q9PJFXTYRA/bjU/vhKta1jHq2nR7UNBhxxN2NWOmrUkF3aRAsCULJEGfsGKzFZtHAuGcVfNhw26upjDGGr00oXNEgiTP/WZlKPxGaj1mCT0Xyxem+mP6z15JV299SmW7DNc2RLWBcKOS9iL39bbwvd9XakVjl263FB4jOv+navuw3UjQ7QaHJ3Av0Cq6HbpI0KMp+rq9xyix7UBP0JHfGv0mhOtEcgHQuY7DX3DZkVyYMqg7lSfsrLJ+MiYLhEyabmwLx0gnzNu8m16Ol2GEXYGycrHW48C5Kz3NQeHR8yOPc4MPCv+/NflmiRO+kGKmEIYgX7h+M2zTUnjHnVbncW62cHc2b5Oe9J0idY1GPH6rcC3qk7baWNFxbTRvY7omdNGDDkU/eeGWtaQ2q7hMcSOpXKfhYT9GNtZQHaHeMPsMG+qU6xip6ZZVoMOeFnY1Y6atKQjoqi0GHenkVVsIsb3OmRJY7Bdq1ddSWC8nIn8rd+6zemlCwHpfWIbsugNbutNQ67GJbBMKD+CjHaeWp0zn4Vbedxw+RW9Waikgcs8fnpTB51F9wZ8jhaJHuxhVFf24FaNH9roAeIQuJdvbU/6kLbmP+xiYvI3NrY7Zb25pVoIOG1rYZQtk+NwyxJ8HAR3Hsi31V2Dh1nTlwlCv6LhD916Dj+nefW+1kA7HAw6wZLOsHP2+E/RQAwnlA2q8Tpmhz74o2XGIMjlaDy2AwHd5gy92HTlJr1oXxPpj1HxGgu48bsrK7Vmm6Jv2naQKXUeIxmjXiZovXF9hfis2rmOkpltWgw67nrD/uxR9xrod9KOSDbUwqpWbv3lvOnf1hqcPZUOEwwE+uiW9Bo+psbYEHRVbucfoiIFqyARsXbp+k0p1GGxB4Ra64BylOg2lK7c+sfIugcBIzjcr21PmVJD4veoL/lym+Zr2pqNnroWBR385bhRBzSMU/by+e5EVvUynYUag40J49sZdXxtFZzhcYQ+i6H5arqxczgzSRdvSCTGmrDDeVyv3nTqdfSm6mr+Vuw+Eb8CwjVDqruj4P2buXLkZglTmXW1Uxdq7z2kt3sGp6OwPFhjM0Hq+gB2qOPPnvDAPNUSnosvv/zm1PZ299Am5gR4tRt+y/xRV7DrSCHRM+uBrJy6T6nfpM3X/YSg629DCzg7nL7mlsnLVMMTtGBlOwAncqJBCDXBhKCuK91XQ8zbtGUjR1Xyt2HUgYrSkaovzwOmguasixvBIX3C50CAqdR/leLof+p3xq4D4HpsEQvX79sOn6HcVW0b4IzJ/7qBznmOa9aEDxy9qFf2Eh6Kv2XOUyhoq+osFa1DXKYushxzIcnEdq75X3wcBXfWZek75Xgu7/ILbvlq5bt9TP5dOkP+Dojtv3tjxoFq5b9fpbC29Jo9X99VGhfEz8zfvIQwUw5BjuQH4EBTeio7vxLXqHxV0eW7Y2nn0NDUcMtV67Tp2Omxf+sKt0tCDxMAiVX3hFSbZxyXTU3mT6a3qHejUuevhsS5hRdcMAUDoggeRVfx4FD2VL+QX+3x23fBnUPReM5Za4iWhlb7w2pfHuPlCPZ7rWP3c7X0g2CXoQRWdC4QMz9+813VNGLVy8zTxp+iXrt+iKr3Ghp++gYtC/KxjNKbclu88QD8va89phV2uSE7/Ua8LXbvtHHQmfQF4TTcT0C/euE0oL9tXryNMQZc+LNCsDx0+fZVCg7rcY/Q1e45R+S5mocsLBVOpw4T5j1zR2YemPvcNu6xcU9CRGc4YUvmzhl4Xk350VFjO2p20yzPIwnJrhx08ce+9+l21s4wwAE3excX3F23dG1ZOG7CQir0cVytiLRTpCxxvuuG7/OJGrx6LXyKsv4LGibxIYEMN0dkYq9Zqp3kOq/OXymos+arQO3W60KHTV7VjXVjRK3cb7VjQVPUHv8cDmDGyFb9gUp3V8ri9l8e4+UI9VtaxH7/7gl1Wrinoasa4QPgc6uq2ypdaubkad7eWxlMLLt9LWxev3bSGJ3ClqCkg6p22zDpcOnzp9gz6zxRnT8j/1uxAu4+dlqasXhcG1o/D5THsC8eJiayVukwV/cfxNWhmSh26EZdAQ5Nq0/fCN+AiQZc++LBRD1qx80jECEb0oyN0Yf/LY9R99PW3HTuH7n5xL9x44UvUg8km/e7mC/U8kkH40tQWzmMMuzRiCjoMyMqVGYOiRxvrwg7HEN5rt0MXdGrh+T3Ozc6Doudu1D3KeJUUqjd4iiN/7HCEKjPWbbcutjBF8KYY2wF70hdZDToU/X+qfUTfsJ7D5K3o38ibQmmVajoWUB1ZNpWezW9P3Nb9CgBazH7KUaszbdp3Kgw8YvSUHmPo2cyJ3yrc8j0utHtMX2Kt/sB+9wOfPIb9znXplqKOJU9u33P73Ah2WbmmoKsZ4wLh85W7D1pTwaTzeJ8B5/TDRt0tpXMrAD6XtkKKHm2+KGYqpVDXyQvCzuP8ednB/6Qv/IBuUrnoc8d9A/aFV4z+enwNmlq1ngN0rBJ8PS6B+ifVou/GhR4/Ey2uDyn8YevOaHL3McaK3mJU2mOj6FynUWGXlWsKOk4uWyBg5A1KiZsOdoXaV/YMOKdv1exIl27c5kO1Kc7NIEHRY5r1JvQM6M5vf5ZML8fVoO0Hj1v5fNigS1942UruOSZ8fcE+4FRCi0VQxxQsY4Uucjls+fTtIWWq0nMx7s+mYl/gTvDf6nSxQhcs+AR7/D9d+myBatR92mK6/6X9lAyUT9axtqIyP+S6wjFevpDnkGLmx5Y8B/Y9YZdGTEGXx8gC4XOMa/5JabN+9PcbdqOL12+p+XW8l7bQ61Kkrdc6jXajwvjrUYvWfq1Ax4q6CC1CgLnH2z+ISaFRsWWsx1OeeCcPXYuNs9Rdgo6nf1wrFE/9Ktal1+L0N+gYZG5MnPLnuhRDLJqNCD3+HXWLF7hAPZhsUjgfNejInyvsMmOmoOOE7ASk0gmI0SPHlIcAZEdzigvCc1ft0YQ6R+LcrBKf3f2cElr3d9y80VUWPnuxYCqNW7rhgUCX5dLljT+TvohWuZsPHLNAZx9wKhUdF9X18pd1PHb+1N/z0PXYOMJznAC5+pj5gUUr0fOOkZh2o2cbnLr5DJ9D0TG97p7oSVLrmMutS7mucEw0X/Dx8LP0oanf+Xg11cIujZiCLo+RBcLnWNkLz+LROZMdzem79bvSZc2teJlxaevqrdtUvL2cYGFXpmoPy2APnrvSF+jSFspluslKMqlcLAv4vFhtAP6QoHNZvh1fk0bnKhp+EjeW2jucMxedzV2ALhYoRFdj4yy1v5K/kPUQhKM5PqSOhSrQqzHO0I79zanOFtvEZPNGQ6c5+tHBBXxjsgURTtXvpra88qOFnSvKFHQY4GOQyoxB0dGnzY6TKTua07/W6ECnLl3zyq91bqkSvWYsIfQMyPPq9l8qmEpjlqzzBbqsJLVcXpmU+TMBHefC9+oNtB/36AUfpvf1y1PSeqyNXGrv6Nu5rKd94DE3x5TH0nfPX4peyFR49jenOn/xZ8/GVKMukxfSF/fvu9ZxVvviYYCOPLrCbgq6mjGuXHyOVbpMFf3v9bqEx4u4OU+1hfd4QC5XjFv67cK1aOCcFb5AV2255Un9XDZ69oX6HfU9vofjrt36hAq26KNVdLVs346rQWM/KEz73wqtLRltqb0jOT6kj+KS6BWxniRg92pUCF3qD57y2Cs6+1sLuynoOImsXADCG8a6YKkLtZLwnhWF079Ub0/HL1zhQ7Upzi0Vk21FG5eOB2896MUo29JmTHwo8+cXdPYjLspjW/TV+s32ZegC9uXYatQ3TwmjxVOxGhkeR58/PtTjEgLdPeRD6NJx4qMdAgA/sx+QmvpdVIHnrhZ2zyMy/6lmTFYu1lQ37XX5W93OdPMze0Kuzra0BaCkE9A9aUPgrLxX42tSv5nLvvaKzhXMZb99564H8M6emm8Vqk4T3y9Mh9/K5bhwlUvtYX9vztxUp1ClsNBEU/Q6Ayc9ForuR5gDwS7hU1sg7nS6TYpgJef0L9U/omMBFZ3BmLp6W/iRhhJ69KMPX7DaF+gcTjB8slGxPV2aFYqu2sIFa6FW9mKwobI5QWdgvxmbSn1zl3CFHYpeO6Y8PZe5Ro70k7qP0KXt2NmOG0ZqHet8wJ8F8QXKLo9TfcHnVlM+Rv3c7b1v2JERhgGpVHQYmbVhl1ZpGXBOc9buSFAwr03aQsF0TkBXWIuRM625qghpMALvp6Ub0aiFa6x84jiTTdpCuUw3L1+4nUNtVG7f+/TuF+LhanrQGdZvFapBUzUKn54jN9WPq2yk6LjQr9Fv/L9V0d18oX7OoPupK1+wq0CooCNDIxeti4CdAef0T1XbhucnqoXg96otHej2d4n2nTxnLXW9YPNuOnbu0iNXdK/8cT6RqqBHO+7slRtUoHmfMKzwISs6g87pKwWrU7/cxcMPH4ai14kpL56k7Qzz+DikWDKk1eiZ1jwB2YCj5Y/LJsul44K/J1OcO4gtCbqpLdj1BbvMmJsRzO3kYalwIgPO6V9rtCcoltcmneCm6LrjpROwb7JJW35UwsQXqn0JhB9btz+7Q/mahJaYcwOdwYXCT38vnqDoDePNFB3DK1L7jKMv7ttDj5G/IKA/bL/LOnZjUPU7vzeCXQXCywgclvhRaO4lA84pFP3gmQtsW5uqtkwdHsQJKnxBbJkeE9QWN6oT5y9T7sbdI341GXKZvlowlQoWqGSm6AVSCYO67ohhukFB9+JCVvajrGNp1wh2djhSWSBkGgOC1GluiKMT2w2wBlu9EFuN0P2Xr2lP68aENK7bZ1uA1xQkCTr2TTbV4SbH4DucP9UXXseroHt9F/9jv35xzx4njnNASHI3ljOXdGGJd2wvGwXG4lTtPTbwDSNZLlO/qz6M5gv+v6xjySD/3yT1hF0FQho5cPoCNR85k0p2HEoYrZe2bkfYHr732f8fgbh5/1Gat3EXbdp/zPecUVPQpcNl/sKZ0ezIYwCtqa0gDvdrK+TXNCrZYTBV7jGKpq3e6hCYkxevUu7GPbQKz7+gnEqw1X30ozceNo0++/yLB27Apn5XeXqYftdUu3fMLlVMZuzwuUvaO6MYPyGPwb7pJo+TtryOl/CZKovqcK/zy//J/JlWrgq6PJ9un/3KsCJFjA6/ymdM4anfGOfvBNhc0XFNVaXXmMCDumS5TP2O8kof6sqv+0zWsanfdefBZ1plV4FgI/h81Z6DEUtPsNMxonDJtnSrUKZOUG3hvckmHc75i3acPAaON7UVxOF+bNl+beK4oOeLUUx/W7Zjv6N4Jy5epQ8ahoCXjYMbCNeJmkLRGwyZSp9mPq6RAQziQ9NjgtZxEL87nKS80cLODlCBOHLuEr0eZaWuVqPSLNgVO65v3Wy5HqA8LTloo/I6v/yfzJ9p5aqgy/Pp9kN+tR+LowO29ZjIR7VA7d+v31XbQFTI+X1KrzGBJ17Icpn6HeWVPtSVX/dZVoMOG56wc+WiZa7Ze0gs+ey8MJLK0mjoVF3eIz5TWzvbivii8oF0eJBj1AasnN7xNojDZf6i2ZJ+lT5kRWdAkSKUUTfYOnL2Ir1br4sFvO44Pgf60TEEICsU3RR0Wcc4Bu9NtiB+NzmvK+wyY3hQl3zkIjsQqawkLBs9YtFaE7uO1i5teR0snRDE4YDPdJNqFLRRRbMV8msjhw91wKLXZMSidY7TyUZ19/Mv6L36HysxvFOQEKMHHaYrbZn6HZmV9eXIvMcbeYyp3z1O5/iXFnY2AgjxmJZfVWiudaQEHft/Sf3I13IXAIptOXKleSMdbnoM8i+hDdKoTG3J/MGmly3br82igg5BUf0qbTF8x85fob/V7RJRT88VqGYNAfjkTuiR6uyPIOViW5rqcXwk/Y5jvHwhDwwCumk5YEcLO2cA3WCRT40OKYYK+pvJraIud4HzsrOjAcF5QCqd4Mfh8jh5Pq99mT9TR0r4cHy0LeRX/cWo/NXE/pvJrR1+9bKFG0MVu40KT9p+Oh+WpFvyf7bXhRtVNH/z/7Ww4ySYE/mbJLeJEc5uLqxctfvYGT6nNuWMMUxBQPIDOttB+rCVxdSW9KsUC13oAtBVv0rQ3XwBG2euXCesAvzJ3c+tssv8PSq/I3+mfpflCpI/LXCaD7Wwo3fg10lmocsfklvRxRveqwDArnS4qROkMrtVrlomnFsep/7f7b08JojDUb5oG/vVFHTpVwmEiS3OSxC/S1umfoe9ILaC+B11LG1xWaOlWtir9RkfEfuFfl6div5m5Va066hzWTjVoJqxICCZOly1hfcmWxCHSyBM4avWZ5wjRgf0athihS6KX6WtoL54VH5H/kz9Lstlmr+gdQwOtLDrJkhLNcI+FP30Ze/J0TAgW6CpEyR8fipXHhfElqnDZSWhfKa2nM8L1YOO0EX6VbVl0niD+l3a8uP3B61jU78/COiusEeu2OVUdIC+5/iTGaOrDjeFD/DgwccsGjpFB+jSr1kBnylID2oL5TNt9A9qy4/AyPrRKnvxDvY6LFw5nCJ0OX7Re3J0UGWRyuxHWeRxpg6XxwQBwo/D2VYJ67EzekVX/SqBgC3TLYjKSlt+/B7EFvsCx5r6HXUqjzOtY9VnWth3HjlFb5TBokZORf9jlTYO5VFPhvfIiHSCaYEeB4fLcunKrvtMVtKOwycy/eq84aP6NSt88aj8jvKZwpcV5TK1pasLLez//Ne/CBUDJcJP7w+L1aO6gybTySgLGMGABMI0Y0GdIEEytSWPCQIEyhfUFvyKC/oSHYbQqwm16Acav0pfwJbp9ij9HsRWEL/Dz/I4U7+7+UwLu9uXsz/P9sDj7IFs2B/n2svOuy8PZMPuy13ZX36cPZAN++Nce9l59+WBbNh9uSv7y4+zB7Jhf5xrLzvvvjyQDbsvd2V/+XH2QDbsj3PtZefdlweyYfflruwvP84eyIb9ca697Lz78kA27L7clf3lx9kD2bA/zrWXnXdfHsiG3Ze7sr/8OHsgG/bHufay8+7LA9mw+3JX9pcfZw9kw/4411523n15IBt2X+7K/vLj7IFs2B/n2svOuy8P/D89G3EQ6YhOJwAAAABJRU5ErkJggg==;" vertex="1" parent="1">
          <mxGeometry x="235.96" y="410" width="35.99" height="41" as="geometry" />
        </mxCell>
        <mxCell id="Jmjwqn2J3mBhddmmst4y-69" value="&lt;font style=&quot;font-size: 20px;&quot;&gt;&lt;br&gt;Web hook&lt;br&gt;&lt;br&gt;&lt;/font&gt;" style="whiteSpace=wrap;html=1;aspect=fixed;fillColor=#dae8fc;gradientColor=#7ea6e0;strokeColor=#6c8ebf;" vertex="1" parent="1">
          <mxGeometry x="368.17" y="375.36" width="53.64485981308411" height="53.64485981308411" as="geometry" />
        </mxCell>
        <mxCell id="Jmjwqn2J3mBhddmmst4y-83" value="" style="endArrow=classic;html=1;rounded=0;exitX=1;exitY=0.5;exitDx=0;exitDy=0;strokeWidth=2;strokeColor=#2D7600;" edge="1" parent="1" source="Jmjwqn2J3mBhddmmst4y-13" target="Jmjwqn2J3mBhddmmst4y-69">
          <mxGeometry width="50" height="50" relative="1" as="geometry">
            <mxPoint x="420" y="250" as="sourcePoint" />
            <mxPoint x="40" y="210" as="targetPoint" />
          </mxGeometry>
        </mxCell>
        <mxCell id="Jmjwqn2J3mBhddmmst4y-70" value="" style="group" vertex="1" connectable="0" parent="1">
          <mxGeometry x="335" y="389.5" width="90" height="82" as="geometry" />
        </mxCell>
        <mxCell id="Jmjwqn2J3mBhddmmst4y-68" value="" style="image;aspect=fixed;html=1;points=[];align=center;fontSize=12;image=img/lib/azure2/iot/Function_Apps.svg;" vertex="1" parent="Jmjwqn2J3mBhddmmst4y-70">
          <mxGeometry x="33.333333333333336" y="36.018691588785046" width="52.112149532710276" height="45.981308411214954" as="geometry" />
        </mxCell>
        <mxCell id="Jmjwqn2J3mBhddmmst4y-75" value="" style="endArrow=classic;html=1;rounded=0;fillColor=#60a917;strokeColor=#2D7600;strokeWidth=2;exitX=1;exitY=0.5;exitDx=0;exitDy=0;" edge="1" parent="1" source="Jmjwqn2J3mBhddmmst4y-69" target="Jmjwqn2J3mBhddmmst4y-74">
          <mxGeometry width="50" height="50" relative="1" as="geometry">
            <mxPoint x="388.64" y="415.61" as="sourcePoint" />
            <mxPoint x="488.64" y="415.61" as="targetPoint" />
          </mxGeometry>
        </mxCell>
        <mxCell id="Jmjwqn2J3mBhddmmst4y-89" value="" style="endArrow=classic;html=1;rounded=0;fillColor=#ffcd28;gradientColor=#ffa500;strokeColor=#d79b00;strokeWidth=2;exitX=1;exitY=0.75;exitDx=0;exitDy=0;" edge="1" parent="1" source="Jmjwqn2J3mBhddmmst4y-13" target="Jmjwqn2J3mBhddmmst4y-72">
          <mxGeometry width="50" height="50" relative="1" as="geometry">
            <mxPoint x="110" y="580" as="sourcePoint" />
            <mxPoint x="592" y="508" as="targetPoint" />
          </mxGeometry>
        </mxCell>
        <mxCell id="Jmjwqn2J3mBhddmmst4y-93" value="" style="endArrow=classic;html=1;rounded=0;strokeColor=#D79B00;strokeWidth=2;" edge="1" parent="1" source="Jmjwqn2J3mBhddmmst4y-74" target="Jmjwqn2J3mBhddmmst4y-72">
          <mxGeometry width="50" height="50" relative="1" as="geometry">
            <mxPoint x="530" y="400" as="sourcePoint" />
            <mxPoint x="580" y="350" as="targetPoint" />
          </mxGeometry>
        </mxCell>
        <mxCell id="Jmjwqn2J3mBhddmmst4y-96" value="" style="endArrow=classic;html=1;rounded=0;fillColor=#ffcd28;gradientColor=#ffa500;strokeColor=#d79b00;strokeWidth=2;exitX=0.585;exitY=-0.064;exitDx=0;exitDy=0;entryX=0.25;entryY=1;entryDx=0;entryDy=0;exitPerimeter=0;" edge="1" parent="1" source="Jmjwqn2J3mBhddmmst4y-72" target="Jmjwqn2J3mBhddmmst4y-32">
          <mxGeometry width="50" height="50" relative="1" as="geometry">
            <mxPoint x="-120" y="530" as="sourcePoint" />
            <mxPoint x="137" y="697" as="targetPoint" />
          </mxGeometry>
        </mxCell>
        <mxCell id="Jmjwqn2J3mBhddmmst4y-98" value="1" style="ellipse;whiteSpace=wrap;html=1;aspect=fixed;strokeWidth=2;fontFamily=Tahoma;spacingBottom=4;spacingRight=2;strokeColor=#d6b656;fillColor=#fff2cc;gradientColor=#ffd966;" vertex="1" parent="1">
          <mxGeometry x="433.5" y="517.64" width="20" height="20" as="geometry" />
        </mxCell>
        <mxCell id="Jmjwqn2J3mBhddmmst4y-99" value="2" style="ellipse;whiteSpace=wrap;html=1;aspect=fixed;strokeWidth=2;fontFamily=Tahoma;spacingBottom=4;spacingRight=2;strokeColor=#d6b656;fillColor=#fff2cc;gradientColor=#ffd966;" vertex="1" parent="1">
          <mxGeometry x="170" y="460" width="20" height="20" as="geometry" />
        </mxCell>
        <mxCell id="Jmjwqn2J3mBhddmmst4y-101" value="3" style="ellipse;whiteSpace=wrap;html=1;aspect=fixed;strokeWidth=2;fontFamily=Tahoma;spacingBottom=4;spacingRight=2;strokeColor=#d6b656;fillColor=#fff2cc;gradientColor=#ffd966;" vertex="1" parent="1">
          <mxGeometry x="547.6" y="480" width="20" height="20" as="geometry" />
        </mxCell>
        <mxCell id="Jmjwqn2J3mBhddmmst4y-102" value="1" style="ellipse;whiteSpace=wrap;html=1;aspect=fixed;strokeWidth=2;fontFamily=Tahoma;spacingBottom=4;spacingRight=2;strokeColor=#82b366;fillColor=#d5e8d4;gradientColor=#97d077;" vertex="1" parent="1">
          <mxGeometry x="251.95" y="330" width="20" height="20" as="geometry" />
        </mxCell>
        <mxCell id="Jmjwqn2J3mBhddmmst4y-103" value="2" style="ellipse;whiteSpace=wrap;html=1;aspect=fixed;strokeWidth=2;fontFamily=Tahoma;spacingBottom=4;spacingRight=2;strokeColor=#82b366;fillColor=#d5e8d4;gradientColor=#97d077;" vertex="1" parent="1">
          <mxGeometry x="440" y="388" width="20" height="20" as="geometry" />
        </mxCell>
      </root>
    </mxGraphModel>
  </diagram>
</mxfile>
